solid Poids_Défaut_sldprt
   facet normal 0.000000e+000 -1.000000e+000 0.000000e+000
      outer loop
         vertex 4.874558e+001 -1.200000e+001 -1.112962e+001
         vertex 4.963869e+001 -1.200000e+001 -6.000000e+000
         vertex 0.000000e+000 -1.200000e+001 -6.000000e+000
      endloop
   endfacet
   facet normal 0.000000e+000 -1.000000e+000 0.000000e+000
      outer loop
         vertex -4.414343e+000 -1.200000e+001 -4.063690e+000
         vertex -3.361582e+001 -1.200000e+001 -3.701320e+001
         vertex -3.685276e+000 -1.200000e+001 -4.734843e+000
      endloop
   endfacet
   facet normal 0.000000e+000 -1.000000e+000 0.000000e+000
      outer loop
         vertex -3.685276e+000 -1.200000e+001 -4.734843e+000
         vertex -3.361582e+001 -1.200000e+001 -3.701320e+001
         vertex -2.958438e+001 -1.200000e+001 -4.030837e+001
      endloop
   endfacet
   facet normal 0.000000e+000 -1.000000e+000 0.000000e+000
      outer loop
         vertex -3.685276e+000 -1.200000e+001 -4.734843e+000
         vertex -2.958438e+001 -1.200000e+001 -4.030837e+001
         vertex -2.855684e+000 -1.200000e+001 -5.276843e+000
      endloop
   endfacet
   facet normal 0.000000e+000 -1.000000e+000 0.000000e+000
      outer loop
         vertex -5.494640e+000 -1.200000e+001 -2.410172e+000
         vertex -4.336823e+001 -1.200000e+001 -2.488367e+001
         vertex -5.022999e+000 -1.200000e+001 -3.281689e+000
      endloop
   endfacet
   facet normal 0.000000e+000 -1.000000e+000 0.000000e+000
      outer loop
         vertex -5.022999e+000 -1.200000e+001 -3.281689e+000
         vertex -4.336823e+001 -1.200000e+001 -2.488367e+001
         vertex -4.054531e+001 -1.200000e+001 -2.925880e+001
      endloop
   endfacet
   facet normal 0.000000e+000 -1.000000e+000 0.000000e+000
      outer loop
         vertex -5.022999e+000 -1.200000e+001 -3.281689e+000
         vertex -4.054531e+001 -1.200000e+001 -2.925880e+001
         vertex -4.414343e+000 -1.200000e+001 -4.063690e+000
      endloop
   endfacet
   facet normal 0.000000e+000 -1.000000e+000 0.000000e+000
      outer loop
         vertex -4.414343e+000 -1.200000e+001 -4.063690e+000
         vertex -4.054531e+001 -1.200000e+001 -2.925880e+001
         vertex -3.728272e+001 -1.200000e+001 -3.331665e+001
      endloop
   endfacet
   facet normal 0.000000e+000 -1.000000e+000 0.000000e+000
      outer loop
         vertex -4.414343e+000 -1.200000e+001 -4.063690e+000
         vertex -3.728272e+001 -1.200000e+001 -3.331665e+001
         vertex -3.361582e+001 -1.200000e+001 -3.701320e+001
      endloop
   endfacet
   facet normal 0.000000e+000 -1.000000e+000 0.000000e+000
      outer loop
         vertex -5.816401e+000 -1.200000e+001 -1.472913e+000
         vertex -4.757765e+001 -1.200000e+001 -1.537424e+001
         vertex -5.494640e+000 -1.200000e+001 -2.410172e+000
      endloop
   endfacet
   facet normal 0.000000e+000 -1.000000e+000 0.000000e+000
      outer loop
         vertex -5.494640e+000 -1.200000e+001 -2.410172e+000
         vertex -4.757765e+001 -1.200000e+001 -1.537424e+001
         vertex -4.572084e+001 -1.200000e+001 -2.023869e+001
      endloop
   endfacet
   facet normal 0.000000e+000 -1.000000e+000 0.000000e+000
      outer loop
         vertex -5.494640e+000 -1.200000e+001 -2.410172e+000
         vertex -4.572084e+001 -1.200000e+001 -2.023869e+001
         vertex -4.336823e+001 -1.200000e+001 -2.488367e+001
      endloop
   endfacet
   facet normal 0.000000e+000 -1.000000e+000 0.000000e+000
      outer loop
         vertex -1.948197e+000 -1.200000e+001 5.674903e+000
         vertex -2.060624e+001 -1.200000e+001 4.555637e+001
         vertex -2.855684e+000 -1.200000e+001 5.276843e+000
      endloop
   endfacet
   facet normal 0.000000e+000 -1.000000e+000 0.000000e+000
      outer loop
         vertex -2.855684e+000 -1.200000e+001 5.276843e+000
         vertex -2.060624e+001 -1.200000e+001 4.555637e+001
         vertex -2.523212e+001 -1.200000e+001 4.316642e+001
      endloop
   endfacet
   facet normal 0.000000e+000 -1.000000e+000 0.000000e+000
      outer loop
         vertex -2.855684e+000 -1.200000e+001 5.276843e+000
         vertex -2.523212e+001 -1.200000e+001 4.316642e+001
         vertex -3.685276e+000 -1.200000e+001 4.734843e+000
      endloop
   endfacet
   facet normal 0.000000e+000 -1.000000e+000 0.000000e+000
      outer loop
         vertex -1.387779e-014 -1.200000e+001 6.000000e+000
         vertex -5.600044e+000 -1.200000e+001 4.968540e+001
         vertex -9.875676e-001 -1.200000e+001 5.918168e+000
      endloop
   endfacet
   facet normal 0.000000e+000 -1.000000e+000 0.000000e+000
      outer loop
         vertex -9.875676e-001 -1.200000e+001 5.918168e+000
         vertex -5.600044e+000 -1.200000e+001 4.968540e+001
         vertex -1.073669e+001 -1.200000e+001 4.883363e+001
      endloop
   endfacet
   facet normal 0.000000e+000 -1.000000e+000 0.000000e+000
      outer loop
         vertex -9.875676e-001 -1.200000e+001 5.918168e+000
         vertex -1.073669e+001 -1.200000e+001 4.883363e+001
         vertex -1.948197e+000 -1.200000e+001 5.674903e+000
      endloop
   endfacet
   facet normal 0.000000e+000 -1.000000e+000 0.000000e+000
      outer loop
         vertex -1.948197e+000 -1.200000e+001 5.674903e+000
         vertex -1.073669e+001 -1.200000e+001 4.883363e+001
         vertex -1.575690e+001 -1.200000e+001 4.745229e+001
      endloop
   endfacet
   facet normal 0.000000e+000 -1.000000e+000 0.000000e+000
      outer loop
         vertex -1.948197e+000 -1.200000e+001 5.674903e+000
         vertex -1.575690e+001 -1.200000e+001 4.745229e+001
         vertex -2.060624e+001 -1.200000e+001 4.555637e+001
      endloop
   endfacet
   facet normal 0.000000e+000 -1.000000e+000 0.000000e+000
      outer loop
         vertex -2.958438e+001 -1.200000e+001 -4.030837e+001
         vertex -2.523212e+001 -1.200000e+001 -4.316642e+001
         vertex -2.855684e+000 -1.200000e+001 -5.276843e+000
      endloop
   endfacet
   facet normal 0.000000e+000 -1.000000e+000 0.000000e+000
      outer loop
         vertex -2.855684e+000 -1.200000e+001 -5.276843e+000
         vertex -2.523212e+001 -1.200000e+001 -4.316642e+001
         vertex -2.060624e+001 -1.200000e+001 -4.555637e+001
      endloop
   endfacet
   facet normal 0.000000e+000 -1.000000e+000 0.000000e+000
      outer loop
         vertex -2.855684e+000 -1.200000e+001 -5.276843e+000
         vertex -2.060624e+001 -1.200000e+001 -4.555637e+001
         vertex -1.948197e+000 -1.200000e+001 -5.674903e+000
      endloop
   endfacet
   facet normal 0.000000e+000 -1.000000e+000 0.000000e+000
      outer loop
         vertex -1.948197e+000 -1.200000e+001 -5.674903e+000
         vertex -2.060624e+001 -1.200000e+001 -4.555637e+001
         vertex -1.575690e+001 -1.200000e+001 -4.745229e+001
      endloop
   endfacet
   facet normal 0.000000e+000 -1.000000e+000 0.000000e+000
      outer loop
         vertex -1.948197e+000 -1.200000e+001 -5.674903e+000
         vertex -1.575690e+001 -1.200000e+001 -4.745229e+001
         vertex -9.875676e-001 -1.200000e+001 -5.918168e+000
      endloop
   endfacet
   facet normal 0.000000e+000 -1.000000e+000 0.000000e+000
      outer loop
         vertex -5.979507e+000 -1.200000e+001 4.954761e-001
         vertex -5.000000e+001 -1.200000e+001 -5.551115e-014
         vertex -5.979507e+000 -1.200000e+001 -4.954761e-001
      endloop
   endfacet
   facet normal 0.000000e+000 -1.000000e+000 0.000000e+000
      outer loop
         vertex -5.979507e+000 -1.200000e+001 -4.954761e-001
         vertex -5.000000e+001 -1.200000e+001 -5.551115e-014
         vertex -4.972889e+001 -1.200000e+001 -5.199724e+000
      endloop
   endfacet
   facet normal 0.000000e+000 -1.000000e+000 0.000000e+000
      outer loop
         vertex -5.979507e+000 -1.200000e+001 -4.954761e-001
         vertex -4.972889e+001 -1.200000e+001 -5.199724e+000
         vertex -5.816401e+000 -1.200000e+001 -1.472913e+000
      endloop
   endfacet
   facet normal 0.000000e+000 -1.000000e+000 0.000000e+000
      outer loop
         vertex -5.816401e+000 -1.200000e+001 -1.472913e+000
         vertex -4.972889e+001 -1.200000e+001 -5.199724e+000
         vertex -4.891851e+001 -1.200000e+001 -1.034306e+001
      endloop
   endfacet
   facet normal 0.000000e+000 -1.000000e+000 0.000000e+000
      outer loop
         vertex -5.816401e+000 -1.200000e+001 -1.472913e+000
         vertex -4.891851e+001 -1.200000e+001 -1.034306e+001
         vertex -4.757765e+001 -1.200000e+001 -1.537424e+001
      endloop
   endfacet
   facet normal 0.000000e+000 -1.000000e+000 0.000000e+000
      outer loop
         vertex -5.494640e+000 -1.200000e+001 2.410172e+000
         vertex -5.022999e+000 -1.200000e+001 3.281689e+000
         vertex -4.336823e+001 -1.200000e+001 2.488367e+001
      endloop
   endfacet
   facet normal 0.000000e+000 -1.000000e+000 0.000000e+000
      outer loop
         vertex -4.336823e+001 -1.200000e+001 2.488367e+001
         vertex -4.572084e+001 -1.200000e+001 2.023869e+001
         vertex -5.494640e+000 -1.200000e+001 2.410172e+000
      endloop
   endfacet
   facet normal 0.000000e+000 -1.000000e+000 0.000000e+000
      outer loop
         vertex -5.494640e+000 -1.200000e+001 2.410172e+000
         vertex -4.572084e+001 -1.200000e+001 2.023869e+001
         vertex -4.757765e+001 -1.200000e+001 1.537424e+001
      endloop
   endfacet
   facet normal 0.000000e+000 -1.000000e+000 0.000000e+000
      outer loop
         vertex -5.494640e+000 -1.200000e+001 2.410172e+000
         vertex -4.757765e+001 -1.200000e+001 1.537424e+001
         vertex -5.816401e+000 -1.200000e+001 1.472913e+000
      endloop
   endfacet
   facet normal 0.000000e+000 -1.000000e+000 0.000000e+000
      outer loop
         vertex -5.816401e+000 -1.200000e+001 1.472913e+000
         vertex -4.757765e+001 -1.200000e+001 1.537424e+001
         vertex -4.891851e+001 -1.200000e+001 1.034306e+001
      endloop
   endfacet
   facet normal 0.000000e+000 -1.000000e+000 0.000000e+000
      outer loop
         vertex -5.816401e+000 -1.200000e+001 1.472913e+000
         vertex -4.891851e+001 -1.200000e+001 1.034306e+001
         vertex -5.979507e+000 -1.200000e+001 4.954761e-001
      endloop
   endfacet
   facet normal 0.000000e+000 -1.000000e+000 0.000000e+000
      outer loop
         vertex -5.979507e+000 -1.200000e+001 4.954761e-001
         vertex -4.891851e+001 -1.200000e+001 1.034306e+001
         vertex -4.972889e+001 -1.200000e+001 5.199724e+000
      endloop
   endfacet
   facet normal 0.000000e+000 -1.000000e+000 0.000000e+000
      outer loop
         vertex -5.979507e+000 -1.200000e+001 4.954761e-001
         vertex -4.972889e+001 -1.200000e+001 5.199724e+000
         vertex -5.000000e+001 -1.200000e+001 -5.551115e-014
      endloop
   endfacet
   facet normal 0.000000e+000 -1.000000e+000 0.000000e+000
      outer loop
         vertex -2.523212e+001 -1.200000e+001 4.316642e+001
         vertex -2.958438e+001 -1.200000e+001 4.030837e+001
         vertex -3.685276e+000 -1.200000e+001 4.734843e+000
      endloop
   endfacet
   facet normal 0.000000e+000 -1.000000e+000 0.000000e+000
      outer loop
         vertex -3.685276e+000 -1.200000e+001 4.734843e+000
         vertex -2.958438e+001 -1.200000e+001 4.030837e+001
         vertex -3.361582e+001 -1.200000e+001 3.701320e+001
      endloop
   endfacet
   facet normal 0.000000e+000 -1.000000e+000 0.000000e+000
      outer loop
         vertex -3.685276e+000 -1.200000e+001 4.734843e+000
         vertex -3.361582e+001 -1.200000e+001 3.701320e+001
         vertex -4.414343e+000 -1.200000e+001 4.063690e+000
      endloop
   endfacet
   facet normal 0.000000e+000 -1.000000e+000 0.000000e+000
      outer loop
         vertex -4.414343e+000 -1.200000e+001 4.063690e+000
         vertex -3.361582e+001 -1.200000e+001 3.701320e+001
         vertex -3.728272e+001 -1.200000e+001 3.331665e+001
      endloop
   endfacet
   facet normal 0.000000e+000 -1.000000e+000 0.000000e+000
      outer loop
         vertex -4.414343e+000 -1.200000e+001 4.063690e+000
         vertex -3.728272e+001 -1.200000e+001 3.331665e+001
         vertex -5.022999e+000 -1.200000e+001 3.281689e+000
      endloop
   endfacet
   facet normal 0.000000e+000 -1.000000e+000 0.000000e+000
      outer loop
         vertex -5.022999e+000 -1.200000e+001 3.281689e+000
         vertex -3.728272e+001 -1.200000e+001 3.331665e+001
         vertex -4.054531e+001 -1.200000e+001 2.925880e+001
      endloop
   endfacet
   facet normal 0.000000e+000 -1.000000e+000 0.000000e+000
      outer loop
         vertex -5.022999e+000 -1.200000e+001 3.281689e+000
         vertex -4.054531e+001 -1.200000e+001 2.925880e+001
         vertex -4.336823e+001 -1.200000e+001 2.488367e+001
      endloop
   endfacet
   facet normal 0.000000e+000 -1.000000e+000 0.000000e+000
      outer loop
         vertex 4.006880e+001 -1.200000e+001 2.990804e+001
         vertex -1.387779e-014 -1.200000e+001 6.000000e+000
         vertex 4.296182e+001 -1.200000e+001 2.557894e+001
      endloop
   endfacet
   facet normal 0.000000e+000 -1.000000e+000 0.000000e+000
      outer loop
         vertex 4.296182e+001 -1.200000e+001 2.557894e+001
         vertex -1.387779e-014 -1.200000e+001 6.000000e+000
         vertex 4.538894e+001 -1.200000e+001 2.097246e+001
      endloop
   endfacet
   facet normal 0.000000e+000 -1.000000e+000 0.000000e+000
      outer loop
         vertex 9.948765e+000 -1.200000e+001 4.900023e+001
         vertex 4.799068e+000 -1.200000e+001 4.976916e+001
         vertex -1.387779e-014 -1.200000e+001 6.000000e+000
      endloop
   endfacet
   facet normal 0.000000e+000 -1.000000e+000 0.000000e+000
      outer loop
         vertex -1.387779e-014 -1.200000e+001 6.000000e+000
         vertex 4.799068e+000 -1.200000e+001 4.976916e+001
         vertex -4.026713e-001 -1.200000e+001 4.999838e+001
      endloop
   endfacet
   facet normal 0.000000e+000 -1.000000e+000 0.000000e+000
      outer loop
         vertex -1.387779e-014 -1.200000e+001 6.000000e+000
         vertex -4.026713e-001 -1.200000e+001 4.999838e+001
         vertex -5.600044e+000 -1.200000e+001 4.968540e+001
      endloop
   endfacet
   facet normal 0.000000e+000 -1.000000e+000 0.000000e+000
      outer loop
         vertex -1.575690e+001 -1.200000e+001 -4.745229e+001
         vertex -1.073669e+001 -1.200000e+001 -4.883363e+001
         vertex -9.875676e-001 -1.200000e+001 -5.918168e+000
      endloop
   endfacet
   facet normal 0.000000e+000 -1.000000e+000 0.000000e+000
      outer loop
         vertex -9.875676e-001 -1.200000e+001 -5.918168e+000
         vertex -1.073669e+001 -1.200000e+001 -4.883363e+001
         vertex -5.600044e+000 -1.200000e+001 -4.968540e+001
      endloop
   endfacet
   facet normal 0.000000e+000 -1.000000e+000 0.000000e+000
      outer loop
         vertex -9.875676e-001 -1.200000e+001 -5.918168e+000
         vertex -5.600044e+000 -1.200000e+001 -4.968540e+001
         vertex 0.000000e+000 -1.200000e+001 -6.000000e+000
      endloop
   endfacet
   facet normal 0.000000e+000 -1.000000e+000 0.000000e+000
      outer loop
         vertex 0.000000e+000 -1.200000e+001 -6.000000e+000
         vertex -5.600044e+000 -1.200000e+001 -4.968540e+001
         vertex -4.026713e-001 -1.200000e+001 -4.999838e+001
      endloop
   endfacet
   facet normal 0.000000e+000 -1.000000e+000 0.000000e+000
      outer loop
         vertex 0.000000e+000 -1.200000e+001 -6.000000e+000
         vertex -4.026713e-001 -1.200000e+001 -4.999838e+001
         vertex 4.799068e+000 -1.200000e+001 -4.976916e+001
      endloop
   endfacet
   facet normal 0.000000e+000 -1.000000e+000 0.000000e+000
      outer loop
         vertex 4.799068e+000 -1.200000e+001 -4.976916e+001
         vertex 9.948765e+000 -1.200000e+001 -4.900023e+001
         vertex 0.000000e+000 -1.200000e+001 -6.000000e+000
      endloop
   endfacet
   facet normal 0.000000e+000 -1.000000e+000 0.000000e+000
      outer loop
         vertex 0.000000e+000 -1.200000e+001 -6.000000e+000
         vertex 9.948765e+000 -1.200000e+001 -4.900023e+001
         vertex 1.499057e+001 -1.200000e+001 -4.769992e+001
      endloop
   endfacet
   facet normal 0.000000e+000 -1.000000e+000 0.000000e+000
      outer loop
         vertex 0.000000e+000 -1.200000e+001 -6.000000e+000
         vertex 1.499057e+001 -1.200000e+001 -4.769992e+001
         vertex 1.986982e+001 -1.200000e+001 -4.588235e+001
      endloop
   endfacet
   facet normal 0.000000e+000 -1.000000e+000 0.000000e+000
      outer loop
         vertex 1.986982e+001 -1.200000e+001 -4.588235e+001
         vertex 2.453360e+001 -1.200000e+001 -4.356722e+001
         vertex 0.000000e+000 -1.200000e+001 -6.000000e+000
      endloop
   endfacet
   facet normal 0.000000e+000 -1.000000e+000 0.000000e+000
      outer loop
         vertex 0.000000e+000 -1.200000e+001 -6.000000e+000
         vertex 2.453360e+001 -1.200000e+001 -4.356722e+001
         vertex 2.893132e+001 -1.200000e+001 -4.077963e+001
      endloop
   endfacet
   facet normal 0.000000e+000 -1.000000e+000 0.000000e+000
      outer loop
         vertex 0.000000e+000 -1.200000e+001 -6.000000e+000
         vertex 2.893132e+001 -1.200000e+001 -4.077963e+001
         vertex 3.301531e+001 -1.200000e+001 -3.754982e+001
      endloop
   endfacet
   facet normal 0.000000e+000 -1.000000e+000 0.000000e+000
      outer loop
         vertex 3.301531e+001 -1.200000e+001 -3.754982e+001
         vertex 3.674127e+001 -1.200000e+001 -3.391281e+001
         vertex 0.000000e+000 -1.200000e+001 -6.000000e+000
      endloop
   endfacet
   facet normal 0.000000e+000 -1.000000e+000 0.000000e+000
      outer loop
         vertex 0.000000e+000 -1.200000e+001 -6.000000e+000
         vertex 3.674127e+001 -1.200000e+001 -3.391281e+001
         vertex 4.006880e+001 -1.200000e+001 -2.990804e+001
      endloop
   endfacet
   facet normal 0.000000e+000 -1.000000e+000 0.000000e+000
      outer loop
         vertex 0.000000e+000 -1.200000e+001 -6.000000e+000
         vertex 4.006880e+001 -1.200000e+001 -2.990804e+001
         vertex 4.296182e+001 -1.200000e+001 -2.557894e+001
      endloop
   endfacet
   facet normal 0.000000e+000 -1.000000e+000 0.000000e+000
      outer loop
         vertex 4.296182e+001 -1.200000e+001 -2.557894e+001
         vertex 4.538894e+001 -1.200000e+001 -2.097246e+001
         vertex 0.000000e+000 -1.200000e+001 -6.000000e+000
      endloop
   endfacet
   facet normal 0.000000e+000 -1.000000e+000 0.000000e+000
      outer loop
         vertex 0.000000e+000 -1.200000e+001 -6.000000e+000
         vertex 4.538894e+001 -1.200000e+001 -2.097246e+001
         vertex 4.732386e+001 -1.200000e+001 -1.613854e+001
      endloop
   endfacet
   facet normal 0.000000e+000 -1.000000e+000 0.000000e+000
      outer loop
         vertex 0.000000e+000 -1.200000e+001 -6.000000e+000
         vertex 4.732386e+001 -1.200000e+001 -1.613854e+001
         vertex 4.874558e+001 -1.200000e+001 -1.112962e+001
      endloop
   endfacet
   facet normal 0.000000e+000 -1.000000e+000 0.000000e+000
      outer loop
         vertex 4.963869e+001 -1.200000e+001 6.000000e+000
         vertex 4.874558e+001 -1.200000e+001 1.112962e+001
         vertex -1.387779e-014 -1.200000e+001 6.000000e+000
      endloop
   endfacet
   facet normal 0.000000e+000 -1.000000e+000 0.000000e+000
      outer loop
         vertex -1.387779e-014 -1.200000e+001 6.000000e+000
         vertex 4.874558e+001 -1.200000e+001 1.112962e+001
         vertex 4.732386e+001 -1.200000e+001 1.613854e+001
      endloop
   endfacet
   facet normal 0.000000e+000 -1.000000e+000 0.000000e+000
      outer loop
         vertex -1.387779e-014 -1.200000e+001 6.000000e+000
         vertex 4.732386e+001 -1.200000e+001 1.613854e+001
         vertex 4.538894e+001 -1.200000e+001 2.097246e+001
      endloop
   endfacet
   facet normal 0.000000e+000 -1.000000e+000 0.000000e+000
      outer loop
         vertex -1.387779e-014 -1.200000e+001 6.000000e+000
         vertex 2.893132e+001 -1.200000e+001 4.077963e+001
         vertex 2.453360e+001 -1.200000e+001 4.356722e+001
      endloop
   endfacet
   facet normal 0.000000e+000 -1.000000e+000 0.000000e+000
      outer loop
         vertex 4.006880e+001 -1.200000e+001 2.990804e+001
         vertex 3.674127e+001 -1.200000e+001 3.391281e+001
         vertex -1.387779e-014 -1.200000e+001 6.000000e+000
      endloop
   endfacet
   facet normal 0.000000e+000 -1.000000e+000 0.000000e+000
      outer loop
         vertex -1.387779e-014 -1.200000e+001 6.000000e+000
         vertex 3.674127e+001 -1.200000e+001 3.391281e+001
         vertex 3.301531e+001 -1.200000e+001 3.754982e+001
      endloop
   endfacet
   facet normal 0.000000e+000 -1.000000e+000 0.000000e+000
      outer loop
         vertex -1.387779e-014 -1.200000e+001 6.000000e+000
         vertex 3.301531e+001 -1.200000e+001 3.754982e+001
         vertex 2.893132e+001 -1.200000e+001 4.077963e+001
      endloop
   endfacet
   facet normal 0.000000e+000 -1.000000e+000 0.000000e+000
      outer loop
         vertex 2.453360e+001 -1.200000e+001 4.356722e+001
         vertex 1.986982e+001 -1.200000e+001 4.588235e+001
         vertex -1.387779e-014 -1.200000e+001 6.000000e+000
      endloop
   endfacet
   facet normal 0.000000e+000 -1.000000e+000 0.000000e+000
      outer loop
         vertex -1.387779e-014 -1.200000e+001 6.000000e+000
         vertex 1.986982e+001 -1.200000e+001 4.588235e+001
         vertex 1.499057e+001 -1.200000e+001 4.769992e+001
      endloop
   endfacet
   facet normal 0.000000e+000 -1.000000e+000 0.000000e+000
      outer loop
         vertex -1.387779e-014 -1.200000e+001 6.000000e+000
         vertex 1.499057e+001 -1.200000e+001 4.769992e+001
         vertex 9.948765e+000 -1.200000e+001 4.900023e+001
      endloop
   endfacet
   facet normal 9.880110e-001 0.000000e+000 1.543836e-001
      outer loop
         vertex 4.963869e+001 -1.200000e+001 6.000000e+000
         vertex 4.963869e+001 0.000000e+000 6.000000e+000
         vertex 4.874558e+001 0.000000e+000 1.112962e+001
      endloop
   endfacet
   facet normal 9.820497e-001 0.000000e+000 1.886223e-001
      outer loop
         vertex 4.963869e+001 -1.200000e+001 6.000000e+000
         vertex 4.874558e+001 0.000000e+000 1.112962e+001
         vertex 4.874558e+001 -1.200000e+001 1.112962e+001
      endloop
   endfacet
   facet normal 9.665988e-001 0.000000e+000 2.562942e-001
      outer loop
         vertex 4.874558e+001 -1.200000e+001 1.112962e+001
         vertex 4.874558e+001 0.000000e+000 1.112962e+001
         vertex 4.732386e+001 0.000000e+000 1.613854e+001
      endloop
   endfacet
   facet normal 9.571092e-001 0.000000e+000 2.897273e-001
      outer loop
         vertex 4.874558e+001 -1.200000e+001 1.112962e+001
         vertex 4.732386e+001 0.000000e+000 1.613854e+001
         vertex 4.732386e+001 -1.200000e+001 1.613854e+001
      endloop
   endfacet
   facet normal 9.347046e-001 0.000000e+000 3.554254e-001
      outer loop
         vertex 4.732386e+001 -1.200000e+001 1.613854e+001
         vertex 4.732386e+001 0.000000e+000 1.613854e+001
         vertex 4.538894e+001 0.000000e+000 2.097246e+001
      endloop
   endfacet
   facet normal 9.217896e-001 0.000000e+000 3.876905e-001
      outer loop
         vertex 4.732386e+001 -1.200000e+001 1.613854e+001
         vertex 4.538894e+001 0.000000e+000 2.097246e+001
         vertex 4.538894e+001 -1.200000e+001 2.097246e+001
      endloop
   endfacet
   facet normal 8.926742e-001 0.000000e+000 4.507025e-001
      outer loop
         vertex 4.538894e+001 -1.200000e+001 2.097246e+001
         vertex 4.538894e+001 0.000000e+000 2.097246e+001
         vertex 4.296182e+001 0.000000e+000 2.557894e+001
      endloop
   endfacet
   facet normal 8.764739e-001 0.000000e+000 4.814494e-001
      outer loop
         vertex 4.538894e+001 -1.200000e+001 2.097246e+001
         vertex 4.296182e+001 0.000000e+000 2.557894e+001
         vertex 4.296182e+001 -1.200000e+001 2.557894e+001
      endloop
   endfacet
   facet normal 8.409635e-001 0.000000e+000 5.410919e-001
      outer loop
         vertex 4.296182e+001 -1.200000e+001 2.557894e+001
         vertex 4.296182e+001 0.000000e+000 2.557894e+001
         vertex 4.006880e+001 0.000000e+000 2.990804e+001
      endloop
   endfacet
   facet normal 8.216534e-001 0.000000e+000 5.699874e-001
      outer loop
         vertex 4.296182e+001 -1.200000e+001 2.557894e+001
         vertex 4.006880e+001 0.000000e+000 2.990804e+001
         vertex 4.006880e+001 -1.200000e+001 2.990804e+001
      endloop
   endfacet
   facet normal 7.801331e-001 0.000000e+000 6.256136e-001
      outer loop
         vertex 4.006880e+001 -1.200000e+001 2.990804e+001
         vertex 4.006880e+001 0.000000e+000 2.990804e+001
         vertex 3.674127e+001 0.000000e+000 3.391281e+001
      endloop
   endfacet
   facet normal 7.579228e-001 0.000000e+000 6.523443e-001
      outer loop
         vertex 4.006880e+001 -1.200000e+001 2.990804e+001
         vertex 3.674127e+001 0.000000e+000 3.391281e+001
         vertex 3.674127e+001 -1.200000e+001 3.391281e+001
      endloop
   endfacet
   facet normal 7.108427e-001 0.000000e+000 7.033510e-001
      outer loop
         vertex 3.674127e+001 -1.200000e+001 3.391281e+001
         vertex 3.674127e+001 0.000000e+000 3.391281e+001
         vertex 3.301531e+001 0.000000e+000 3.754982e+001
      endloop
   endfacet
   facet normal 6.859730e-001 0.000000e+000 7.276270e-001
      outer loop
         vertex 3.674127e+001 -1.200000e+001 3.391281e+001
         vertex 3.301531e+001 0.000000e+000 3.754982e+001
         vertex 3.301531e+001 -1.200000e+001 3.754982e+001
      endloop
   endfacet
   facet normal 6.338438e-001 0.000000e+000 7.734610e-001
      outer loop
         vertex 3.301531e+001 -1.200000e+001 3.754982e+001
         vertex 3.301531e+001 0.000000e+000 3.754982e+001
         vertex 2.893132e+001 0.000000e+000 4.077963e+001
      endloop
   endfacet
   facet normal 6.065844e-001 0.000000e+000 7.950191e-001
      outer loop
         vertex 3.301531e+001 -1.200000e+001 3.754982e+001
         vertex 2.893132e+001 0.000000e+000 4.077963e+001
         vertex 2.893132e+001 -1.200000e+001 4.077963e+001
      endloop
   endfacet
   facet normal 5.499714e-001 0.000000e+000 8.351835e-001
      outer loop
         vertex 2.893132e+001 -1.200000e+001 4.077963e+001
         vertex 2.893132e+001 0.000000e+000 4.077963e+001
         vertex 2.453360e+001 0.000000e+000 4.356722e+001
      endloop
   endfacet
   facet normal 5.206178e-001 0.000000e+000 8.537899e-001
      outer loop
         vertex 2.893132e+001 -1.200000e+001 4.077963e+001
         vertex 2.453360e+001 0.000000e+000 4.356722e+001
         vertex 2.453360e+001 -1.200000e+001 4.356722e+001
      endloop
   endfacet
   facet normal 4.601348e-001 0.000000e+000 8.878490e-001
      outer loop
         vertex 2.453360e+001 -1.200000e+001 4.356722e+001
         vertex 2.453360e+001 0.000000e+000 4.356722e+001
         vertex 1.986982e+001 0.000000e+000 4.588235e+001
      endloop
   endfacet
   facet normal 4.290055e-001 0.000000e+000 9.033019e-001
      outer loop
         vertex 2.453360e+001 -1.200000e+001 4.356722e+001
         vertex 1.986982e+001 0.000000e+000 4.588235e+001
         vertex 1.986982e+001 -1.200000e+001 4.588235e+001
      endloop
   endfacet
   facet normal 3.653086e-001 0.000000e+000 9.308865e-001
      outer loop
         vertex 1.986982e+001 -1.200000e+001 4.588235e+001
         vertex 1.986982e+001 0.000000e+000 4.588235e+001
         vertex 1.499057e+001 0.000000e+000 4.769992e+001
      endloop
   endfacet
   facet normal 3.327410e-001 0.000000e+000 9.430183e-001
      outer loop
         vertex 1.986982e+001 -1.200000e+001 4.588235e+001
         vertex 1.499057e+001 0.000000e+000 4.769992e+001
         vertex 1.499057e+001 -1.200000e+001 4.769992e+001
      endloop
   endfacet
   facet normal 2.665208e-001 0.000000e+000 9.638292e-001
      outer loop
         vertex 1.499057e+001 -1.200000e+001 4.769992e+001
         vertex 1.499057e+001 0.000000e+000 4.769992e+001
         vertex 9.948765e+000 0.000000e+000 4.900023e+001
      endloop
   endfacet
   facet normal 2.328681e-001 0.000000e+000 9.725083e-001
      outer loop
         vertex 1.499057e+001 -1.200000e+001 4.769992e+001
         vertex 9.948765e+000 0.000000e+000 4.900023e+001
         vertex 9.948765e+000 -1.200000e+001 4.900023e+001
      endloop
   endfacet
   facet normal 1.648427e-001 0.000000e+000 9.863198e-001
      outer loop
         vertex 9.948765e+000 -1.200000e+001 4.900023e+001
         vertex 9.948765e+000 0.000000e+000 4.900023e+001
         vertex 4.799068e+000 0.000000e+000 4.976916e+001
      endloop
   endfacet
   facet normal 1.304700e-001 0.000000e+000 9.914523e-001
      outer loop
         vertex 9.948765e+000 -1.200000e+001 4.900023e+001
         vertex 4.799068e+000 0.000000e+000 4.976916e+001
         vertex 4.799068e+000 -1.200000e+001 4.976916e+001
      endloop
   endfacet
   facet normal 6.137709e-002 0.000000e+000 9.981146e-001
      outer loop
         vertex 4.799068e+000 -1.200000e+001 4.976916e+001
         vertex 4.799068e+000 0.000000e+000 4.976916e+001
         vertex -4.026713e-001 0.000000e+000 4.999838e+001
      endloop
   endfacet
   facet normal 2.665697e-002 0.000000e+000 9.996446e-001
      outer loop
         vertex 4.799068e+000 -1.200000e+001 4.976916e+001
         vertex -4.026713e-001 0.000000e+000 4.999838e+001
         vertex -4.026713e-001 -1.200000e+001 4.999838e+001
      endloop
   endfacet
   facet normal -4.275412e-002 0.000000e+000 9.990857e-001
      outer loop
         vertex -4.026713e-001 -1.200000e+001 4.999838e+001
         vertex -4.026713e-001 0.000000e+000 4.999838e+001
         vertex -5.600044e+000 0.000000e+000 4.968540e+001
      endloop
   endfacet
   facet normal -7.744510e-002 0.000000e+000 9.969966e-001
      outer loop
         vertex -4.026713e-001 -1.200000e+001 4.999838e+001
         vertex -5.600044e+000 0.000000e+000 4.968540e+001
         vertex -5.600044e+000 -1.200000e+001 4.968540e+001
      endloop
   endfacet
   facet normal -1.464217e-001 0.000000e+000 9.892223e-001
      outer loop
         vertex -5.600044e+000 -1.200000e+001 4.968540e+001
         vertex -5.600044e+000 0.000000e+000 4.968540e+001
         vertex -1.073669e+001 0.000000e+000 4.883363e+001
      endloop
   endfacet
   facet normal -1.807073e-001 0.000000e+000 9.835369e-001
      outer loop
         vertex -5.600044e+000 -1.200000e+001 4.968540e+001
         vertex -1.073669e+001 0.000000e+000 4.883363e+001
         vertex -1.073669e+001 -1.200000e+001 4.883363e+001
      endloop
   endfacet
   facet normal -2.485014e-001 0.000000e+000 9.686316e-001
      outer loop
         vertex -1.073669e+001 -1.200000e+001 4.883363e+001
         vertex -1.073669e+001 0.000000e+000 4.883363e+001
         vertex -1.575690e+001 0.000000e+000 4.745229e+001
      endloop
   endfacet
   facet normal -2.820099e-001 0.000000e+000 9.594115e-001
      outer loop
         vertex -1.073669e+001 -1.200000e+001 4.883363e+001
         vertex -1.575690e+001 0.000000e+000 4.745229e+001
         vertex -1.575690e+001 -1.200000e+001 4.745229e+001
      endloop
   endfacet
   facet normal -3.478864e-001 0.000000e+000 9.375367e-001
      outer loop
         vertex -1.575690e+001 -1.200000e+001 4.745229e+001
         vertex -1.575690e+001 0.000000e+000 4.745229e+001
         vertex -2.060624e+001 0.000000e+000 4.555637e+001
      endloop
   endfacet
   facet normal -3.802544e-001 0.000000e+000 9.248819e-001
      outer loop
         vertex -1.575690e+001 -1.200000e+001 4.745229e+001
         vertex -2.060624e+001 0.000000e+000 4.555637e+001
         vertex -2.060624e+001 -1.200000e+001 4.555637e+001
      endloop
   endfacet
   facet normal -4.434988e-001 0.000000e+000 8.962750e-001
      outer loop
         vertex -2.060624e+001 -1.200000e+001 4.555637e+001
         vertex -2.060624e+001 0.000000e+000 4.555637e+001
         vertex -2.523212e+001 0.000000e+000 4.316642e+001
      endloop
   endfacet
   facet normal -4.743752e-001 0.000000e+000 8.803228e-001
      outer loop
         vertex -2.060624e+001 -1.200000e+001 4.555637e+001
         vertex -2.523212e+001 0.000000e+000 4.316642e+001
         vertex -2.523212e+001 -1.200000e+001 4.316642e+001
      endloop
   endfacet
   facet normal -5.343017e-001 0.000000e+000 8.452939e-001
      outer loop
         vertex -2.523212e+001 -1.200000e+001 4.316642e+001
         vertex -2.523212e+001 0.000000e+000 4.316642e+001
         vertex -2.958438e+001 0.000000e+000 4.030837e+001
      endloop
   endfacet
   facet normal -5.633518e-001 0.000000e+000 8.262171e-001
      outer loop
         vertex -2.523212e+001 -1.200000e+001 4.316642e+001
         vertex -2.958438e+001 0.000000e+000 4.030837e+001
         vertex -2.958438e+001 -1.200000e+001 4.030837e+001
      endloop
   endfacet
   facet normal -6.193106e-001 0.000000e+000 7.851461e-001
      outer loop
         vertex -2.958438e+001 -1.200000e+001 4.030837e+001
         vertex -2.958438e+001 0.000000e+000 4.030837e+001
         vertex -3.361582e+001 0.000000e+000 3.701320e+001
      endloop
   endfacet
   facet normal -6.462192e-001 0.000000e+000 7.631518e-001
      outer loop
         vertex -2.958438e+001 -1.200000e+001 4.030837e+001
         vertex -3.361582e+001 0.000000e+000 3.701320e+001
         vertex -3.361582e+001 -1.200000e+001 3.701320e+001
      endloop
   endfacet
   facet normal -6.976034e-001 0.000000e+000 7.164841e-001
      outer loop
         vertex -3.361582e+001 -1.200000e+001 3.701320e+001
         vertex -3.361582e+001 0.000000e+000 3.701320e+001
         vertex -3.728272e+001 0.000000e+000 3.331665e+001
      endloop
   endfacet
   facet normal -7.220789e-001 0.000000e+000 6.918107e-001
      outer loop
         vertex -3.361582e+001 -1.200000e+001 3.701320e+001
         vertex -3.728272e+001 0.000000e+000 3.331665e+001
         vertex -3.728272e+001 -1.200000e+001 3.331665e+001
      endloop
   endfacet
   facet normal -7.683313e-001 0.000000e+000 6.400523e-001
      outer loop
         vertex -3.728272e+001 -1.200000e+001 3.331665e+001
         vertex -3.728272e+001 0.000000e+000 3.331665e+001
         vertex -4.054531e+001 0.000000e+000 2.925880e+001
      endloop
   endfacet
   facet normal -7.901083e-001 0.000000e+000 6.129673e-001
      outer loop
         vertex -3.728272e+001 -1.200000e+001 3.331665e+001
         vertex -4.054531e+001 0.000000e+000 2.925880e+001
         vertex -4.054531e+001 -1.200000e+001 2.925880e+001
      endloop
   endfacet
   facet normal -8.307272e-001 0.000000e+000 5.566796e-001
      outer loop
         vertex -4.054531e+001 -1.200000e+001 2.925880e+001
         vertex -4.054531e+001 0.000000e+000 2.925880e+001
         vertex -4.336823e+001 0.000000e+000 2.488367e+001
      endloop
   endfacet
   facet normal -8.495694e-001 0.000000e+000 5.274769e-001
      outer loop
         vertex -4.054531e+001 -1.200000e+001 2.925880e+001
         vertex -4.336823e+001 0.000000e+000 2.488367e+001
         vertex -4.336823e+001 -1.200000e+001 2.488367e+001
      endloop
   endfacet
   facet normal -8.841146e-001 0.000000e+000 4.672702e-001
      outer loop
         vertex -4.336823e+001 -1.200000e+001 2.488367e+001
         vertex -4.336823e+001 0.000000e+000 2.488367e+001
         vertex -4.572084e+001 0.000000e+000 2.023869e+001
      endloop
   endfacet
   facet normal -8.998176e-001 0.000000e+000 4.362663e-001
      outer loop
         vertex -4.336823e+001 -1.200000e+001 2.488367e+001
         vertex -4.572084e+001 0.000000e+000 2.023869e+001
         vertex -4.572084e+001 -1.200000e+001 2.023869e+001
      endloop
   endfacet
   facet normal -9.279143e-001 0.000000e+000 3.727936e-001
      outer loop
         vertex -4.572084e+001 -1.200000e+001 2.023869e+001
         vertex -4.572084e+001 0.000000e+000 2.023869e+001
         vertex -4.757765e+001 0.000000e+000 1.537424e+001
      endloop
   endfacet
   facet normal -9.403080e-001 0.000000e+000 3.403247e-001
      outer loop
         vertex -4.572084e+001 -1.200000e+001 2.023869e+001
         vertex -4.757765e+001 0.000000e+000 1.537424e+001
         vertex -4.757765e+001 -1.200000e+001 1.537424e+001
      endloop
   endfacet
   facet normal -9.616515e-001 0.000000e+000 2.742742e-001
      outer loop
         vertex -4.757765e+001 -1.200000e+001 1.537424e+001
         vertex -4.757765e+001 0.000000e+000 1.537424e+001
         vertex -4.891851e+001 0.000000e+000 1.034306e+001
      endloop
   endfacet
   facet normal -9.706014e-001 0.000000e+000 2.406926e-001
      outer loop
         vertex -4.757765e+001 -1.200000e+001 1.537424e+001
         vertex -4.891851e+001 0.000000e+000 1.034306e+001
         vertex -4.891851e+001 -1.200000e+001 1.034306e+001
      endloop
   endfacet
   facet normal -9.849603e-001 0.000000e+000 1.727806e-001
      outer loop
         vertex -4.891851e+001 -1.200000e+001 1.034306e+001
         vertex -4.891851e+001 0.000000e+000 1.034306e+001
         vertex -4.972889e+001 0.000000e+000 5.199724e+000
      endloop
   endfacet
   facet normal -9.903694e-001 0.000000e+000 1.384503e-001
      outer loop
         vertex -4.891851e+001 -1.200000e+001 1.034306e+001
         vertex -4.972889e+001 0.000000e+000 5.199724e+000
         vertex -4.972889e+001 -1.200000e+001 5.199724e+000
      endloop
   endfacet
   facet normal -9.975880e-001 0.000000e+000 6.941334e-002
      outer loop
         vertex -4.972889e+001 -1.200000e+001 5.199724e+000
         vertex -4.972889e+001 0.000000e+000 5.199724e+000
         vertex -5.000000e+001 0.000000e+000 -5.359377e-014
      endloop
   endfacet
   facet normal -9.993976e-001 0.000000e+000 3.470667e-002
      outer loop
         vertex -4.972889e+001 -1.200000e+001 5.199724e+000
         vertex -5.000000e+001 0.000000e+000 -5.359377e-014
         vertex -5.000000e+001 -1.200000e+001 -5.359377e-014
      endloop
   endfacet
   facet normal -9.993976e-001 0.000000e+000 -3.470667e-002
      outer loop
         vertex -5.000000e+001 -1.200000e+001 -5.359377e-014
         vertex -5.000000e+001 0.000000e+000 -5.359377e-014
         vertex -4.972889e+001 0.000000e+000 -5.199724e+000
      endloop
   endfacet
   facet normal -9.975880e-001 0.000000e+000 -6.941334e-002
      outer loop
         vertex -5.000000e+001 -1.200000e+001 -5.359377e-014
         vertex -4.972889e+001 0.000000e+000 -5.199724e+000
         vertex -4.972889e+001 -1.200000e+001 -5.199724e+000
      endloop
   endfacet
   facet normal -9.903694e-001 0.000000e+000 -1.384503e-001
      outer loop
         vertex -4.972889e+001 -1.200000e+001 -5.199724e+000
         vertex -4.972889e+001 0.000000e+000 -5.199724e+000
         vertex -4.891851e+001 0.000000e+000 -1.034306e+001
      endloop
   endfacet
   facet normal -9.849603e-001 0.000000e+000 -1.727806e-001
      outer loop
         vertex -4.972889e+001 -1.200000e+001 -5.199724e+000
         vertex -4.891851e+001 0.000000e+000 -1.034306e+001
         vertex -4.891851e+001 -1.200000e+001 -1.034306e+001
      endloop
   endfacet
   facet normal -9.706014e-001 0.000000e+000 -2.406926e-001
      outer loop
         vertex -4.891851e+001 -1.200000e+001 -1.034306e+001
         vertex -4.891851e+001 0.000000e+000 -1.034306e+001
         vertex -4.757765e+001 0.000000e+000 -1.537424e+001
      endloop
   endfacet
   facet normal -9.616515e-001 0.000000e+000 -2.742742e-001
      outer loop
         vertex -4.891851e+001 -1.200000e+001 -1.034306e+001
         vertex -4.757765e+001 0.000000e+000 -1.537424e+001
         vertex -4.757765e+001 -1.200000e+001 -1.537424e+001
      endloop
   endfacet
   facet normal -9.403080e-001 0.000000e+000 -3.403247e-001
      outer loop
         vertex -4.757765e+001 -1.200000e+001 -1.537424e+001
         vertex -4.757765e+001 0.000000e+000 -1.537424e+001
         vertex -4.572084e+001 0.000000e+000 -2.023869e+001
      endloop
   endfacet
   facet normal -9.279143e-001 0.000000e+000 -3.727936e-001
      outer loop
         vertex -4.757765e+001 -1.200000e+001 -1.537424e+001
         vertex -4.572084e+001 0.000000e+000 -2.023869e+001
         vertex -4.572084e+001 -1.200000e+001 -2.023869e+001
      endloop
   endfacet
   facet normal -8.998176e-001 0.000000e+000 -4.362663e-001
      outer loop
         vertex -4.572084e+001 -1.200000e+001 -2.023869e+001
         vertex -4.572084e+001 0.000000e+000 -2.023869e+001
         vertex -4.336823e+001 0.000000e+000 -2.488367e+001
      endloop
   endfacet
   facet normal -8.841146e-001 0.000000e+000 -4.672702e-001
      outer loop
         vertex -4.572084e+001 -1.200000e+001 -2.023869e+001
         vertex -4.336823e+001 0.000000e+000 -2.488367e+001
         vertex -4.336823e+001 -1.200000e+001 -2.488367e+001
      endloop
   endfacet
   facet normal -8.495694e-001 0.000000e+000 -5.274769e-001
      outer loop
         vertex -4.336823e+001 -1.200000e+001 -2.488367e+001
         vertex -4.336823e+001 0.000000e+000 -2.488367e+001
         vertex -4.054531e+001 0.000000e+000 -2.925880e+001
      endloop
   endfacet
   facet normal -8.307272e-001 0.000000e+000 -5.566796e-001
      outer loop
         vertex -4.336823e+001 -1.200000e+001 -2.488367e+001
         vertex -4.054531e+001 0.000000e+000 -2.925880e+001
         vertex -4.054531e+001 -1.200000e+001 -2.925880e+001
      endloop
   endfacet
   facet normal -7.901083e-001 0.000000e+000 -6.129673e-001
      outer loop
         vertex -4.054531e+001 -1.200000e+001 -2.925880e+001
         vertex -4.054531e+001 0.000000e+000 -2.925880e+001
         vertex -3.728272e+001 0.000000e+000 -3.331665e+001
      endloop
   endfacet
   facet normal -7.683313e-001 0.000000e+000 -6.400523e-001
      outer loop
         vertex -4.054531e+001 -1.200000e+001 -2.925880e+001
         vertex -3.728272e+001 0.000000e+000 -3.331665e+001
         vertex -3.728272e+001 -1.200000e+001 -3.331665e+001
      endloop
   endfacet
   facet normal -7.220789e-001 0.000000e+000 -6.918107e-001
      outer loop
         vertex -3.728272e+001 -1.200000e+001 -3.331665e+001
         vertex -3.728272e+001 0.000000e+000 -3.331665e+001
         vertex -3.361582e+001 0.000000e+000 -3.701320e+001
      endloop
   endfacet
   facet normal -6.976034e-001 0.000000e+000 -7.164841e-001
      outer loop
         vertex -3.728272e+001 -1.200000e+001 -3.331665e+001
         vertex -3.361582e+001 0.000000e+000 -3.701320e+001
         vertex -3.361582e+001 -1.200000e+001 -3.701320e+001
      endloop
   endfacet
   facet normal -6.462192e-001 0.000000e+000 -7.631518e-001
      outer loop
         vertex -3.361582e+001 -1.200000e+001 -3.701320e+001
         vertex -3.361582e+001 0.000000e+000 -3.701320e+001
         vertex -2.958438e+001 0.000000e+000 -4.030837e+001
      endloop
   endfacet
   facet normal -6.193106e-001 0.000000e+000 -7.851461e-001
      outer loop
         vertex -3.361582e+001 -1.200000e+001 -3.701320e+001
         vertex -2.958438e+001 0.000000e+000 -4.030837e+001
         vertex -2.958438e+001 -1.200000e+001 -4.030837e+001
      endloop
   endfacet
   facet normal -5.633518e-001 0.000000e+000 -8.262172e-001
      outer loop
         vertex -2.958438e+001 -1.200000e+001 -4.030837e+001
         vertex -2.958438e+001 0.000000e+000 -4.030837e+001
         vertex -2.523212e+001 0.000000e+000 -4.316642e+001
      endloop
   endfacet
   facet normal -5.343017e-001 0.000000e+000 -8.452939e-001
      outer loop
         vertex -2.958438e+001 -1.200000e+001 -4.030837e+001
         vertex -2.523212e+001 0.000000e+000 -4.316642e+001
         vertex -2.523212e+001 -1.200000e+001 -4.316642e+001
      endloop
   endfacet
   facet normal -4.743752e-001 0.000000e+000 -8.803228e-001
      outer loop
         vertex -2.523212e+001 -1.200000e+001 -4.316642e+001
         vertex -2.523212e+001 0.000000e+000 -4.316642e+001
         vertex -2.060624e+001 0.000000e+000 -4.555637e+001
      endloop
   endfacet
   facet normal -4.434988e-001 0.000000e+000 -8.962750e-001
      outer loop
         vertex -2.523212e+001 -1.200000e+001 -4.316642e+001
         vertex -2.060624e+001 0.000000e+000 -4.555637e+001
         vertex -2.060624e+001 -1.200000e+001 -4.555637e+001
      endloop
   endfacet
   facet normal -3.802544e-001 0.000000e+000 -9.248819e-001
      outer loop
         vertex -2.060624e+001 -1.200000e+001 -4.555637e+001
         vertex -2.060624e+001 0.000000e+000 -4.555637e+001
         vertex -1.575690e+001 0.000000e+000 -4.745229e+001
      endloop
   endfacet
   facet normal -3.478864e-001 0.000000e+000 -9.375367e-001
      outer loop
         vertex -2.060624e+001 -1.200000e+001 -4.555637e+001
         vertex -1.575690e+001 0.000000e+000 -4.745229e+001
         vertex -1.575690e+001 -1.200000e+001 -4.745229e+001
      endloop
   endfacet
   facet normal -2.820099e-001 0.000000e+000 -9.594115e-001
      outer loop
         vertex -1.575690e+001 -1.200000e+001 -4.745229e+001
         vertex -1.575690e+001 0.000000e+000 -4.745229e+001
         vertex -1.073669e+001 0.000000e+000 -4.883363e+001
      endloop
   endfacet
   facet normal -2.485014e-001 0.000000e+000 -9.686316e-001
      outer loop
         vertex -1.575690e+001 -1.200000e+001 -4.745229e+001
         vertex -1.073669e+001 0.000000e+000 -4.883363e+001
         vertex -1.073669e+001 -1.200000e+001 -4.883363e+001
      endloop
   endfacet
   facet normal -1.807073e-001 0.000000e+000 -9.835369e-001
      outer loop
         vertex -1.073669e+001 -1.200000e+001 -4.883363e+001
         vertex -1.073669e+001 0.000000e+000 -4.883363e+001
         vertex -5.600044e+000 0.000000e+000 -4.968540e+001
      endloop
   endfacet
   facet normal -1.464217e-001 0.000000e+000 -9.892223e-001
      outer loop
         vertex -1.073669e+001 -1.200000e+001 -4.883363e+001
         vertex -5.600044e+000 0.000000e+000 -4.968540e+001
         vertex -5.600044e+000 -1.200000e+001 -4.968540e+001
      endloop
   endfacet
   facet normal -7.744510e-002 0.000000e+000 -9.969966e-001
      outer loop
         vertex -5.600044e+000 -1.200000e+001 -4.968540e+001
         vertex -5.600044e+000 0.000000e+000 -4.968540e+001
         vertex -4.026713e-001 0.000000e+000 -4.999838e+001
      endloop
   endfacet
   facet normal -4.275412e-002 0.000000e+000 -9.990857e-001
      outer loop
         vertex -5.600044e+000 -1.200000e+001 -4.968540e+001
         vertex -4.026713e-001 0.000000e+000 -4.999838e+001
         vertex -4.026713e-001 -1.200000e+001 -4.999838e+001
      endloop
   endfacet
   facet normal 2.665697e-002 0.000000e+000 -9.996446e-001
      outer loop
         vertex -4.026713e-001 -1.200000e+001 -4.999838e+001
         vertex -4.026713e-001 0.000000e+000 -4.999838e+001
         vertex 4.799068e+000 0.000000e+000 -4.976916e+001
      endloop
   endfacet
   facet normal 6.137709e-002 0.000000e+000 -9.981146e-001
      outer loop
         vertex -4.026713e-001 -1.200000e+001 -4.999838e+001
         vertex 4.799068e+000 0.000000e+000 -4.976916e+001
         vertex 4.799068e+000 -1.200000e+001 -4.976916e+001
      endloop
   endfacet
   facet normal 1.304700e-001 0.000000e+000 -9.914523e-001
      outer loop
         vertex 4.799068e+000 -1.200000e+001 -4.976916e+001
         vertex 4.799068e+000 0.000000e+000 -4.976916e+001
         vertex 9.948765e+000 0.000000e+000 -4.900023e+001
      endloop
   endfacet
   facet normal 1.648427e-001 0.000000e+000 -9.863198e-001
      outer loop
         vertex 4.799068e+000 -1.200000e+001 -4.976916e+001
         vertex 9.948765e+000 0.000000e+000 -4.900023e+001
         vertex 9.948765e+000 -1.200000e+001 -4.900023e+001
      endloop
   endfacet
   facet normal 2.328681e-001 0.000000e+000 -9.725083e-001
      outer loop
         vertex 9.948765e+000 -1.200000e+001 -4.900023e+001
         vertex 9.948765e+000 0.000000e+000 -4.900023e+001
         vertex 1.499057e+001 0.000000e+000 -4.769992e+001
      endloop
   endfacet
   facet normal 2.665208e-001 0.000000e+000 -9.638292e-001
      outer loop
         vertex 9.948765e+000 -1.200000e+001 -4.900023e+001
         vertex 1.499057e+001 0.000000e+000 -4.769992e+001
         vertex 1.499057e+001 -1.200000e+001 -4.769992e+001
      endloop
   endfacet
   facet normal 3.327410e-001 0.000000e+000 -9.430183e-001
      outer loop
         vertex 1.499057e+001 -1.200000e+001 -4.769992e+001
         vertex 1.499057e+001 0.000000e+000 -4.769992e+001
         vertex 1.986982e+001 0.000000e+000 -4.588235e+001
      endloop
   endfacet
   facet normal 3.653086e-001 0.000000e+000 -9.308865e-001
      outer loop
         vertex 1.499057e+001 -1.200000e+001 -4.769992e+001
         vertex 1.986982e+001 0.000000e+000 -4.588235e+001
         vertex 1.986982e+001 -1.200000e+001 -4.588235e+001
      endloop
   endfacet
   facet normal 4.290055e-001 0.000000e+000 -9.033019e-001
      outer loop
         vertex 1.986982e+001 -1.200000e+001 -4.588235e+001
         vertex 1.986982e+001 0.000000e+000 -4.588235e+001
         vertex 2.453360e+001 0.000000e+000 -4.356722e+001
      endloop
   endfacet
   facet normal 4.601349e-001 0.000000e+000 -8.878490e-001
      outer loop
         vertex 1.986982e+001 -1.200000e+001 -4.588235e+001
         vertex 2.453360e+001 0.000000e+000 -4.356722e+001
         vertex 2.453360e+001 -1.200000e+001 -4.356722e+001
      endloop
   endfacet
   facet normal 5.206178e-001 0.000000e+000 -8.537899e-001
      outer loop
         vertex 2.453360e+001 -1.200000e+001 -4.356722e+001
         vertex 2.453360e+001 0.000000e+000 -4.356722e+001
         vertex 2.893132e+001 0.000000e+000 -4.077963e+001
      endloop
   endfacet
   facet normal 5.499714e-001 0.000000e+000 -8.351835e-001
      outer loop
         vertex 2.453360e+001 -1.200000e+001 -4.356722e+001
         vertex 2.893132e+001 0.000000e+000 -4.077963e+001
         vertex 2.893132e+001 -1.200000e+001 -4.077963e+001
      endloop
   endfacet
   facet normal 6.065844e-001 0.000000e+000 -7.950191e-001
      outer loop
         vertex 2.893132e+001 -1.200000e+001 -4.077963e+001
         vertex 2.893132e+001 0.000000e+000 -4.077963e+001
         vertex 3.301531e+001 0.000000e+000 -3.754982e+001
      endloop
   endfacet
   facet normal 6.338438e-001 0.000000e+000 -7.734610e-001
      outer loop
         vertex 2.893132e+001 -1.200000e+001 -4.077963e+001
         vertex 3.301531e+001 0.000000e+000 -3.754982e+001
         vertex 3.301531e+001 -1.200000e+001 -3.754982e+001
      endloop
   endfacet
   facet normal 6.859730e-001 0.000000e+000 -7.276270e-001
      outer loop
         vertex 3.301531e+001 -1.200000e+001 -3.754982e+001
         vertex 3.301531e+001 0.000000e+000 -3.754982e+001
         vertex 3.674127e+001 0.000000e+000 -3.391281e+001
      endloop
   endfacet
   facet normal 7.108427e-001 0.000000e+000 -7.033510e-001
      outer loop
         vertex 3.301531e+001 -1.200000e+001 -3.754982e+001
         vertex 3.674127e+001 0.000000e+000 -3.391281e+001
         vertex 3.674127e+001 -1.200000e+001 -3.391281e+001
      endloop
   endfacet
   facet normal 7.579228e-001 0.000000e+000 -6.523443e-001
      outer loop
         vertex 3.674127e+001 -1.200000e+001 -3.391281e+001
         vertex 3.674127e+001 0.000000e+000 -3.391281e+001
         vertex 4.006880e+001 0.000000e+000 -2.990804e+001
      endloop
   endfacet
   facet normal 7.801331e-001 0.000000e+000 -6.256136e-001
      outer loop
         vertex 3.674127e+001 -1.200000e+001 -3.391281e+001
         vertex 4.006880e+001 0.000000e+000 -2.990804e+001
         vertex 4.006880e+001 -1.200000e+001 -2.990804e+001
      endloop
   endfacet
   facet normal 8.216534e-001 0.000000e+000 -5.699874e-001
      outer loop
         vertex 4.006880e+001 -1.200000e+001 -2.990804e+001
         vertex 4.006880e+001 0.000000e+000 -2.990804e+001
         vertex 4.296182e+001 0.000000e+000 -2.557894e+001
      endloop
   endfacet
   facet normal 8.409635e-001 0.000000e+000 -5.410919e-001
      outer loop
         vertex 4.006880e+001 -1.200000e+001 -2.990804e+001
         vertex 4.296182e+001 0.000000e+000 -2.557894e+001
         vertex 4.296182e+001 -1.200000e+001 -2.557894e+001
      endloop
   endfacet
   facet normal 8.764738e-001 0.000000e+000 -4.814494e-001
      outer loop
         vertex 4.296182e+001 -1.200000e+001 -2.557894e+001
         vertex 4.296182e+001 0.000000e+000 -2.557894e+001
         vertex 4.538894e+001 0.000000e+000 -2.097246e+001
      endloop
   endfacet
   facet normal 8.926742e-001 0.000000e+000 -4.507025e-001
      outer loop
         vertex 4.296182e+001 -1.200000e+001 -2.557894e+001
         vertex 4.538894e+001 0.000000e+000 -2.097246e+001
         vertex 4.538894e+001 -1.200000e+001 -2.097246e+001
      endloop
   endfacet
   facet normal 9.217896e-001 0.000000e+000 -3.876905e-001
      outer loop
         vertex 4.538894e+001 -1.200000e+001 -2.097246e+001
         vertex 4.538894e+001 0.000000e+000 -2.097246e+001
         vertex 4.732386e+001 0.000000e+000 -1.613854e+001
      endloop
   endfacet
   facet normal 9.347046e-001 0.000000e+000 -3.554254e-001
      outer loop
         vertex 4.538894e+001 -1.200000e+001 -2.097246e+001
         vertex 4.732386e+001 0.000000e+000 -1.613854e+001
         vertex 4.732386e+001 -1.200000e+001 -1.613854e+001
      endloop
   endfacet
   facet normal 9.571092e-001 0.000000e+000 -2.897273e-001
      outer loop
         vertex 4.732386e+001 -1.200000e+001 -1.613854e+001
         vertex 4.732386e+001 0.000000e+000 -1.613854e+001
         vertex 4.874558e+001 0.000000e+000 -1.112962e+001
      endloop
   endfacet
   facet normal 9.665988e-001 0.000000e+000 -2.562942e-001
      outer loop
         vertex 4.732386e+001 -1.200000e+001 -1.613854e+001
         vertex 4.874558e+001 0.000000e+000 -1.112962e+001
         vertex 4.874558e+001 -1.200000e+001 -1.112962e+001
      endloop
   endfacet
   facet normal 9.820497e-001 0.000000e+000 -1.886223e-001
      outer loop
         vertex 4.874558e+001 -1.200000e+001 -1.112962e+001
         vertex 4.874558e+001 0.000000e+000 -1.112962e+001
         vertex 4.963869e+001 0.000000e+000 -6.000000e+000
      endloop
   endfacet
   facet normal 9.880109e-001 0.000000e+000 -1.543836e-001
      outer loop
         vertex 4.874558e+001 -1.200000e+001 -1.112962e+001
         vertex 4.963869e+001 0.000000e+000 -6.000000e+000
         vertex 4.963869e+001 -1.200000e+001 -6.000000e+000
      endloop
   endfacet
   facet normal 0.000000e+000 0.000000e+000 -1.000000e+000
      outer loop
         vertex -6.938894e-015 0.000000e+000 6.000000e+000
         vertex 4.963869e+001 0.000000e+000 6.000000e+000
         vertex -2.081668e-014 -1.200000e+001 6.000000e+000
      endloop
   endfacet
   facet normal 0.000000e+000 0.000000e+000 -1.000000e+000
      outer loop
         vertex -2.081668e-014 -1.200000e+001 6.000000e+000
         vertex 4.963869e+001 0.000000e+000 6.000000e+000
         vertex 4.963869e+001 -1.200000e+001 6.000000e+000
      endloop
   endfacet
   facet normal 5.503191e-002 0.000000e+000 -9.984846e-001
      outer loop
         vertex -1.791696e-014 0.000000e+000 6.000000e+000
         vertex -1.791696e-014 -1.200000e+001 6.000000e+000
         vertex -9.875676e-001 -1.200000e+001 5.918168e+000
      endloop
   endfacet
   facet normal 1.100638e-001 0.000000e+000 -9.939246e-001
      outer loop
         vertex -1.791696e-014 0.000000e+000 6.000000e+000
         vertex -9.875676e-001 -1.200000e+001 5.918168e+000
         vertex -9.875676e-001 0.000000e+000 5.918168e+000
      endloop
   endfacet
   facet normal 2.186265e-001 0.000000e+000 -9.758086e-001
      outer loop
         vertex -9.875676e-001 0.000000e+000 5.918168e+000
         vertex -9.875676e-001 -1.200000e+001 5.918168e+000
         vertex -1.948197e+000 -1.200000e+001 5.674903e+000
      endloop
   endfacet
   facet normal 2.721573e-001 0.000000e+000 -9.622528e-001
      outer loop
         vertex -9.875676e-001 0.000000e+000 5.918168e+000
         vertex -1.948197e+000 -1.200000e+001 5.674903e+000
         vertex -1.948197e+000 0.000000e+000 5.674903e+000
      endloop
   endfacet
   facet normal 3.762575e-001 0.000000e+000 -9.265151e-001
      outer loop
         vertex -1.948197e+000 0.000000e+000 5.674903e+000
         vertex -1.948197e+000 -1.200000e+001 5.674903e+000
         vertex -2.855684e+000 -1.200000e+001 5.276843e+000
      endloop
   endfacet
   facet normal 4.268270e-001 0.000000e+000 -9.043333e-001
      outer loop
         vertex -1.948197e+000 0.000000e+000 5.674903e+000
         vertex -2.855684e+000 -1.200000e+001 5.276843e+000
         vertex -2.855684e+000 0.000000e+000 5.276843e+000
      endloop
   endfacet
   facet normal 5.236253e-001 0.000000e+000 -8.519487e-001
      outer loop
         vertex -2.855684e+000 0.000000e+000 5.276843e+000
         vertex -2.855684e+000 -1.200000e+001 5.276843e+000
         vertex -3.685276e+000 -1.200000e+001 4.734843e+000
      endloop
   endfacet
   facet normal 5.698540e-001 0.000000e+000 -8.217459e-001
      outer loop
         vertex -2.855684e+000 0.000000e+000 5.276843e+000
         vertex -3.685276e+000 -1.200000e+001 4.734843e+000
         vertex -3.685276e+000 0.000000e+000 4.734843e+000
      endloop
   endfacet
   facet normal 6.567098e-001 0.000000e+000 -7.541434e-001
      outer loop
         vertex -3.685276e+000 0.000000e+000 4.734843e+000
         vertex -3.685276e+000 -1.200000e+001 4.734843e+000
         vertex -4.414343e+000 -1.200000e+001 4.063690e+000
      endloop
   endfacet
   facet normal 6.973369e-001 0.000000e+000 -7.167435e-001
      outer loop
         vertex -3.685276e+000 0.000000e+000 4.734843e+000
         vertex -4.414343e+000 -1.200000e+001 4.063690e+000
         vertex -4.414343e+000 0.000000e+000 4.063690e+000
      endloop
   endfacet
   facet normal 7.718811e-001 0.000000e+000 -6.357669e-001
      outer loop
         vertex -4.414343e+000 0.000000e+000 4.063690e+000
         vertex -4.414343e+000 -1.200000e+001 4.063690e+000
         vertex -5.022999e+000 -1.200000e+001 3.281689e+000
      endloop
   endfacet
   facet normal 8.057982e-001 0.000000e+000 -5.921901e-001
      outer loop
         vertex -4.414343e+000 0.000000e+000 4.063690e+000
         vertex -5.022999e+000 -1.200000e+001 3.281689e+000
         vertex -5.022999e+000 0.000000e+000 3.281689e+000
      endloop
   endfacet
   facet normal 8.659974e-001 0.000000e+000 -5.000484e-001
      outer loop
         vertex -5.022999e+000 0.000000e+000 3.281689e+000
         vertex -5.022999e+000 -1.200000e+001 3.281689e+000
         vertex -5.494640e+000 -1.200000e+001 2.410172e+000
      endloop
   endfacet
   facet normal 8.922795e-001 0.000000e+000 -4.514834e-001
      outer loop
         vertex -5.022999e+000 0.000000e+000 3.281689e+000
         vertex -5.494640e+000 -1.200000e+001 2.410172e+000
         vertex -5.494640e+000 0.000000e+000 2.410172e+000
      endloop
   endfacet
   facet normal 9.364916e-001 0.000000e+000 -3.506899e-001
      outer loop
         vertex -5.494640e+000 0.000000e+000 2.410172e+000
         vertex -5.494640e+000 -1.200000e+001 2.410172e+000
         vertex -5.816401e+000 -1.200000e+001 1.472913e+000
      endloop
   endfacet
   facet normal 9.544217e-001 0.000000e+000 -2.984614e-001
      outer loop
         vertex -5.494640e+000 0.000000e+000 2.410172e+000
         vertex -5.816401e+000 -1.200000e+001 1.472913e+000
         vertex -5.816401e+000 0.000000e+000 1.472913e+000
      endloop
   endfacet
   facet normal 9.814408e-001 0.000000e+000 -1.917655e-001
      outer loop
         vertex -5.816401e+000 0.000000e+000 1.472913e+000
         vertex -5.816401e+000 -1.200000e+001 1.472913e+000
         vertex -5.979507e+000 -1.200000e+001 4.954761e-001
      endloop
   endfacet
   facet normal 9.905298e-001 0.000000e+000 -1.372982e-001
      outer loop
         vertex -5.816401e+000 0.000000e+000 1.472913e+000
         vertex -5.979507e+000 -1.200000e+001 4.954761e-001
         vertex -5.979507e+000 0.000000e+000 4.954761e-001
      endloop
   endfacet
   facet normal 9.996188e-001 0.000000e+000 -2.761026e-002
      outer loop
         vertex -5.979507e+000 0.000000e+000 4.954761e-001
         vertex -5.979507e+000 -1.200000e+001 4.954761e-001
         vertex -5.979507e+000 -1.200000e+001 -4.954761e-001
      endloop
   endfacet
   facet normal 9.996188e-001 0.000000e+000 2.761026e-002
      outer loop
         vertex -5.979507e+000 0.000000e+000 4.954761e-001
         vertex -5.979507e+000 -1.200000e+001 -4.954761e-001
         vertex -5.979507e+000 0.000000e+000 -4.954761e-001
      endloop
   endfacet
   facet normal 9.905298e-001 0.000000e+000 1.372982e-001
      outer loop
         vertex -5.979507e+000 0.000000e+000 -4.954761e-001
         vertex -5.979507e+000 -1.200000e+001 -4.954761e-001
         vertex -5.816401e+000 -1.200000e+001 -1.472913e+000
      endloop
   endfacet
   facet normal 9.814408e-001 0.000000e+000 1.917655e-001
      outer loop
         vertex -5.979507e+000 0.000000e+000 -4.954761e-001
         vertex -5.816401e+000 -1.200000e+001 -1.472913e+000
         vertex -5.816401e+000 0.000000e+000 -1.472913e+000
      endloop
   endfacet
   facet normal 9.544217e-001 0.000000e+000 2.984614e-001
      outer loop
         vertex -5.816401e+000 0.000000e+000 -1.472913e+000
         vertex -5.816401e+000 -1.200000e+001 -1.472913e+000
         vertex -5.494640e+000 -1.200000e+001 -2.410172e+000
      endloop
   endfacet
   facet normal 9.364916e-001 0.000000e+000 3.506899e-001
      outer loop
         vertex -5.816401e+000 0.000000e+000 -1.472913e+000
         vertex -5.494640e+000 -1.200000e+001 -2.410172e+000
         vertex -5.494640e+000 0.000000e+000 -2.410172e+000
      endloop
   endfacet
   facet normal 8.922795e-001 0.000000e+000 4.514834e-001
      outer loop
         vertex -5.494640e+000 0.000000e+000 -2.410172e+000
         vertex -5.494640e+000 -1.200000e+001 -2.410172e+000
         vertex -5.022999e+000 -1.200000e+001 -3.281689e+000
      endloop
   endfacet
   facet normal 8.659974e-001 0.000000e+000 5.000484e-001
      outer loop
         vertex -5.494640e+000 0.000000e+000 -2.410172e+000
         vertex -5.022999e+000 -1.200000e+001 -3.281689e+000
         vertex -5.022999e+000 0.000000e+000 -3.281689e+000
      endloop
   endfacet
   facet normal 8.057982e-001 0.000000e+000 5.921901e-001
      outer loop
         vertex -5.022999e+000 0.000000e+000 -3.281689e+000
         vertex -5.022999e+000 -1.200000e+001 -3.281689e+000
         vertex -4.414343e+000 -1.200000e+001 -4.063690e+000
      endloop
   endfacet
   facet normal 7.718811e-001 0.000000e+000 6.357669e-001
      outer loop
         vertex -5.022999e+000 0.000000e+000 -3.281689e+000
         vertex -4.414343e+000 -1.200000e+001 -4.063690e+000
         vertex -4.414343e+000 0.000000e+000 -4.063690e+000
      endloop
   endfacet
   facet normal 6.973369e-001 0.000000e+000 7.167435e-001
      outer loop
         vertex -4.414343e+000 0.000000e+000 -4.063690e+000
         vertex -4.414343e+000 -1.200000e+001 -4.063690e+000
         vertex -3.685276e+000 -1.200000e+001 -4.734843e+000
      endloop
   endfacet
   facet normal 6.567098e-001 0.000000e+000 7.541434e-001
      outer loop
         vertex -4.414343e+000 0.000000e+000 -4.063690e+000
         vertex -3.685276e+000 -1.200000e+001 -4.734843e+000
         vertex -3.685276e+000 0.000000e+000 -4.734843e+000
      endloop
   endfacet
   facet normal 5.698540e-001 0.000000e+000 8.217459e-001
      outer loop
         vertex -3.685276e+000 0.000000e+000 -4.734843e+000
         vertex -3.685276e+000 -1.200000e+001 -4.734843e+000
         vertex -2.855684e+000 -1.200000e+001 -5.276843e+000
      endloop
   endfacet
   facet normal 5.236253e-001 0.000000e+000 8.519487e-001
      outer loop
         vertex -3.685276e+000 0.000000e+000 -4.734843e+000
         vertex -2.855684e+000 -1.200000e+001 -5.276843e+000
         vertex -2.855684e+000 0.000000e+000 -5.276843e+000
      endloop
   endfacet
   facet normal 4.268270e-001 0.000000e+000 9.043333e-001
      outer loop
         vertex -2.855684e+000 0.000000e+000 -5.276843e+000
         vertex -2.855684e+000 -1.200000e+001 -5.276843e+000
         vertex -1.948197e+000 -1.200000e+001 -5.674903e+000
      endloop
   endfacet
   facet normal 3.762575e-001 0.000000e+000 9.265151e-001
      outer loop
         vertex -2.855684e+000 0.000000e+000 -5.276843e+000
         vertex -1.948197e+000 -1.200000e+001 -5.674903e+000
         vertex -1.948197e+000 0.000000e+000 -5.674903e+000
      endloop
   endfacet
   facet normal 2.721573e-001 0.000000e+000 9.622528e-001
      outer loop
         vertex -1.948197e+000 0.000000e+000 -5.674903e+000
         vertex -1.948197e+000 -1.200000e+001 -5.674903e+000
         vertex -9.875676e-001 -1.200000e+001 -5.918168e+000
      endloop
   endfacet
   facet normal 2.186265e-001 0.000000e+000 9.758086e-001
      outer loop
         vertex -1.948197e+000 0.000000e+000 -5.674903e+000
         vertex -9.875676e-001 -1.200000e+001 -5.918168e+000
         vertex -9.875676e-001 0.000000e+000 -5.918168e+000
      endloop
   endfacet
   facet normal 1.100638e-001 0.000000e+000 9.939246e-001
      outer loop
         vertex -9.875676e-001 0.000000e+000 -5.918168e+000
         vertex -9.875676e-001 -1.200000e+001 -5.918168e+000
         vertex -1.469576e-015 -1.200000e+001 -6.000000e+000
      endloop
   endfacet
   facet normal 5.503191e-002 0.000000e+000 9.984846e-001
      outer loop
         vertex -9.875676e-001 0.000000e+000 -5.918168e+000
         vertex -1.469576e-015 -1.200000e+001 -6.000000e+000
         vertex -1.469576e-015 0.000000e+000 -6.000000e+000
      endloop
   endfacet
   facet normal 0.000000e+000 0.000000e+000 1.000000e+000
      outer loop
         vertex 4.963869e+001 0.000000e+000 -6.000000e+000
         vertex 0.000000e+000 0.000000e+000 -6.000000e+000
         vertex 4.963869e+001 -1.200000e+001 -6.000000e+000
      endloop
   endfacet
   facet normal 0.000000e+000 0.000000e+000 1.000000e+000
      outer loop
         vertex 4.963869e+001 -1.200000e+001 -6.000000e+000
         vertex 0.000000e+000 0.000000e+000 -6.000000e+000
         vertex 0.000000e+000 -1.200000e+001 -6.000000e+000
      endloop
   endfacet
   facet normal 0.000000e+000 1.000000e+000 0.000000e+000
      outer loop
         vertex -5.494640e+000 0.000000e+000 -2.410172e+000
         vertex -4.757765e+001 0.000000e+000 -1.537424e+001
         vertex -5.816401e+000 0.000000e+000 -1.472913e+000
      endloop
   endfacet
   facet normal 0.000000e+000 1.000000e+000 0.000000e+000
      outer loop
         vertex -5.816401e+000 0.000000e+000 -1.472913e+000
         vertex -4.757765e+001 0.000000e+000 -1.537424e+001
         vertex -4.891851e+001 0.000000e+000 -1.034306e+001
      endloop
   endfacet
   facet normal 0.000000e+000 1.000000e+000 0.000000e+000
      outer loop
         vertex -5.816401e+000 0.000000e+000 -1.472913e+000
         vertex -4.891851e+001 0.000000e+000 -1.034306e+001
         vertex -5.979507e+000 0.000000e+000 -4.954761e-001
      endloop
   endfacet
   facet normal 0.000000e+000 1.000000e+000 0.000000e+000
      outer loop
         vertex 0.000000e+000 0.000000e+000 -6.000000e+000
         vertex -5.600044e+000 0.000000e+000 -4.968540e+001
         vertex -9.875676e-001 0.000000e+000 -5.918168e+000
      endloop
   endfacet
   facet normal 0.000000e+000 1.000000e+000 0.000000e+000
      outer loop
         vertex -9.875676e-001 0.000000e+000 -5.918168e+000
         vertex -5.600044e+000 0.000000e+000 -4.968540e+001
         vertex -1.073669e+001 0.000000e+000 -4.883363e+001
      endloop
   endfacet
   facet normal 0.000000e+000 1.000000e+000 0.000000e+000
      outer loop
         vertex -9.875676e-001 0.000000e+000 -5.918168e+000
         vertex -1.073669e+001 0.000000e+000 -4.883363e+001
         vertex -1.948197e+000 0.000000e+000 -5.674903e+000
      endloop
   endfacet
   facet normal 0.000000e+000 1.000000e+000 0.000000e+000
      outer loop
         vertex -5.494640e+000 0.000000e+000 2.410172e+000
         vertex -4.336823e+001 0.000000e+000 2.488367e+001
         vertex -5.022999e+000 0.000000e+000 3.281689e+000
      endloop
   endfacet
   facet normal 0.000000e+000 1.000000e+000 0.000000e+000
      outer loop
         vertex -5.022999e+000 0.000000e+000 3.281689e+000
         vertex -4.336823e+001 0.000000e+000 2.488367e+001
         vertex -4.054531e+001 0.000000e+000 2.925880e+001
      endloop
   endfacet
   facet normal 0.000000e+000 1.000000e+000 0.000000e+000
      outer loop
         vertex -5.022999e+000 0.000000e+000 3.281689e+000
         vertex -4.054531e+001 0.000000e+000 2.925880e+001
         vertex -4.414343e+000 0.000000e+000 4.063690e+000
      endloop
   endfacet
   facet normal 0.000000e+000 1.000000e+000 0.000000e+000
      outer loop
         vertex -5.022999e+000 0.000000e+000 -3.281689e+000
         vertex -4.336823e+001 0.000000e+000 -2.488367e+001
         vertex -5.494640e+000 0.000000e+000 -2.410172e+000
      endloop
   endfacet
   facet normal 0.000000e+000 1.000000e+000 0.000000e+000
      outer loop
         vertex -5.494640e+000 0.000000e+000 -2.410172e+000
         vertex -4.336823e+001 0.000000e+000 -2.488367e+001
         vertex -4.572084e+001 0.000000e+000 -2.023869e+001
      endloop
   endfacet
   facet normal 0.000000e+000 1.000000e+000 0.000000e+000
      outer loop
         vertex -5.494640e+000 0.000000e+000 -2.410172e+000
         vertex -4.572084e+001 0.000000e+000 -2.023869e+001
         vertex -4.757765e+001 0.000000e+000 -1.537424e+001
      endloop
   endfacet
   facet normal 0.000000e+000 1.000000e+000 0.000000e+000
      outer loop
         vertex -3.685276e+000 0.000000e+000 -4.734843e+000
         vertex -3.361582e+001 0.000000e+000 -3.701320e+001
         vertex -4.414343e+000 0.000000e+000 -4.063690e+000
      endloop
   endfacet
   facet normal 0.000000e+000 1.000000e+000 0.000000e+000
      outer loop
         vertex -4.414343e+000 0.000000e+000 -4.063690e+000
         vertex -3.361582e+001 0.000000e+000 -3.701320e+001
         vertex -3.728272e+001 0.000000e+000 -3.331665e+001
      endloop
   endfacet
   facet normal 0.000000e+000 1.000000e+000 0.000000e+000
      outer loop
         vertex -4.414343e+000 0.000000e+000 -4.063690e+000
         vertex -3.728272e+001 0.000000e+000 -3.331665e+001
         vertex -5.022999e+000 0.000000e+000 -3.281689e+000
      endloop
   endfacet
   facet normal 0.000000e+000 1.000000e+000 0.000000e+000
      outer loop
         vertex -5.022999e+000 0.000000e+000 -3.281689e+000
         vertex -3.728272e+001 0.000000e+000 -3.331665e+001
         vertex -4.054531e+001 0.000000e+000 -2.925880e+001
      endloop
   endfacet
   facet normal 0.000000e+000 1.000000e+000 0.000000e+000
      outer loop
         vertex -5.022999e+000 0.000000e+000 -3.281689e+000
         vertex -4.054531e+001 0.000000e+000 -2.925880e+001
         vertex -4.336823e+001 0.000000e+000 -2.488367e+001
      endloop
   endfacet
   facet normal 0.000000e+000 1.000000e+000 0.000000e+000
      outer loop
         vertex -1.073669e+001 0.000000e+000 -4.883363e+001
         vertex -1.575690e+001 0.000000e+000 -4.745229e+001
         vertex -1.948197e+000 0.000000e+000 -5.674903e+000
      endloop
   endfacet
   facet normal 0.000000e+000 1.000000e+000 0.000000e+000
      outer loop
         vertex -1.948197e+000 0.000000e+000 -5.674903e+000
         vertex -1.575690e+001 0.000000e+000 -4.745229e+001
         vertex -2.060624e+001 0.000000e+000 -4.555637e+001
      endloop
   endfacet
   facet normal 0.000000e+000 1.000000e+000 0.000000e+000
      outer loop
         vertex -1.948197e+000 0.000000e+000 -5.674903e+000
         vertex -2.060624e+001 0.000000e+000 -4.555637e+001
         vertex -2.855684e+000 0.000000e+000 -5.276843e+000
      endloop
   endfacet
   facet normal 0.000000e+000 1.000000e+000 0.000000e+000
      outer loop
         vertex -2.855684e+000 0.000000e+000 -5.276843e+000
         vertex -2.060624e+001 0.000000e+000 -4.555637e+001
         vertex -2.523212e+001 0.000000e+000 -4.316642e+001
      endloop
   endfacet
   facet normal 0.000000e+000 1.000000e+000 0.000000e+000
      outer loop
         vertex -2.855684e+000 0.000000e+000 -5.276843e+000
         vertex -2.523212e+001 0.000000e+000 -4.316642e+001
         vertex -3.685276e+000 0.000000e+000 -4.734843e+000
      endloop
   endfacet
   facet normal 0.000000e+000 1.000000e+000 0.000000e+000
      outer loop
         vertex -3.685276e+000 0.000000e+000 -4.734843e+000
         vertex -2.523212e+001 0.000000e+000 -4.316642e+001
         vertex -2.958438e+001 0.000000e+000 -4.030837e+001
      endloop
   endfacet
   facet normal 0.000000e+000 1.000000e+000 0.000000e+000
      outer loop
         vertex -3.685276e+000 0.000000e+000 -4.734843e+000
         vertex -2.958438e+001 0.000000e+000 -4.030837e+001
         vertex -3.361582e+001 0.000000e+000 -3.701320e+001
      endloop
   endfacet
   facet normal 0.000000e+000 1.000000e+000 0.000000e+000
      outer loop
         vertex -1.387779e-014 0.000000e+000 6.000000e+000
         vertex -9.875676e-001 0.000000e+000 5.918168e+000
         vertex -5.600044e+000 0.000000e+000 4.968540e+001
      endloop
   endfacet
   facet normal 0.000000e+000 1.000000e+000 0.000000e+000
      outer loop
         vertex -2.855684e+000 0.000000e+000 5.276843e+000
         vertex -2.060624e+001 0.000000e+000 4.555637e+001
         vertex -1.948197e+000 0.000000e+000 5.674903e+000
      endloop
   endfacet
   facet normal 0.000000e+000 1.000000e+000 0.000000e+000
      outer loop
         vertex -1.948197e+000 0.000000e+000 5.674903e+000
         vertex -2.060624e+001 0.000000e+000 4.555637e+001
         vertex -1.575690e+001 0.000000e+000 4.745229e+001
      endloop
   endfacet
   facet normal 0.000000e+000 1.000000e+000 0.000000e+000
      outer loop
         vertex -1.948197e+000 0.000000e+000 5.674903e+000
         vertex -1.575690e+001 0.000000e+000 4.745229e+001
         vertex -9.875676e-001 0.000000e+000 5.918168e+000
      endloop
   endfacet
   facet normal 0.000000e+000 1.000000e+000 0.000000e+000
      outer loop
         vertex -9.875676e-001 0.000000e+000 5.918168e+000
         vertex -1.575690e+001 0.000000e+000 4.745229e+001
         vertex -1.073669e+001 0.000000e+000 4.883363e+001
      endloop
   endfacet
   facet normal 0.000000e+000 1.000000e+000 0.000000e+000
      outer loop
         vertex -9.875676e-001 0.000000e+000 5.918168e+000
         vertex -1.073669e+001 0.000000e+000 4.883363e+001
         vertex -5.600044e+000 0.000000e+000 4.968540e+001
      endloop
   endfacet
   facet normal 0.000000e+000 1.000000e+000 0.000000e+000
      outer loop
         vertex -4.054531e+001 0.000000e+000 2.925880e+001
         vertex -3.728272e+001 0.000000e+000 3.331665e+001
         vertex -4.414343e+000 0.000000e+000 4.063690e+000
      endloop
   endfacet
   facet normal 0.000000e+000 1.000000e+000 0.000000e+000
      outer loop
         vertex -4.414343e+000 0.000000e+000 4.063690e+000
         vertex -3.728272e+001 0.000000e+000 3.331665e+001
         vertex -3.361582e+001 0.000000e+000 3.701320e+001
      endloop
   endfacet
   facet normal 0.000000e+000 1.000000e+000 0.000000e+000
      outer loop
         vertex -4.414343e+000 0.000000e+000 4.063690e+000
         vertex -3.361582e+001 0.000000e+000 3.701320e+001
         vertex -3.685276e+000 0.000000e+000 4.734843e+000
      endloop
   endfacet
   facet normal 0.000000e+000 1.000000e+000 0.000000e+000
      outer loop
         vertex -3.685276e+000 0.000000e+000 4.734843e+000
         vertex -3.361582e+001 0.000000e+000 3.701320e+001
         vertex -2.958438e+001 0.000000e+000 4.030837e+001
      endloop
   endfacet
   facet normal 0.000000e+000 1.000000e+000 0.000000e+000
      outer loop
         vertex -3.685276e+000 0.000000e+000 4.734843e+000
         vertex -2.958438e+001 0.000000e+000 4.030837e+001
         vertex -2.855684e+000 0.000000e+000 5.276843e+000
      endloop
   endfacet
   facet normal 0.000000e+000 1.000000e+000 0.000000e+000
      outer loop
         vertex -2.855684e+000 0.000000e+000 5.276843e+000
         vertex -2.958438e+001 0.000000e+000 4.030837e+001
         vertex -2.523212e+001 0.000000e+000 4.316642e+001
      endloop
   endfacet
   facet normal 0.000000e+000 1.000000e+000 0.000000e+000
      outer loop
         vertex -2.855684e+000 0.000000e+000 5.276843e+000
         vertex -2.523212e+001 0.000000e+000 4.316642e+001
         vertex -2.060624e+001 0.000000e+000 4.555637e+001
      endloop
   endfacet
   facet normal 0.000000e+000 1.000000e+000 0.000000e+000
      outer loop
         vertex -5.600044e+000 0.000000e+000 4.968540e+001
         vertex -4.026713e-001 0.000000e+000 4.999838e+001
         vertex -1.387779e-014 0.000000e+000 6.000000e+000
      endloop
   endfacet
   facet normal 0.000000e+000 1.000000e+000 0.000000e+000
      outer loop
         vertex -1.387779e-014 0.000000e+000 6.000000e+000
         vertex -4.026713e-001 0.000000e+000 4.999838e+001
         vertex 4.799068e+000 0.000000e+000 4.976916e+001
      endloop
   endfacet
   facet normal 0.000000e+000 1.000000e+000 0.000000e+000
      outer loop
         vertex -1.387779e-014 0.000000e+000 6.000000e+000
         vertex 4.799068e+000 0.000000e+000 4.976916e+001
         vertex 9.948765e+000 0.000000e+000 4.900023e+001
      endloop
   endfacet
   facet normal 0.000000e+000 1.000000e+000 0.000000e+000
      outer loop
         vertex -5.816401e+000 0.000000e+000 1.472913e+000
         vertex -4.757765e+001 0.000000e+000 1.537424e+001
         vertex -5.494640e+000 0.000000e+000 2.410172e+000
      endloop
   endfacet
   facet normal 0.000000e+000 1.000000e+000 0.000000e+000
      outer loop
         vertex -5.494640e+000 0.000000e+000 2.410172e+000
         vertex -4.757765e+001 0.000000e+000 1.537424e+001
         vertex -4.572084e+001 0.000000e+000 2.023869e+001
      endloop
   endfacet
   facet normal 0.000000e+000 1.000000e+000 0.000000e+000
      outer loop
         vertex -5.494640e+000 0.000000e+000 2.410172e+000
         vertex -4.572084e+001 0.000000e+000 2.023869e+001
         vertex -4.336823e+001 0.000000e+000 2.488367e+001
      endloop
   endfacet
   facet normal 0.000000e+000 1.000000e+000 0.000000e+000
      outer loop
         vertex -4.891851e+001 0.000000e+000 -1.034306e+001
         vertex -4.972889e+001 0.000000e+000 -5.199724e+000
         vertex -5.979507e+000 0.000000e+000 -4.954761e-001
      endloop
   endfacet
   facet normal 0.000000e+000 1.000000e+000 0.000000e+000
      outer loop
         vertex -5.979507e+000 0.000000e+000 -4.954761e-001
         vertex -4.972889e+001 0.000000e+000 -5.199724e+000
         vertex -5.000000e+001 0.000000e+000 -5.551115e-014
      endloop
   endfacet
   facet normal 0.000000e+000 1.000000e+000 0.000000e+000
      outer loop
         vertex -5.979507e+000 0.000000e+000 -4.954761e-001
         vertex -5.000000e+001 0.000000e+000 -5.551115e-014
         vertex -5.979507e+000 0.000000e+000 4.954761e-001
      endloop
   endfacet
   facet normal 0.000000e+000 1.000000e+000 0.000000e+000
      outer loop
         vertex -5.979507e+000 0.000000e+000 4.954761e-001
         vertex -5.000000e+001 0.000000e+000 -5.551115e-014
         vertex -4.972889e+001 0.000000e+000 5.199724e+000
      endloop
   endfacet
   facet normal 0.000000e+000 1.000000e+000 0.000000e+000
      outer loop
         vertex -5.979507e+000 0.000000e+000 4.954761e-001
         vertex -4.972889e+001 0.000000e+000 5.199724e+000
         vertex -5.816401e+000 0.000000e+000 1.472913e+000
      endloop
   endfacet
   facet normal 0.000000e+000 1.000000e+000 0.000000e+000
      outer loop
         vertex -5.816401e+000 0.000000e+000 1.472913e+000
         vertex -4.972889e+001 0.000000e+000 5.199724e+000
         vertex -4.891851e+001 0.000000e+000 1.034306e+001
      endloop
   endfacet
   facet normal 0.000000e+000 1.000000e+000 0.000000e+000
      outer loop
         vertex -5.816401e+000 0.000000e+000 1.472913e+000
         vertex -4.891851e+001 0.000000e+000 1.034306e+001
         vertex -4.757765e+001 0.000000e+000 1.537424e+001
      endloop
   endfacet
   facet normal 0.000000e+000 1.000000e+000 0.000000e+000
      outer loop
         vertex 4.963869e+001 0.000000e+000 -6.000000e+000
         vertex 4.874558e+001 0.000000e+000 -1.112962e+001
         vertex 0.000000e+000 0.000000e+000 -6.000000e+000
      endloop
   endfacet
   facet normal 0.000000e+000 1.000000e+000 0.000000e+000
      outer loop
         vertex 0.000000e+000 0.000000e+000 -6.000000e+000
         vertex 4.874558e+001 0.000000e+000 -1.112962e+001
         vertex 4.732386e+001 0.000000e+000 -1.613854e+001
      endloop
   endfacet
   facet normal 0.000000e+000 1.000000e+000 0.000000e+000
      outer loop
         vertex 0.000000e+000 0.000000e+000 -6.000000e+000
         vertex 4.732386e+001 0.000000e+000 -1.613854e+001
         vertex 4.538894e+001 0.000000e+000 -2.097246e+001
      endloop
   endfacet
   facet normal 0.000000e+000 1.000000e+000 0.000000e+000
      outer loop
         vertex 4.538894e+001 0.000000e+000 -2.097246e+001
         vertex 4.296182e+001 0.000000e+000 -2.557894e+001
         vertex 0.000000e+000 0.000000e+000 -6.000000e+000
      endloop
   endfacet
   facet normal 0.000000e+000 1.000000e+000 0.000000e+000
      outer loop
         vertex 0.000000e+000 0.000000e+000 -6.000000e+000
         vertex 4.296182e+001 0.000000e+000 -2.557894e+001
         vertex 4.006880e+001 0.000000e+000 -2.990804e+001
      endloop
   endfacet
   facet normal 0.000000e+000 1.000000e+000 0.000000e+000
      outer loop
         vertex 0.000000e+000 0.000000e+000 -6.000000e+000
         vertex 4.006880e+001 0.000000e+000 -2.990804e+001
         vertex 3.674127e+001 0.000000e+000 -3.391281e+001
      endloop
   endfacet
   facet normal 0.000000e+000 1.000000e+000 0.000000e+000
      outer loop
         vertex 9.948765e+000 0.000000e+000 4.900023e+001
         vertex 1.499057e+001 0.000000e+000 4.769992e+001
         vertex -1.387779e-014 0.000000e+000 6.000000e+000
      endloop
   endfacet
   facet normal 0.000000e+000 1.000000e+000 0.000000e+000
      outer loop
         vertex -1.387779e-014 0.000000e+000 6.000000e+000
         vertex 1.499057e+001 0.000000e+000 4.769992e+001
         vertex 1.986982e+001 0.000000e+000 4.588235e+001
      endloop
   endfacet
   facet normal 0.000000e+000 1.000000e+000 0.000000e+000
      outer loop
         vertex -1.387779e-014 0.000000e+000 6.000000e+000
         vertex 1.986982e+001 0.000000e+000 4.588235e+001
         vertex 2.453360e+001 0.000000e+000 4.356722e+001
      endloop
   endfacet
   facet normal 0.000000e+000 1.000000e+000 0.000000e+000
      outer loop
         vertex 3.674127e+001 0.000000e+000 -3.391281e+001
         vertex 3.301531e+001 0.000000e+000 -3.754982e+001
         vertex 0.000000e+000 0.000000e+000 -6.000000e+000
      endloop
   endfacet
   facet normal 0.000000e+000 1.000000e+000 0.000000e+000
      outer loop
         vertex 0.000000e+000 0.000000e+000 -6.000000e+000
         vertex 3.301531e+001 0.000000e+000 -3.754982e+001
         vertex 2.893132e+001 0.000000e+000 -4.077963e+001
      endloop
   endfacet
   facet normal 0.000000e+000 1.000000e+000 0.000000e+000
      outer loop
         vertex 0.000000e+000 0.000000e+000 -6.000000e+000
         vertex 2.893132e+001 0.000000e+000 -4.077963e+001
         vertex 2.453360e+001 0.000000e+000 -4.356722e+001
      endloop
   endfacet
   facet normal 0.000000e+000 1.000000e+000 0.000000e+000
      outer loop
         vertex 2.453360e+001 0.000000e+000 4.356722e+001
         vertex 2.893132e+001 0.000000e+000 4.077963e+001
         vertex -1.387779e-014 0.000000e+000 6.000000e+000
      endloop
   endfacet
   facet normal 0.000000e+000 1.000000e+000 0.000000e+000
      outer loop
         vertex -1.387779e-014 0.000000e+000 6.000000e+000
         vertex 2.893132e+001 0.000000e+000 4.077963e+001
         vertex 3.301531e+001 0.000000e+000 3.754982e+001
      endloop
   endfacet
   facet normal 0.000000e+000 1.000000e+000 0.000000e+000
      outer loop
         vertex -1.387779e-014 0.000000e+000 6.000000e+000
         vertex 3.301531e+001 0.000000e+000 3.754982e+001
         vertex 3.674127e+001 0.000000e+000 3.391281e+001
      endloop
   endfacet
   facet normal 0.000000e+000 1.000000e+000 0.000000e+000
      outer loop
         vertex 3.674127e+001 0.000000e+000 3.391281e+001
         vertex 4.006880e+001 0.000000e+000 2.990804e+001
         vertex -1.387779e-014 0.000000e+000 6.000000e+000
      endloop
   endfacet
   facet normal 0.000000e+000 1.000000e+000 0.000000e+000
      outer loop
         vertex -1.387779e-014 0.000000e+000 6.000000e+000
         vertex 4.006880e+001 0.000000e+000 2.990804e+001
         vertex 4.296182e+001 0.000000e+000 2.557894e+001
      endloop
   endfacet
   facet normal 0.000000e+000 1.000000e+000 0.000000e+000
      outer loop
         vertex -1.387779e-014 0.000000e+000 6.000000e+000
         vertex 4.296182e+001 0.000000e+000 2.557894e+001
         vertex 4.538894e+001 0.000000e+000 2.097246e+001
      endloop
   endfacet
   facet normal 0.000000e+000 1.000000e+000 0.000000e+000
      outer loop
         vertex 2.453360e+001 0.000000e+000 -4.356722e+001
         vertex 1.986982e+001 0.000000e+000 -4.588235e+001
         vertex 0.000000e+000 0.000000e+000 -6.000000e+000
      endloop
   endfacet
   facet normal 0.000000e+000 1.000000e+000 0.000000e+000
      outer loop
         vertex 0.000000e+000 0.000000e+000 -6.000000e+000
         vertex 1.986982e+001 0.000000e+000 -4.588235e+001
         vertex 1.499057e+001 0.000000e+000 -4.769992e+001
      endloop
   endfacet
   facet normal 0.000000e+000 1.000000e+000 0.000000e+000
      outer loop
         vertex 0.000000e+000 0.000000e+000 -6.000000e+000
         vertex 1.499057e+001 0.000000e+000 -4.769992e+001
         vertex 9.948765e+000 0.000000e+000 -4.900023e+001
      endloop
   endfacet
   facet normal 0.000000e+000 1.000000e+000 0.000000e+000
      outer loop
         vertex 4.538894e+001 0.000000e+000 2.097246e+001
         vertex 4.732386e+001 0.000000e+000 1.613854e+001
         vertex -1.387779e-014 0.000000e+000 6.000000e+000
      endloop
   endfacet
   facet normal 0.000000e+000 1.000000e+000 0.000000e+000
      outer loop
         vertex -1.387779e-014 0.000000e+000 6.000000e+000
         vertex 4.732386e+001 0.000000e+000 1.613854e+001
         vertex 4.874558e+001 0.000000e+000 1.112962e+001
      endloop
   endfacet
   facet normal 0.000000e+000 1.000000e+000 0.000000e+000
      outer loop
         vertex -1.387779e-014 0.000000e+000 6.000000e+000
         vertex 4.874558e+001 0.000000e+000 1.112962e+001
         vertex 4.963869e+001 0.000000e+000 6.000000e+000
      endloop
   endfacet
   facet normal 0.000000e+000 1.000000e+000 0.000000e+000
      outer loop
         vertex 9.948765e+000 0.000000e+000 -4.900023e+001
         vertex 4.799068e+000 0.000000e+000 -4.976916e+001
         vertex 0.000000e+000 0.000000e+000 -6.000000e+000
      endloop
   endfacet
   facet normal 0.000000e+000 1.000000e+000 0.000000e+000
      outer loop
         vertex 0.000000e+000 0.000000e+000 -6.000000e+000
         vertex 4.799068e+000 0.000000e+000 -4.976916e+001
         vertex -4.026713e-001 0.000000e+000 -4.999838e+001
      endloop
   endfacet
   facet normal 0.000000e+000 1.000000e+000 0.000000e+000
      outer loop
         vertex 0.000000e+000 0.000000e+000 -6.000000e+000
         vertex -4.026713e-001 0.000000e+000 -4.999838e+001
         vertex -5.600044e+000 0.000000e+000 -4.968540e+001
      endloop
   endfacet
endsolid