solid ArbreMeche_Default_sldprt
   facet normal -9.983119e-001 5.807913e-002 0.000000e+000
      outer loop
         vertex -1.477212e+001 2.604723e+000 1.690000e+002
         vertex -1.500000e+001 0.000000e+000 1.000000e+000
         vertex -1.500000e+001 0.000000e+000 1.690000e+002
      endloop
   endfacet
   facet normal -9.983119e-001 -5.807913e-002 0.000000e+000
      outer loop
         vertex -1.500000e+001 0.000000e+000 1.690000e+002
         vertex -1.500000e+001 0.000000e+000 1.000000e+000
         vertex -1.477212e+001 -2.604723e+000 1.000000e+000
      endloop
   endfacet
   facet normal -9.932307e-001 -1.161583e-001 0.000000e+000
      outer loop
         vertex -1.500000e+001 0.000000e+000 1.690000e+002
         vertex -1.477212e+001 -2.604723e+000 1.000000e+000
         vertex -1.477212e+001 -2.604723e+000 1.690000e+002
      endloop
   endfacet
   facet normal -9.730600e-001 -2.305519e-001 0.000000e+000
      outer loop
         vertex -1.477212e+001 -2.604723e+000 1.690000e+002
         vertex -1.477212e+001 -2.604723e+000 1.000000e+000
         vertex -1.409539e+001 -5.130302e+000 1.000000e+000
      endloop
   endfacet
   facet normal -9.579706e-001 -2.868663e-001 0.000000e+000
      outer loop
         vertex -1.477212e+001 -2.604723e+000 1.690000e+002
         vertex -1.409539e+001 -5.130302e+000 1.000000e+000
         vertex -1.409539e+001 -5.130302e+000 1.690000e+002
      endloop
   endfacet
   facet normal -9.182422e-001 -3.960194e-001 0.000000e+000
      outer loop
         vertex -1.409539e+001 -5.130302e+000 1.690000e+002
         vertex -1.409539e+001 -5.130302e+000 1.000000e+000
         vertex -1.299038e+001 -7.500000e+000 1.000000e+000
      endloop
   endfacet
   facet normal -8.936031e-001 -4.488580e-001 0.000000e+000
      outer loop
         vertex -1.409539e+001 -5.130302e+000 1.690000e+002
         vertex -1.299038e+001 -7.500000e+000 1.000000e+000
         vertex -1.299038e+001 -7.500000e+000 1.690000e+002
      endloop
   endfacet
   facet normal -8.355240e-001 -5.494540e-001 0.000000e+000
      outer loop
         vertex -1.299038e+001 -7.500000e+000 1.690000e+002
         vertex -1.299038e+001 -7.500000e+000 1.000000e+000
         vertex -1.149067e+001 -9.641814e+000 1.000000e+000
      endloop
   endfacet
   facet normal -8.020838e-001 -5.972114e-001 0.000000e+000
      outer loop
         vertex -1.299038e+001 -7.500000e+000 1.690000e+002
         vertex -1.149067e+001 -9.641814e+000 1.000000e+000
         vertex -1.149067e+001 -9.641814e+000 1.690000e+002
      endloop
   endfacet
   facet normal -7.274188e-001 -6.861938e-001 0.000000e+000
      outer loop
         vertex -1.149067e+001 -9.641814e+000 1.690000e+002
         vertex -1.149067e+001 -9.641814e+000 1.000000e+000
         vertex -9.641814e+000 -1.149067e+001 1.000000e+000
      endloop
   endfacet
   facet normal -6.861938e-001 -7.274188e-001 0.000000e+000
      outer loop
         vertex -1.149067e+001 -9.641814e+000 1.690000e+002
         vertex -9.641814e+000 -1.149067e+001 1.000000e+000
         vertex -9.641814e+000 -1.149067e+001 1.690000e+002
      endloop
   endfacet
   facet normal -5.972114e-001 -8.020838e-001 0.000000e+000
      outer loop
         vertex -9.641814e+000 -1.149067e+001 1.690000e+002
         vertex -9.641814e+000 -1.149067e+001 1.000000e+000
         vertex -7.500000e+000 -1.299038e+001 1.000000e+000
      endloop
   endfacet
   facet normal -5.494540e-001 -8.355240e-001 0.000000e+000
      outer loop
         vertex -9.641814e+000 -1.149067e+001 1.690000e+002
         vertex -7.500000e+000 -1.299038e+001 1.000000e+000
         vertex -7.500000e+000 -1.299038e+001 1.690000e+002
      endloop
   endfacet
   facet normal -4.488580e-001 -8.936031e-001 0.000000e+000
      outer loop
         vertex -7.500000e+000 -1.299038e+001 1.690000e+002
         vertex -7.500000e+000 -1.299038e+001 1.000000e+000
         vertex -5.130302e+000 -1.409539e+001 1.000000e+000
      endloop
   endfacet
   facet normal -3.960194e-001 -9.182422e-001 0.000000e+000
      outer loop
         vertex -7.500000e+000 -1.299038e+001 1.690000e+002
         vertex -5.130302e+000 -1.409539e+001 1.000000e+000
         vertex -5.130302e+000 -1.409539e+001 1.690000e+002
      endloop
   endfacet
   facet normal -2.868663e-001 -9.579706e-001 0.000000e+000
      outer loop
         vertex -5.130302e+000 -1.409539e+001 1.690000e+002
         vertex -5.130302e+000 -1.409539e+001 1.000000e+000
         vertex -2.604723e+000 -1.477212e+001 1.000000e+000
      endloop
   endfacet
   facet normal -2.305519e-001 -9.730600e-001 0.000000e+000
      outer loop
         vertex -5.130302e+000 -1.409539e+001 1.690000e+002
         vertex -2.604723e+000 -1.477212e+001 1.000000e+000
         vertex -2.604723e+000 -1.477212e+001 1.690000e+002
      endloop
   endfacet
   facet normal -1.161583e-001 -9.932307e-001 0.000000e+000
      outer loop
         vertex -2.604723e+000 -1.477212e+001 1.690000e+002
         vertex -2.604723e+000 -1.477212e+001 1.000000e+000
         vertex 2.755455e-015 -1.500000e+001 1.000000e+000
      endloop
   endfacet
   facet normal -5.807913e-002 -9.983119e-001 0.000000e+000
      outer loop
         vertex -2.604723e+000 -1.477212e+001 1.690000e+002
         vertex 2.755455e-015 -1.500000e+001 1.000000e+000
         vertex 2.755455e-015 -1.500000e+001 1.690000e+002
      endloop
   endfacet
   facet normal 5.807913e-002 -9.983119e-001 0.000000e+000
      outer loop
         vertex 2.755455e-015 -1.500000e+001 1.690000e+002
         vertex 2.755455e-015 -1.500000e+001 1.000000e+000
         vertex 2.604723e+000 -1.477212e+001 1.000000e+000
      endloop
   endfacet
   facet normal 1.161583e-001 -9.932307e-001 0.000000e+000
      outer loop
         vertex 2.755455e-015 -1.500000e+001 1.690000e+002
         vertex 2.604723e+000 -1.477212e+001 1.000000e+000
         vertex 2.604723e+000 -1.477212e+001 1.690000e+002
      endloop
   endfacet
   facet normal 2.305519e-001 -9.730600e-001 0.000000e+000
      outer loop
         vertex 2.604723e+000 -1.477212e+001 1.690000e+002
         vertex 2.604723e+000 -1.477212e+001 1.000000e+000
         vertex 5.130302e+000 -1.409539e+001 1.000000e+000
      endloop
   endfacet
   facet normal 2.868663e-001 -9.579706e-001 0.000000e+000
      outer loop
         vertex 2.604723e+000 -1.477212e+001 1.690000e+002
         vertex 5.130302e+000 -1.409539e+001 1.000000e+000
         vertex 5.130302e+000 -1.409539e+001 1.690000e+002
      endloop
   endfacet
   facet normal 3.960194e-001 -9.182422e-001 0.000000e+000
      outer loop
         vertex 5.130302e+000 -1.409539e+001 1.690000e+002
         vertex 5.130302e+000 -1.409539e+001 1.000000e+000
         vertex 7.500000e+000 -1.299038e+001 1.000000e+000
      endloop
   endfacet
   facet normal 4.488580e-001 -8.936031e-001 0.000000e+000
      outer loop
         vertex 5.130302e+000 -1.409539e+001 1.690000e+002
         vertex 7.500000e+000 -1.299038e+001 1.000000e+000
         vertex 7.500000e+000 -1.299038e+001 1.690000e+002
      endloop
   endfacet
   facet normal 5.494540e-001 -8.355240e-001 0.000000e+000
      outer loop
         vertex 7.500000e+000 -1.299038e+001 1.690000e+002
         vertex 7.500000e+000 -1.299038e+001 1.000000e+000
         vertex 9.641814e+000 -1.149067e+001 1.000000e+000
      endloop
   endfacet
   facet normal 5.972114e-001 -8.020838e-001 0.000000e+000
      outer loop
         vertex 7.500000e+000 -1.299038e+001 1.690000e+002
         vertex 9.641814e+000 -1.149067e+001 1.000000e+000
         vertex 9.641814e+000 -1.149067e+001 1.690000e+002
      endloop
   endfacet
   facet normal 6.861938e-001 -7.274188e-001 0.000000e+000
      outer loop
         vertex 9.641814e+000 -1.149067e+001 1.690000e+002
         vertex 9.641814e+000 -1.149067e+001 1.000000e+000
         vertex 1.149067e+001 -9.641814e+000 1.000000e+000
      endloop
   endfacet
   facet normal 7.274188e-001 -6.861938e-001 0.000000e+000
      outer loop
         vertex 9.641814e+000 -1.149067e+001 1.690000e+002
         vertex 1.149067e+001 -9.641814e+000 1.000000e+000
         vertex 1.149067e+001 -9.641814e+000 1.690000e+002
      endloop
   endfacet
   facet normal 8.020838e-001 -5.972114e-001 0.000000e+000
      outer loop
         vertex 1.149067e+001 -9.641814e+000 1.690000e+002
         vertex 1.149067e+001 -9.641814e+000 1.000000e+000
         vertex 1.299038e+001 -7.500000e+000 1.000000e+000
      endloop
   endfacet
   facet normal 8.355240e-001 -5.494540e-001 0.000000e+000
      outer loop
         vertex 1.149067e+001 -9.641814e+000 1.690000e+002
         vertex 1.299038e+001 -7.500000e+000 1.000000e+000
         vertex 1.299038e+001 -7.500000e+000 1.690000e+002
      endloop
   endfacet
   facet normal 8.936031e-001 -4.488580e-001 0.000000e+000
      outer loop
         vertex 1.299038e+001 -7.500000e+000 1.690000e+002
         vertex 1.299038e+001 -7.500000e+000 1.000000e+000
         vertex 1.409539e+001 -5.130302e+000 1.000000e+000
      endloop
   endfacet
   facet normal 9.182422e-001 -3.960194e-001 0.000000e+000
      outer loop
         vertex 1.299038e+001 -7.500000e+000 1.690000e+002
         vertex 1.409539e+001 -5.130302e+000 1.000000e+000
         vertex 1.409539e+001 -5.130302e+000 1.690000e+002
      endloop
   endfacet
   facet normal 9.579706e-001 -2.868663e-001 0.000000e+000
      outer loop
         vertex 1.409539e+001 -5.130302e+000 1.690000e+002
         vertex 1.409539e+001 -5.130302e+000 1.000000e+000
         vertex 1.477212e+001 -2.604723e+000 1.000000e+000
      endloop
   endfacet
   facet normal 9.730600e-001 -2.305519e-001 0.000000e+000
      outer loop
         vertex 1.409539e+001 -5.130302e+000 1.690000e+002
         vertex 1.477212e+001 -2.604723e+000 1.000000e+000
         vertex 1.477212e+001 -2.604723e+000 1.690000e+002
      endloop
   endfacet
   facet normal 9.932307e-001 -1.161583e-001 0.000000e+000
      outer loop
         vertex 1.477212e+001 -2.604723e+000 1.690000e+002
         vertex 1.477212e+001 -2.604723e+000 1.000000e+000
         vertex 1.500000e+001 1.836970e-015 1.000000e+000
      endloop
   endfacet
   facet normal 9.983119e-001 -5.807913e-002 0.000000e+000
      outer loop
         vertex 1.477212e+001 -2.604723e+000 1.690000e+002
         vertex 1.500000e+001 1.836970e-015 1.000000e+000
         vertex 1.500000e+001 1.836970e-015 1.690000e+002
      endloop
   endfacet
   facet normal 9.983119e-001 5.807913e-002 0.000000e+000
      outer loop
         vertex 1.500000e+001 1.836970e-015 1.690000e+002
         vertex 1.500000e+001 1.836970e-015 1.000000e+000
         vertex 1.477212e+001 2.604723e+000 1.000000e+000
      endloop
   endfacet
   facet normal 9.932307e-001 1.161583e-001 0.000000e+000
      outer loop
         vertex 1.500000e+001 1.836970e-015 1.690000e+002
         vertex 1.477212e+001 2.604723e+000 1.000000e+000
         vertex 1.477212e+001 2.604723e+000 1.690000e+002
      endloop
   endfacet
   facet normal 9.730600e-001 2.305519e-001 0.000000e+000
      outer loop
         vertex 1.477212e+001 2.604723e+000 1.690000e+002
         vertex 1.477212e+001 2.604723e+000 1.000000e+000
         vertex 1.409539e+001 5.130302e+000 1.000000e+000
      endloop
   endfacet
   facet normal 9.579706e-001 2.868663e-001 0.000000e+000
      outer loop
         vertex 1.477212e+001 2.604723e+000 1.690000e+002
         vertex 1.409539e+001 5.130302e+000 1.000000e+000
         vertex 1.409539e+001 5.130302e+000 1.690000e+002
      endloop
   endfacet
   facet normal 9.182422e-001 3.960194e-001 0.000000e+000
      outer loop
         vertex 1.409539e+001 5.130302e+000 1.690000e+002
         vertex 1.409539e+001 5.130302e+000 1.000000e+000
         vertex 1.299038e+001 7.500000e+000 1.000000e+000
      endloop
   endfacet
   facet normal 8.936031e-001 4.488580e-001 0.000000e+000
      outer loop
         vertex 1.409539e+001 5.130302e+000 1.690000e+002
         vertex 1.299038e+001 7.500000e+000 1.000000e+000
         vertex 1.299038e+001 7.500000e+000 1.690000e+002
      endloop
   endfacet
   facet normal 8.355240e-001 5.494540e-001 0.000000e+000
      outer loop
         vertex 1.299038e+001 7.500000e+000 1.690000e+002
         vertex 1.299038e+001 7.500000e+000 1.000000e+000
         vertex 1.149067e+001 9.641814e+000 1.000000e+000
      endloop
   endfacet
   facet normal 8.020838e-001 5.972114e-001 0.000000e+000
      outer loop
         vertex 1.299038e+001 7.500000e+000 1.690000e+002
         vertex 1.149067e+001 9.641814e+000 1.000000e+000
         vertex 1.149067e+001 9.641814e+000 1.690000e+002
      endloop
   endfacet
   facet normal 7.274188e-001 6.861938e-001 0.000000e+000
      outer loop
         vertex 1.149067e+001 9.641814e+000 1.690000e+002
         vertex 1.149067e+001 9.641814e+000 1.000000e+000
         vertex 9.641814e+000 1.149067e+001 1.000000e+000
      endloop
   endfacet
   facet normal 6.861938e-001 7.274188e-001 0.000000e+000
      outer loop
         vertex 1.149067e+001 9.641814e+000 1.690000e+002
         vertex 9.641814e+000 1.149067e+001 1.000000e+000
         vertex 9.641814e+000 1.149067e+001 1.690000e+002
      endloop
   endfacet
   facet normal 5.972114e-001 8.020838e-001 0.000000e+000
      outer loop
         vertex 9.641814e+000 1.149067e+001 1.690000e+002
         vertex 9.641814e+000 1.149067e+001 1.000000e+000
         vertex 7.500000e+000 1.299038e+001 1.000000e+000
      endloop
   endfacet
   facet normal 5.494540e-001 8.355240e-001 0.000000e+000
      outer loop
         vertex 9.641814e+000 1.149067e+001 1.690000e+002
         vertex 7.500000e+000 1.299038e+001 1.000000e+000
         vertex 7.500000e+000 1.299038e+001 1.690000e+002
      endloop
   endfacet
   facet normal 4.488580e-001 8.936031e-001 0.000000e+000
      outer loop
         vertex 7.500000e+000 1.299038e+001 1.690000e+002
         vertex 7.500000e+000 1.299038e+001 1.000000e+000
         vertex 5.130302e+000 1.409539e+001 1.000000e+000
      endloop
   endfacet
   facet normal 3.960194e-001 9.182422e-001 0.000000e+000
      outer loop
         vertex 7.500000e+000 1.299038e+001 1.690000e+002
         vertex 5.130302e+000 1.409539e+001 1.000000e+000
         vertex 5.130302e+000 1.409539e+001 1.690000e+002
      endloop
   endfacet
   facet normal 2.868663e-001 9.579706e-001 0.000000e+000
      outer loop
         vertex 5.130302e+000 1.409539e+001 1.690000e+002
         vertex 5.130302e+000 1.409539e+001 1.000000e+000
         vertex 2.604723e+000 1.477212e+001 1.000000e+000
      endloop
   endfacet
   facet normal 2.305519e-001 9.730600e-001 0.000000e+000
      outer loop
         vertex 5.130302e+000 1.409539e+001 1.690000e+002
         vertex 2.604723e+000 1.477212e+001 1.000000e+000
         vertex 2.604723e+000 1.477212e+001 1.690000e+002
      endloop
   endfacet
   facet normal 1.161583e-001 9.932307e-001 0.000000e+000
      outer loop
         vertex 2.604723e+000 1.477212e+001 1.690000e+002
         vertex 2.604723e+000 1.477212e+001 1.000000e+000
         vertex -9.184852e-016 1.500000e+001 1.000000e+000
      endloop
   endfacet
   facet normal 5.807913e-002 9.983119e-001 0.000000e+000
      outer loop
         vertex 2.604723e+000 1.477212e+001 1.690000e+002
         vertex -9.184852e-016 1.500000e+001 1.000000e+000
         vertex -9.184852e-016 1.500000e+001 1.690000e+002
      endloop
   endfacet
   facet normal -5.807913e-002 9.983119e-001 0.000000e+000
      outer loop
         vertex -9.184852e-016 1.500000e+001 1.690000e+002
         vertex -9.184852e-016 1.500000e+001 1.000000e+000
         vertex -2.604723e+000 1.477212e+001 1.000000e+000
      endloop
   endfacet
   facet normal -1.161583e-001 9.932307e-001 0.000000e+000
      outer loop
         vertex -9.184852e-016 1.500000e+001 1.690000e+002
         vertex -2.604723e+000 1.477212e+001 1.000000e+000
         vertex -2.604723e+000 1.477212e+001 1.690000e+002
      endloop
   endfacet
   facet normal -2.305519e-001 9.730600e-001 0.000000e+000
      outer loop
         vertex -2.604723e+000 1.477212e+001 1.690000e+002
         vertex -2.604723e+000 1.477212e+001 1.000000e+000
         vertex -5.130302e+000 1.409539e+001 1.000000e+000
      endloop
   endfacet
   facet normal -2.868663e-001 9.579706e-001 0.000000e+000
      outer loop
         vertex -2.604723e+000 1.477212e+001 1.690000e+002
         vertex -5.130302e+000 1.409539e+001 1.000000e+000
         vertex -5.130302e+000 1.409539e+001 1.690000e+002
      endloop
   endfacet
   facet normal -3.960194e-001 9.182422e-001 0.000000e+000
      outer loop
         vertex -5.130302e+000 1.409539e+001 1.690000e+002
         vertex -5.130302e+000 1.409539e+001 1.000000e+000
         vertex -7.500000e+000 1.299038e+001 1.000000e+000
      endloop
   endfacet
   facet normal -4.488580e-001 8.936031e-001 0.000000e+000
      outer loop
         vertex -5.130302e+000 1.409539e+001 1.690000e+002
         vertex -7.500000e+000 1.299038e+001 1.000000e+000
         vertex -7.500000e+000 1.299038e+001 1.690000e+002
      endloop
   endfacet
   facet normal -5.494540e-001 8.355240e-001 0.000000e+000
      outer loop
         vertex -7.500000e+000 1.299038e+001 1.690000e+002
         vertex -7.500000e+000 1.299038e+001 1.000000e+000
         vertex -9.641814e+000 1.149067e+001 1.000000e+000
      endloop
   endfacet
   facet normal -5.972114e-001 8.020838e-001 0.000000e+000
      outer loop
         vertex -7.500000e+000 1.299038e+001 1.690000e+002
         vertex -9.641814e+000 1.149067e+001 1.000000e+000
         vertex -9.641814e+000 1.149067e+001 1.690000e+002
      endloop
   endfacet
   facet normal -6.861938e-001 7.274188e-001 0.000000e+000
      outer loop
         vertex -9.641814e+000 1.149067e+001 1.690000e+002
         vertex -9.641814e+000 1.149067e+001 1.000000e+000
         vertex -1.149067e+001 9.641814e+000 1.000000e+000
      endloop
   endfacet
   facet normal -7.274188e-001 6.861938e-001 0.000000e+000
      outer loop
         vertex -9.641814e+000 1.149067e+001 1.690000e+002
         vertex -1.149067e+001 9.641814e+000 1.000000e+000
         vertex -1.149067e+001 9.641814e+000 1.690000e+002
      endloop
   endfacet
   facet normal -8.020838e-001 5.972114e-001 0.000000e+000
      outer loop
         vertex -1.149067e+001 9.641814e+000 1.690000e+002
         vertex -1.149067e+001 9.641814e+000 1.000000e+000
         vertex -1.299038e+001 7.500000e+000 1.000000e+000
      endloop
   endfacet
   facet normal -8.355240e-001 5.494540e-001 0.000000e+000
      outer loop
         vertex -1.149067e+001 9.641814e+000 1.690000e+002
         vertex -1.299038e+001 7.500000e+000 1.000000e+000
         vertex -1.299038e+001 7.500000e+000 1.690000e+002
      endloop
   endfacet
   facet normal -8.936031e-001 4.488580e-001 0.000000e+000
      outer loop
         vertex -1.299038e+001 7.500000e+000 1.690000e+002
         vertex -1.299038e+001 7.500000e+000 1.000000e+000
         vertex -1.409539e+001 5.130302e+000 1.000000e+000
      endloop
   endfacet
   facet normal -9.182422e-001 3.960194e-001 0.000000e+000
      outer loop
         vertex -1.299038e+001 7.500000e+000 1.690000e+002
         vertex -1.409539e+001 5.130302e+000 1.000000e+000
         vertex -1.409539e+001 5.130302e+000 1.690000e+002
      endloop
   endfacet
   facet normal -9.579706e-001 2.868663e-001 0.000000e+000
      outer loop
         vertex -1.409539e+001 5.130302e+000 1.690000e+002
         vertex -1.409539e+001 5.130302e+000 1.000000e+000
         vertex -1.477212e+001 2.604723e+000 1.000000e+000
      endloop
   endfacet
   facet normal -9.730600e-001 2.305519e-001 0.000000e+000
      outer loop
         vertex -1.409539e+001 5.130302e+000 1.690000e+002
         vertex -1.477212e+001 2.604723e+000 1.000000e+000
         vertex -1.477212e+001 2.604723e+000 1.690000e+002
      endloop
   endfacet
   facet normal -9.932307e-001 1.161583e-001 0.000000e+000
      outer loop
         vertex -1.477212e+001 2.604723e+000 1.690000e+002
         vertex -1.477212e+001 2.604723e+000 1.000000e+000
         vertex -1.500000e+001 0.000000e+000 1.000000e+000
      endloop
   endfacet
   facet normal 0.000000e+000 0.000000e+000 1.000000e+000
      outer loop
         vertex 8.999026e+000 1.072462e+001 1.700000e+002
         vertex 7.000000e+000 1.212436e+001 1.700000e+002
         vertex -1.072462e+001 -8.999026e+000 1.700000e+002
      endloop
   endfacet
   facet normal 0.000000e+000 0.000000e+000 1.000000e+000
      outer loop
         vertex -7.000000e+000 -1.212436e+001 1.700000e+002
         vertex -4.788282e+000 -1.315570e+001 1.700000e+002
         vertex 1.072462e+001 8.999026e+000 1.700000e+002
      endloop
   endfacet
   facet normal 0.000000e+000 0.000000e+000 1.000000e+000
      outer loop
         vertex 8.999026e+000 1.072462e+001 1.700000e+002
         vertex -1.072462e+001 -8.999026e+000 1.700000e+002
         vertex 1.072462e+001 8.999026e+000 1.700000e+002
      endloop
   endfacet
   facet normal 0.000000e+000 0.000000e+000 1.000000e+000
      outer loop
         vertex 1.072462e+001 8.999026e+000 1.700000e+002
         vertex -1.072462e+001 -8.999026e+000 1.700000e+002
         vertex -8.999026e+000 -1.072462e+001 1.700000e+002
      endloop
   endfacet
   facet normal 0.000000e+000 0.000000e+000 1.000000e+000
      outer loop
         vertex 1.072462e+001 8.999026e+000 1.700000e+002
         vertex -8.999026e+000 -1.072462e+001 1.700000e+002
         vertex -7.000000e+000 -1.212436e+001 1.700000e+002
      endloop
   endfacet
   facet normal 0.000000e+000 0.000000e+000 1.000000e+000
      outer loop
         vertex -4.788282e+000 -1.315570e+001 1.700000e+002
         vertex -2.431074e+000 -1.378731e+001 1.700000e+002
         vertex 1.072462e+001 8.999026e+000 1.700000e+002
      endloop
   endfacet
   facet normal 0.000000e+000 0.000000e+000 1.000000e+000
      outer loop
         vertex 1.072462e+001 8.999026e+000 1.700000e+002
         vertex -2.431074e+000 -1.378731e+001 1.700000e+002
         vertex 3.987525e-014 -1.400000e+001 1.700000e+002
      endloop
   endfacet
   facet normal 0.000000e+000 0.000000e+000 1.000000e+000
      outer loop
         vertex 1.072462e+001 8.999026e+000 1.700000e+002
         vertex 3.987525e-014 -1.400000e+001 1.700000e+002
         vertex 2.431074e+000 -1.378731e+001 1.700000e+002
      endloop
   endfacet
   facet normal 0.000000e+000 0.000000e+000 1.000000e+000
      outer loop
         vertex 1.315570e+001 -4.788282e+000 1.700000e+002
         vertex 1.378731e+001 -2.431074e+000 1.700000e+002
         vertex 1.072462e+001 8.999026e+000 1.700000e+002
      endloop
   endfacet
   facet normal 0.000000e+000 0.000000e+000 1.000000e+000
      outer loop
         vertex 1.072462e+001 8.999026e+000 1.700000e+002
         vertex 1.378731e+001 -2.431074e+000 1.700000e+002
         vertex 1.400000e+001 1.714506e-015 1.700000e+002
      endloop
   endfacet
   facet normal 0.000000e+000 0.000000e+000 1.000000e+000
      outer loop
         vertex 1.400000e+001 1.714506e-015 1.700000e+002
         vertex 1.378731e+001 2.431074e+000 1.700000e+002
         vertex 1.072462e+001 8.999026e+000 1.700000e+002
      endloop
   endfacet
   facet normal 0.000000e+000 0.000000e+000 1.000000e+000
      outer loop
         vertex 1.072462e+001 8.999026e+000 1.700000e+002
         vertex 1.378731e+001 2.431074e+000 1.700000e+002
         vertex 1.315570e+001 4.788282e+000 1.700000e+002
      endloop
   endfacet
   facet normal 0.000000e+000 0.000000e+000 1.000000e+000
      outer loop
         vertex 1.072462e+001 8.999026e+000 1.700000e+002
         vertex 1.315570e+001 4.788282e+000 1.700000e+002
         vertex 1.212436e+001 7.000000e+000 1.700000e+002
      endloop
   endfacet
   facet normal 0.000000e+000 0.000000e+000 1.000000e+000
      outer loop
         vertex 2.431074e+000 -1.378731e+001 1.700000e+002
         vertex 4.788282e+000 -1.315570e+001 1.700000e+002
         vertex 1.072462e+001 8.999026e+000 1.700000e+002
      endloop
   endfacet
   facet normal 0.000000e+000 0.000000e+000 1.000000e+000
      outer loop
         vertex 1.072462e+001 8.999026e+000 1.700000e+002
         vertex 4.788282e+000 -1.315570e+001 1.700000e+002
         vertex 7.000000e+000 -1.212436e+001 1.700000e+002
      endloop
   endfacet
   facet normal 0.000000e+000 0.000000e+000 1.000000e+000
      outer loop
         vertex 1.072462e+001 8.999026e+000 1.700000e+002
         vertex 7.000000e+000 -1.212436e+001 1.700000e+002
         vertex 8.999026e+000 -1.072462e+001 1.700000e+002
      endloop
   endfacet
   facet normal 0.000000e+000 0.000000e+000 1.000000e+000
      outer loop
         vertex 8.999026e+000 -1.072462e+001 1.700000e+002
         vertex 1.072462e+001 -8.999026e+000 1.700000e+002
         vertex 1.072462e+001 8.999026e+000 1.700000e+002
      endloop
   endfacet
   facet normal 0.000000e+000 0.000000e+000 1.000000e+000
      outer loop
         vertex 1.072462e+001 8.999026e+000 1.700000e+002
         vertex 1.072462e+001 -8.999026e+000 1.700000e+002
         vertex 1.212436e+001 -7.000000e+000 1.700000e+002
      endloop
   endfacet
   facet normal 0.000000e+000 0.000000e+000 1.000000e+000
      outer loop
         vertex 1.072462e+001 8.999026e+000 1.700000e+002
         vertex 1.212436e+001 -7.000000e+000 1.700000e+002
         vertex 1.315570e+001 -4.788282e+000 1.700000e+002
      endloop
   endfacet
   facet normal 0.000000e+000 0.000000e+000 1.000000e+000
      outer loop
         vertex 7.000000e+000 1.212436e+001 1.700000e+002
         vertex 4.788282e+000 1.315570e+001 1.700000e+002
         vertex -1.072462e+001 -8.999026e+000 1.700000e+002
      endloop
   endfacet
   facet normal 0.000000e+000 0.000000e+000 1.000000e+000
      outer loop
         vertex -1.072462e+001 -8.999026e+000 1.700000e+002
         vertex 4.788282e+000 1.315570e+001 1.700000e+002
         vertex 2.431074e+000 1.378731e+001 1.700000e+002
      endloop
   endfacet
   facet normal 0.000000e+000 0.000000e+000 1.000000e+000
      outer loop
         vertex -1.072462e+001 -8.999026e+000 1.700000e+002
         vertex 2.431074e+000 1.378731e+001 1.700000e+002
         vertex -8.572528e-016 1.400000e+001 1.700000e+002
      endloop
   endfacet
   facet normal 0.000000e+000 0.000000e+000 1.000000e+000
      outer loop
         vertex -8.572528e-016 1.400000e+001 1.700000e+002
         vertex -2.431074e+000 1.378731e+001 1.700000e+002
         vertex -1.072462e+001 -8.999026e+000 1.700000e+002
      endloop
   endfacet
   facet normal 0.000000e+000 0.000000e+000 1.000000e+000
      outer loop
         vertex -1.072462e+001 -8.999026e+000 1.700000e+002
         vertex -2.431074e+000 1.378731e+001 1.700000e+002
         vertex -4.788282e+000 1.315570e+001 1.700000e+002
      endloop
   endfacet
   facet normal 0.000000e+000 0.000000e+000 1.000000e+000
      outer loop
         vertex -1.072462e+001 -8.999026e+000 1.700000e+002
         vertex -4.788282e+000 1.315570e+001 1.700000e+002
         vertex -7.000000e+000 1.212436e+001 1.700000e+002
      endloop
   endfacet
   facet normal 0.000000e+000 0.000000e+000 1.000000e+000
      outer loop
         vertex -1.212436e+001 7.000000e+000 1.700000e+002
         vertex -1.315570e+001 4.788282e+000 1.700000e+002
         vertex -1.072462e+001 -8.999026e+000 1.700000e+002
      endloop
   endfacet
   facet normal 0.000000e+000 0.000000e+000 1.000000e+000
      outer loop
         vertex -1.072462e+001 -8.999026e+000 1.700000e+002
         vertex -1.315570e+001 4.788282e+000 1.700000e+002
         vertex -1.378731e+001 2.431074e+000 1.700000e+002
      endloop
   endfacet
   facet normal 0.000000e+000 0.000000e+000 1.000000e+000
      outer loop
         vertex -1.072462e+001 -8.999026e+000 1.700000e+002
         vertex -1.378731e+001 2.431074e+000 1.700000e+002
         vertex -1.212436e+001 -7.000000e+000 1.700000e+002
      endloop
   endfacet
   facet normal 0.000000e+000 0.000000e+000 1.000000e+000
      outer loop
         vertex -7.000000e+000 1.212436e+001 1.700000e+002
         vertex -8.999026e+000 1.072462e+001 1.700000e+002
         vertex -1.072462e+001 -8.999026e+000 1.700000e+002
      endloop
   endfacet
   facet normal 0.000000e+000 0.000000e+000 1.000000e+000
      outer loop
         vertex -1.072462e+001 -8.999026e+000 1.700000e+002
         vertex -8.999026e+000 1.072462e+001 1.700000e+002
         vertex -1.072462e+001 8.999026e+000 1.700000e+002
      endloop
   endfacet
   facet normal 0.000000e+000 0.000000e+000 1.000000e+000
      outer loop
         vertex -1.072462e+001 -8.999026e+000 1.700000e+002
         vertex -1.072462e+001 8.999026e+000 1.700000e+002
         vertex -1.212436e+001 7.000000e+000 1.700000e+002
      endloop
   endfacet
   facet normal 0.000000e+000 0.000000e+000 1.000000e+000
      outer loop
         vertex -1.400000e+001 0.000000e+000 1.700000e+002
         vertex -1.378731e+001 -2.431074e+000 1.700000e+002
         vertex -1.378731e+001 2.431074e+000 1.700000e+002
      endloop
   endfacet
   facet normal 0.000000e+000 0.000000e+000 1.000000e+000
      outer loop
         vertex -1.378731e+001 2.431074e+000 1.700000e+002
         vertex -1.378731e+001 -2.431074e+000 1.700000e+002
         vertex -1.315570e+001 -4.788282e+000 1.700000e+002
      endloop
   endfacet
   facet normal 0.000000e+000 0.000000e+000 1.000000e+000
      outer loop
         vertex -1.378731e+001 2.431074e+000 1.700000e+002
         vertex -1.315570e+001 -4.788282e+000 1.700000e+002
         vertex -1.212436e+001 -7.000000e+000 1.700000e+002
      endloop
   endfacet
   facet normal 0.000000e+000 0.000000e+000 -1.000000e+000
      outer loop
         vertex -8.999026e+000 1.072462e+001 0.000000e+000
         vertex -7.000000e+000 1.212436e+001 0.000000e+000
         vertex 1.072462e+001 -8.999026e+000 0.000000e+000
      endloop
   endfacet
   facet normal 0.000000e+000 0.000000e+000 -1.000000e+000
      outer loop
         vertex 8.999026e+000 -1.072462e+001 0.000000e+000
         vertex -1.315570e+001 -4.788282e+000 0.000000e+000
         vertex 1.072462e+001 -8.999026e+000 0.000000e+000
      endloop
   endfacet
   facet normal 0.000000e+000 0.000000e+000 -1.000000e+000
      outer loop
         vertex 1.072462e+001 -8.999026e+000 0.000000e+000
         vertex -1.315570e+001 -4.788282e+000 0.000000e+000
         vertex -1.378731e+001 -2.431074e+000 0.000000e+000
      endloop
   endfacet
   facet normal 0.000000e+000 0.000000e+000 -1.000000e+000
      outer loop
         vertex -1.378731e+001 -2.431074e+000 0.000000e+000
         vertex -1.400000e+001 2.036625e-014 0.000000e+000
         vertex 1.072462e+001 -8.999026e+000 0.000000e+000
      endloop
   endfacet
   facet normal 0.000000e+000 0.000000e+000 -1.000000e+000
      outer loop
         vertex 1.072462e+001 -8.999026e+000 0.000000e+000
         vertex -1.400000e+001 2.036625e-014 0.000000e+000
         vertex -1.378731e+001 2.431074e+000 0.000000e+000
      endloop
   endfacet
   facet normal 0.000000e+000 0.000000e+000 -1.000000e+000
      outer loop
         vertex 1.072462e+001 -8.999026e+000 0.000000e+000
         vertex -1.378731e+001 2.431074e+000 0.000000e+000
         vertex -1.315570e+001 4.788282e+000 0.000000e+000
      endloop
   endfacet
   facet normal 0.000000e+000 0.000000e+000 -1.000000e+000
      outer loop
         vertex -1.315570e+001 4.788282e+000 0.000000e+000
         vertex -1.212436e+001 7.000000e+000 0.000000e+000
         vertex 1.072462e+001 -8.999026e+000 0.000000e+000
      endloop
   endfacet
   facet normal 0.000000e+000 0.000000e+000 -1.000000e+000
      outer loop
         vertex 1.072462e+001 -8.999026e+000 0.000000e+000
         vertex -1.212436e+001 7.000000e+000 0.000000e+000
         vertex -1.072462e+001 8.999026e+000 0.000000e+000
      endloop
   endfacet
   facet normal 0.000000e+000 0.000000e+000 -1.000000e+000
      outer loop
         vertex 1.072462e+001 -8.999026e+000 0.000000e+000
         vertex -1.072462e+001 8.999026e+000 0.000000e+000
         vertex -8.999026e+000 1.072462e+001 0.000000e+000
      endloop
   endfacet
   facet normal 0.000000e+000 0.000000e+000 -1.000000e+000
      outer loop
         vertex -7.000000e+000 1.212436e+001 0.000000e+000
         vertex -4.788282e+000 1.315570e+001 0.000000e+000
         vertex 1.072462e+001 -8.999026e+000 0.000000e+000
      endloop
   endfacet
   facet normal 0.000000e+000 0.000000e+000 -1.000000e+000
      outer loop
         vertex 1.072462e+001 -8.999026e+000 0.000000e+000
         vertex -4.788282e+000 1.315570e+001 0.000000e+000
         vertex -2.431074e+000 1.378731e+001 0.000000e+000
      endloop
   endfacet
   facet normal 0.000000e+000 0.000000e+000 -1.000000e+000
      outer loop
         vertex 1.072462e+001 -8.999026e+000 0.000000e+000
         vertex -2.431074e+000 1.378731e+001 0.000000e+000
         vertex 8.572528e-016 1.400000e+001 0.000000e+000
      endloop
   endfacet
   facet normal 0.000000e+000 0.000000e+000 -1.000000e+000
      outer loop
         vertex 8.999026e+000 -1.072462e+001 0.000000e+000
         vertex 7.000000e+000 -1.212436e+001 0.000000e+000
         vertex -1.315570e+001 -4.788282e+000 0.000000e+000
      endloop
   endfacet
   facet normal 0.000000e+000 0.000000e+000 -1.000000e+000
      outer loop
         vertex -1.315570e+001 -4.788282e+000 0.000000e+000
         vertex 7.000000e+000 -1.212436e+001 0.000000e+000
         vertex 4.788282e+000 -1.315570e+001 0.000000e+000
      endloop
   endfacet
   facet normal 0.000000e+000 0.000000e+000 -1.000000e+000
      outer loop
         vertex -1.315570e+001 -4.788282e+000 0.000000e+000
         vertex 4.788282e+000 -1.315570e+001 0.000000e+000
         vertex 2.431074e+000 -1.378731e+001 0.000000e+000
      endloop
   endfacet
   facet normal 0.000000e+000 0.000000e+000 -1.000000e+000
      outer loop
         vertex 8.572528e-016 1.400000e+001 0.000000e+000
         vertex 2.431074e+000 1.378731e+001 0.000000e+000
         vertex 1.072462e+001 -8.999026e+000 0.000000e+000
      endloop
   endfacet
   facet normal 0.000000e+000 0.000000e+000 -1.000000e+000
      outer loop
         vertex 1.072462e+001 -8.999026e+000 0.000000e+000
         vertex 2.431074e+000 1.378731e+001 0.000000e+000
         vertex 4.788282e+000 1.315570e+001 0.000000e+000
      endloop
   endfacet
   facet normal 0.000000e+000 0.000000e+000 -1.000000e+000
      outer loop
         vertex 1.072462e+001 -8.999026e+000 0.000000e+000
         vertex 4.788282e+000 1.315570e+001 0.000000e+000
         vertex 7.000000e+000 1.212436e+001 0.000000e+000
      endloop
   endfacet
   facet normal 0.000000e+000 0.000000e+000 -1.000000e+000
      outer loop
         vertex 1.315570e+001 -4.788282e+000 0.000000e+000
         vertex 1.378731e+001 2.431074e+000 0.000000e+000
         vertex 1.378731e+001 -2.431074e+000 0.000000e+000
      endloop
   endfacet
   facet normal 0.000000e+000 0.000000e+000 -1.000000e+000
      outer loop
         vertex 1.378731e+001 -2.431074e+000 0.000000e+000
         vertex 1.378731e+001 2.431074e+000 0.000000e+000
         vertex 1.400000e+001 0.000000e+000 0.000000e+000
      endloop
   endfacet
   facet normal 0.000000e+000 0.000000e+000 -1.000000e+000
      outer loop
         vertex 1.212436e+001 7.000000e+000 0.000000e+000
         vertex 1.315570e+001 4.788282e+000 0.000000e+000
         vertex 1.072462e+001 -8.999026e+000 0.000000e+000
      endloop
   endfacet
   facet normal 0.000000e+000 0.000000e+000 -1.000000e+000
      outer loop
         vertex 1.072462e+001 -8.999026e+000 0.000000e+000
         vertex 1.315570e+001 4.788282e+000 0.000000e+000
         vertex 1.378731e+001 2.431074e+000 0.000000e+000
      endloop
   endfacet
   facet normal 0.000000e+000 0.000000e+000 -1.000000e+000
      outer loop
         vertex 1.072462e+001 -8.999026e+000 0.000000e+000
         vertex 1.378731e+001 2.431074e+000 0.000000e+000
         vertex 1.212436e+001 -7.000000e+000 0.000000e+000
      endloop
   endfacet
   facet normal 0.000000e+000 0.000000e+000 -1.000000e+000
      outer loop
         vertex 1.212436e+001 -7.000000e+000 0.000000e+000
         vertex 1.378731e+001 2.431074e+000 0.000000e+000
         vertex 1.315570e+001 -4.788282e+000 0.000000e+000
      endloop
   endfacet
   facet normal 0.000000e+000 0.000000e+000 -1.000000e+000
      outer loop
         vertex 2.431074e+000 -1.378731e+001 0.000000e+000
         vertex -3.987525e-014 -1.400000e+001 0.000000e+000
         vertex -1.315570e+001 -4.788282e+000 0.000000e+000
      endloop
   endfacet
   facet normal 0.000000e+000 0.000000e+000 -1.000000e+000
      outer loop
         vertex -1.315570e+001 -4.788282e+000 0.000000e+000
         vertex -3.987525e-014 -1.400000e+001 0.000000e+000
         vertex -2.431074e+000 -1.378731e+001 0.000000e+000
      endloop
   endfacet
   facet normal 0.000000e+000 0.000000e+000 -1.000000e+000
      outer loop
         vertex -1.315570e+001 -4.788282e+000 0.000000e+000
         vertex -2.431074e+000 -1.378731e+001 0.000000e+000
         vertex -4.788282e+000 -1.315570e+001 0.000000e+000
      endloop
   endfacet
   facet normal 0.000000e+000 0.000000e+000 -1.000000e+000
      outer loop
         vertex -4.788282e+000 -1.315570e+001 0.000000e+000
         vertex -7.000000e+000 -1.212436e+001 0.000000e+000
         vertex -1.315570e+001 -4.788282e+000 0.000000e+000
      endloop
   endfacet
   facet normal 0.000000e+000 0.000000e+000 -1.000000e+000
      outer loop
         vertex -1.315570e+001 -4.788282e+000 0.000000e+000
         vertex -7.000000e+000 -1.212436e+001 0.000000e+000
         vertex -8.999026e+000 -1.072462e+001 0.000000e+000
      endloop
   endfacet
   facet normal 0.000000e+000 0.000000e+000 -1.000000e+000
      outer loop
         vertex -1.315570e+001 -4.788282e+000 0.000000e+000
         vertex -8.999026e+000 -1.072462e+001 0.000000e+000
         vertex -1.212436e+001 -7.000000e+000 0.000000e+000
      endloop
   endfacet
   facet normal 0.000000e+000 0.000000e+000 -1.000000e+000
      outer loop
         vertex -1.212436e+001 -7.000000e+000 0.000000e+000
         vertex -8.999026e+000 -1.072462e+001 0.000000e+000
         vertex -1.072462e+001 -8.999026e+000 0.000000e+000
      endloop
   endfacet
   facet normal 0.000000e+000 0.000000e+000 -1.000000e+000
      outer loop
         vertex 7.000000e+000 1.212436e+001 0.000000e+000
         vertex 8.999026e+000 1.072462e+001 0.000000e+000
         vertex 1.072462e+001 -8.999026e+000 0.000000e+000
      endloop
   endfacet
   facet normal 0.000000e+000 0.000000e+000 -1.000000e+000
      outer loop
         vertex 1.072462e+001 -8.999026e+000 0.000000e+000
         vertex 8.999026e+000 1.072462e+001 0.000000e+000
         vertex 1.072462e+001 8.999026e+000 0.000000e+000
      endloop
   endfacet
   facet normal 0.000000e+000 0.000000e+000 -1.000000e+000
      outer loop
         vertex 1.072462e+001 -8.999026e+000 0.000000e+000
         vertex 1.072462e+001 8.999026e+000 0.000000e+000
         vertex 1.212436e+001 7.000000e+000 0.000000e+000
      endloop
   endfacet
   facet normal 6.868910e-001 1.627484e-001 -7.083035e-001
      outer loop
         vertex 1.477212e+001 2.604723e+000 1.000000e+000
         vertex 1.378731e+001 2.431074e+000 0.000000e+000
         vertex 1.409539e+001 5.130302e+000 1.000000e+000
      endloop
   endfacet
   facet normal 6.762393e-001 2.025012e-001 -7.083035e-001
      outer loop
         vertex 1.409539e+001 5.130302e+000 1.000000e+000
         vertex 1.378731e+001 2.431074e+000 0.000000e+000
         vertex 1.315570e+001 4.788282e+000 0.000000e+000
      endloop
   endfacet
   facet normal 6.481946e-001 2.795533e-001 -7.083035e-001
      outer loop
         vertex 1.409539e+001 5.130302e+000 1.000000e+000
         vertex 1.315570e+001 4.788282e+000 0.000000e+000
         vertex 1.299038e+001 7.500000e+000 1.000000e+000
      endloop
   endfacet
   facet normal 6.308017e-001 3.168525e-001 -7.083035e-001
      outer loop
         vertex 1.299038e+001 7.500000e+000 1.000000e+000
         vertex 1.315570e+001 4.788282e+000 0.000000e+000
         vertex 1.212436e+001 7.000000e+000 0.000000e+000
      endloop
   endfacet
   facet normal 5.898032e-001 3.878640e-001 -7.083035e-001
      outer loop
         vertex 1.299038e+001 7.500000e+000 1.000000e+000
         vertex 1.212436e+001 7.000000e+000 0.000000e+000
         vertex 1.149067e+001 9.641814e+000 1.000000e+000
      endloop
   endfacet
   facet normal 5.661975e-001 4.215763e-001 -7.083034e-001
      outer loop
         vertex 1.149067e+001 9.641814e+000 1.000000e+000
         vertex 1.212436e+001 7.000000e+000 0.000000e+000
         vertex 1.072462e+001 8.999026e+000 0.000000e+000
      endloop
   endfacet
   facet normal 5.134909e-001 4.843898e-001 -7.083035e-001
      outer loop
         vertex 1.149067e+001 9.641814e+000 1.000000e+000
         vertex 1.072462e+001 8.999026e+000 0.000000e+000
         vertex 9.641814e+000 1.149067e+001 1.000000e+000
      endloop
   endfacet
   facet normal 4.843898e-001 5.134908e-001 -7.083034e-001
      outer loop
         vertex 9.641814e+000 1.149067e+001 1.000000e+000
         vertex 1.072462e+001 8.999026e+000 0.000000e+000
         vertex 8.999026e+000 1.072462e+001 0.000000e+000
      endloop
   endfacet
   facet normal 4.215764e-001 5.661975e-001 -7.083035e-001
      outer loop
         vertex 9.641814e+000 1.149067e+001 1.000000e+000
         vertex 8.999026e+000 1.072462e+001 0.000000e+000
         vertex 7.500000e+000 1.299038e+001 1.000000e+000
      endloop
   endfacet
   facet normal 3.878640e-001 5.898032e-001 -7.083035e-001
      outer loop
         vertex 7.500000e+000 1.299038e+001 1.000000e+000
         vertex 8.999026e+000 1.072462e+001 0.000000e+000
         vertex 7.000000e+000 1.212436e+001 0.000000e+000
      endloop
   endfacet
   facet normal 3.168525e-001 6.308017e-001 -7.083034e-001
      outer loop
         vertex 7.500000e+000 1.299038e+001 1.000000e+000
         vertex 7.000000e+000 1.212436e+001 0.000000e+000
         vertex 5.130302e+000 1.409539e+001 1.000000e+000
      endloop
   endfacet
   facet normal 2.795533e-001 6.481946e-001 -7.083035e-001
      outer loop
         vertex 5.130302e+000 1.409539e+001 1.000000e+000
         vertex 7.000000e+000 1.212436e+001 0.000000e+000
         vertex 4.788282e+000 1.315570e+001 0.000000e+000
      endloop
   endfacet
   facet normal 2.025012e-001 6.762393e-001 -7.083035e-001
      outer loop
         vertex 5.130302e+000 1.409539e+001 1.000000e+000
         vertex 4.788282e+000 1.315570e+001 0.000000e+000
         vertex 2.604723e+000 1.477212e+001 1.000000e+000
      endloop
   endfacet
   facet normal 1.627484e-001 6.868910e-001 -7.083035e-001
      outer loop
         vertex 2.604723e+000 1.477212e+001 1.000000e+000
         vertex 4.788282e+000 1.315570e+001 0.000000e+000
         vertex 2.431074e+000 1.378731e+001 0.000000e+000
      endloop
   endfacet
   facet normal 8.199707e-002 7.011296e-001 -7.083035e-001
      outer loop
         vertex 2.604723e+000 1.477212e+001 1.000000e+000
         vertex 2.431074e+000 1.378731e+001 0.000000e+000
         vertex 2.081668e-015 1.500000e+001 1.000000e+000
      endloop
   endfacet
   facet normal 4.099853e-002 7.047165e-001 -7.083034e-001
      outer loop
         vertex 2.081668e-015 1.500000e+001 1.000000e+000
         vertex 2.431074e+000 1.378731e+001 0.000000e+000
         vertex 1.942890e-015 1.400000e+001 0.000000e+000
      endloop
   endfacet
   facet normal -4.099853e-002 7.047165e-001 -7.083034e-001
      outer loop
         vertex 2.081668e-015 1.500000e+001 1.000000e+000
         vertex 1.942890e-015 1.400000e+001 0.000000e+000
         vertex -2.604723e+000 1.477212e+001 1.000000e+000
      endloop
   endfacet
   facet normal -8.199707e-002 7.011296e-001 -7.083035e-001
      outer loop
         vertex -2.604723e+000 1.477212e+001 1.000000e+000
         vertex 1.942890e-015 1.400000e+001 0.000000e+000
         vertex -2.431074e+000 1.378731e+001 0.000000e+000
      endloop
   endfacet
   facet normal -1.627484e-001 6.868910e-001 -7.083035e-001
      outer loop
         vertex -2.604723e+000 1.477212e+001 1.000000e+000
         vertex -2.431074e+000 1.378731e+001 0.000000e+000
         vertex -5.130302e+000 1.409539e+001 1.000000e+000
      endloop
   endfacet
   facet normal -2.025012e-001 6.762393e-001 -7.083035e-001
      outer loop
         vertex -5.130302e+000 1.409539e+001 1.000000e+000
         vertex -2.431074e+000 1.378731e+001 0.000000e+000
         vertex -4.788282e+000 1.315570e+001 0.000000e+000
      endloop
   endfacet
   facet normal -2.795533e-001 6.481946e-001 -7.083035e-001
      outer loop
         vertex -5.130302e+000 1.409539e+001 1.000000e+000
         vertex -4.788282e+000 1.315570e+001 0.000000e+000
         vertex -7.500000e+000 1.299038e+001 1.000000e+000
      endloop
   endfacet
   facet normal -3.168525e-001 6.308017e-001 -7.083035e-001
      outer loop
         vertex -7.500000e+000 1.299038e+001 1.000000e+000
         vertex -4.788282e+000 1.315570e+001 0.000000e+000
         vertex -7.000000e+000 1.212436e+001 0.000000e+000
      endloop
   endfacet
   facet normal -3.878640e-001 5.898032e-001 -7.083035e-001
      outer loop
         vertex -7.500000e+000 1.299038e+001 1.000000e+000
         vertex -7.000000e+000 1.212436e+001 0.000000e+000
         vertex -9.641814e+000 1.149067e+001 1.000000e+000
      endloop
   endfacet
   facet normal -4.215763e-001 5.661975e-001 -7.083034e-001
      outer loop
         vertex -9.641814e+000 1.149067e+001 1.000000e+000
         vertex -7.000000e+000 1.212436e+001 0.000000e+000
         vertex -8.999026e+000 1.072462e+001 0.000000e+000
      endloop
   endfacet
   facet normal -4.843898e-001 5.134909e-001 -7.083035e-001
      outer loop
         vertex -9.641814e+000 1.149067e+001 1.000000e+000
         vertex -8.999026e+000 1.072462e+001 0.000000e+000
         vertex -1.149067e+001 9.641814e+000 1.000000e+000
      endloop
   endfacet
   facet normal -5.134908e-001 4.843898e-001 -7.083034e-001
      outer loop
         vertex -1.149067e+001 9.641814e+000 1.000000e+000
         vertex -8.999026e+000 1.072462e+001 0.000000e+000
         vertex -1.072462e+001 8.999026e+000 0.000000e+000
      endloop
   endfacet
   facet normal -5.661975e-001 4.215764e-001 -7.083035e-001
      outer loop
         vertex -1.149067e+001 9.641814e+000 1.000000e+000
         vertex -1.072462e+001 8.999026e+000 0.000000e+000
         vertex -1.299038e+001 7.500000e+000 1.000000e+000
      endloop
   endfacet
   facet normal -5.898032e-001 3.878640e-001 -7.083035e-001
      outer loop
         vertex -1.299038e+001 7.500000e+000 1.000000e+000
         vertex -1.072462e+001 8.999026e+000 0.000000e+000
         vertex -1.212436e+001 7.000000e+000 0.000000e+000
      endloop
   endfacet
   facet normal -6.308017e-001 3.168525e-001 -7.083034e-001
      outer loop
         vertex -1.299038e+001 7.500000e+000 1.000000e+000
         vertex -1.212436e+001 7.000000e+000 0.000000e+000
         vertex -1.409539e+001 5.130302e+000 1.000000e+000
      endloop
   endfacet
   facet normal -6.481946e-001 2.795533e-001 -7.083035e-001
      outer loop
         vertex -1.409539e+001 5.130302e+000 1.000000e+000
         vertex -1.212436e+001 7.000000e+000 0.000000e+000
         vertex -1.315570e+001 4.788282e+000 0.000000e+000
      endloop
   endfacet
   facet normal -6.762393e-001 2.025012e-001 -7.083035e-001
      outer loop
         vertex -1.409539e+001 5.130302e+000 1.000000e+000
         vertex -1.315570e+001 4.788282e+000 0.000000e+000
         vertex -1.477212e+001 2.604723e+000 1.000000e+000
      endloop
   endfacet
   facet normal -6.868910e-001 1.627484e-001 -7.083035e-001
      outer loop
         vertex -1.477212e+001 2.604723e+000 1.000000e+000
         vertex -1.315570e+001 4.788282e+000 0.000000e+000
         vertex -1.378731e+001 2.431074e+000 0.000000e+000
      endloop
   endfacet
   facet normal -7.011296e-001 8.199707e-002 -7.083035e-001
      outer loop
         vertex -1.477212e+001 2.604723e+000 1.000000e+000
         vertex -1.378731e+001 2.431074e+000 0.000000e+000
         vertex -1.500000e+001 2.914335e-015 1.000000e+000
      endloop
   endfacet
   facet normal -7.047165e-001 4.099853e-002 -7.083034e-001
      outer loop
         vertex -1.500000e+001 2.914335e-015 1.000000e+000
         vertex -1.378731e+001 2.431074e+000 0.000000e+000
         vertex -1.400000e+001 2.720046e-015 0.000000e+000
      endloop
   endfacet
   facet normal -7.047165e-001 -4.099853e-002 -7.083034e-001
      outer loop
         vertex -1.500000e+001 2.914335e-015 1.000000e+000
         vertex -1.400000e+001 2.720046e-015 0.000000e+000
         vertex -1.477212e+001 -2.604723e+000 1.000000e+000
      endloop
   endfacet
   facet normal -7.011296e-001 -8.199707e-002 -7.083035e-001
      outer loop
         vertex -1.477212e+001 -2.604723e+000 1.000000e+000
         vertex -1.400000e+001 2.720046e-015 0.000000e+000
         vertex -1.378731e+001 -2.431074e+000 0.000000e+000
      endloop
   endfacet
   facet normal -6.868910e-001 -1.627484e-001 -7.083035e-001
      outer loop
         vertex -1.477212e+001 -2.604723e+000 1.000000e+000
         vertex -1.378731e+001 -2.431074e+000 0.000000e+000
         vertex -1.409539e+001 -5.130302e+000 1.000000e+000
      endloop
   endfacet
   facet normal -6.762393e-001 -2.025012e-001 -7.083035e-001
      outer loop
         vertex -1.409539e+001 -5.130302e+000 1.000000e+000
         vertex -1.378731e+001 -2.431074e+000 0.000000e+000
         vertex -1.315570e+001 -4.788282e+000 0.000000e+000
      endloop
   endfacet
   facet normal -6.481946e-001 -2.795533e-001 -7.083035e-001
      outer loop
         vertex -1.409539e+001 -5.130302e+000 1.000000e+000
         vertex -1.315570e+001 -4.788282e+000 0.000000e+000
         vertex -1.299038e+001 -7.500000e+000 1.000000e+000
      endloop
   endfacet
   facet normal -6.308017e-001 -3.168525e-001 -7.083035e-001
      outer loop
         vertex -1.299038e+001 -7.500000e+000 1.000000e+000
         vertex -1.315570e+001 -4.788282e+000 0.000000e+000
         vertex -1.212436e+001 -7.000000e+000 0.000000e+000
      endloop
   endfacet
   facet normal -5.898032e-001 -3.878640e-001 -7.083035e-001
      outer loop
         vertex -1.299038e+001 -7.500000e+000 1.000000e+000
         vertex -1.212436e+001 -7.000000e+000 0.000000e+000
         vertex -1.149067e+001 -9.641814e+000 1.000000e+000
      endloop
   endfacet
   facet normal -5.661975e-001 -4.215763e-001 -7.083034e-001
      outer loop
         vertex -1.149067e+001 -9.641814e+000 1.000000e+000
         vertex -1.212436e+001 -7.000000e+000 0.000000e+000
         vertex -1.072462e+001 -8.999026e+000 0.000000e+000
      endloop
   endfacet
   facet normal -5.134909e-001 -4.843898e-001 -7.083035e-001
      outer loop
         vertex -1.149067e+001 -9.641814e+000 1.000000e+000
         vertex -1.072462e+001 -8.999026e+000 0.000000e+000
         vertex -9.641814e+000 -1.149067e+001 1.000000e+000
      endloop
   endfacet
   facet normal -4.843898e-001 -5.134908e-001 -7.083034e-001
      outer loop
         vertex -9.641814e+000 -1.149067e+001 1.000000e+000
         vertex -1.072462e+001 -8.999026e+000 0.000000e+000
         vertex -8.999026e+000 -1.072462e+001 0.000000e+000
      endloop
   endfacet
   facet normal -4.215764e-001 -5.661975e-001 -7.083035e-001
      outer loop
         vertex -9.641814e+000 -1.149067e+001 1.000000e+000
         vertex -8.999026e+000 -1.072462e+001 0.000000e+000
         vertex -7.500000e+000 -1.299038e+001 1.000000e+000
      endloop
   endfacet
   facet normal -3.878640e-001 -5.898032e-001 -7.083035e-001
      outer loop
         vertex -7.500000e+000 -1.299038e+001 1.000000e+000
         vertex -8.999026e+000 -1.072462e+001 0.000000e+000
         vertex -7.000000e+000 -1.212436e+001 0.000000e+000
      endloop
   endfacet
   facet normal -3.168525e-001 -6.308017e-001 -7.083034e-001
      outer loop
         vertex -7.500000e+000 -1.299038e+001 1.000000e+000
         vertex -7.000000e+000 -1.212436e+001 0.000000e+000
         vertex -5.130302e+000 -1.409539e+001 1.000000e+000
      endloop
   endfacet
   facet normal -2.795533e-001 -6.481946e-001 -7.083035e-001
      outer loop
         vertex -5.130302e+000 -1.409539e+001 1.000000e+000
         vertex -7.000000e+000 -1.212436e+001 0.000000e+000
         vertex -4.788282e+000 -1.315570e+001 0.000000e+000
      endloop
   endfacet
   facet normal -2.025012e-001 -6.762393e-001 -7.083035e-001
      outer loop
         vertex -5.130302e+000 -1.409539e+001 1.000000e+000
         vertex -4.788282e+000 -1.315570e+001 0.000000e+000
         vertex -2.604723e+000 -1.477212e+001 1.000000e+000
      endloop
   endfacet
   facet normal -1.627484e-001 -6.868910e-001 -7.083035e-001
      outer loop
         vertex -2.604723e+000 -1.477212e+001 1.000000e+000
         vertex -4.788282e+000 -1.315570e+001 0.000000e+000
         vertex -2.431074e+000 -1.378731e+001 0.000000e+000
      endloop
   endfacet
   facet normal -8.199707e-002 -7.011296e-001 -7.083035e-001
      outer loop
         vertex -2.604723e+000 -1.477212e+001 1.000000e+000
         vertex -2.431074e+000 -1.378731e+001 0.000000e+000
         vertex -2.081668e-015 -1.500000e+001 1.000000e+000
      endloop
   endfacet
   facet normal -4.099853e-002 -7.047165e-001 -7.083034e-001
      outer loop
         vertex -2.081668e-015 -1.500000e+001 1.000000e+000
         vertex -2.431074e+000 -1.378731e+001 0.000000e+000
         vertex -1.942890e-015 -1.400000e+001 0.000000e+000
      endloop
   endfacet
   facet normal 4.099853e-002 -7.047165e-001 -7.083034e-001
      outer loop
         vertex -2.081668e-015 -1.500000e+001 1.000000e+000
         vertex -1.942890e-015 -1.400000e+001 0.000000e+000
         vertex 2.604723e+000 -1.477212e+001 1.000000e+000
      endloop
   endfacet
   facet normal 8.199707e-002 -7.011296e-001 -7.083035e-001
      outer loop
         vertex 2.604723e+000 -1.477212e+001 1.000000e+000
         vertex -1.942890e-015 -1.400000e+001 0.000000e+000
         vertex 2.431074e+000 -1.378731e+001 0.000000e+000
      endloop
   endfacet
   facet normal 1.627484e-001 -6.868910e-001 -7.083035e-001
      outer loop
         vertex 2.604723e+000 -1.477212e+001 1.000000e+000
         vertex 2.431074e+000 -1.378731e+001 0.000000e+000
         vertex 5.130302e+000 -1.409539e+001 1.000000e+000
      endloop
   endfacet
   facet normal 2.025012e-001 -6.762393e-001 -7.083035e-001
      outer loop
         vertex 5.130302e+000 -1.409539e+001 1.000000e+000
         vertex 2.431074e+000 -1.378731e+001 0.000000e+000
         vertex 4.788282e+000 -1.315570e+001 0.000000e+000
      endloop
   endfacet
   facet normal 2.795533e-001 -6.481946e-001 -7.083035e-001
      outer loop
         vertex 5.130302e+000 -1.409539e+001 1.000000e+000
         vertex 4.788282e+000 -1.315570e+001 0.000000e+000
         vertex 7.500000e+000 -1.299038e+001 1.000000e+000
      endloop
   endfacet
   facet normal 3.168525e-001 -6.308017e-001 -7.083035e-001
      outer loop
         vertex 7.500000e+000 -1.299038e+001 1.000000e+000
         vertex 4.788282e+000 -1.315570e+001 0.000000e+000
         vertex 7.000000e+000 -1.212436e+001 0.000000e+000
      endloop
   endfacet
   facet normal 3.878640e-001 -5.898032e-001 -7.083035e-001
      outer loop
         vertex 7.500000e+000 -1.299038e+001 1.000000e+000
         vertex 7.000000e+000 -1.212436e+001 0.000000e+000
         vertex 9.641814e+000 -1.149067e+001 1.000000e+000
      endloop
   endfacet
   facet normal 4.215763e-001 -5.661975e-001 -7.083034e-001
      outer loop
         vertex 9.641814e+000 -1.149067e+001 1.000000e+000
         vertex 7.000000e+000 -1.212436e+001 0.000000e+000
         vertex 8.999026e+000 -1.072462e+001 0.000000e+000
      endloop
   endfacet
   facet normal 4.843898e-001 -5.134909e-001 -7.083035e-001
      outer loop
         vertex 9.641814e+000 -1.149067e+001 1.000000e+000
         vertex 8.999026e+000 -1.072462e+001 0.000000e+000
         vertex 1.149067e+001 -9.641814e+000 1.000000e+000
      endloop
   endfacet
   facet normal 5.134908e-001 -4.843898e-001 -7.083034e-001
      outer loop
         vertex 1.149067e+001 -9.641814e+000 1.000000e+000
         vertex 8.999026e+000 -1.072462e+001 0.000000e+000
         vertex 1.072462e+001 -8.999026e+000 0.000000e+000
      endloop
   endfacet
   facet normal 5.661975e-001 -4.215764e-001 -7.083035e-001
      outer loop
         vertex 1.149067e+001 -9.641814e+000 1.000000e+000
         vertex 1.072462e+001 -8.999026e+000 0.000000e+000
         vertex 1.299038e+001 -7.500000e+000 1.000000e+000
      endloop
   endfacet
   facet normal 5.898032e-001 -3.878640e-001 -7.083035e-001
      outer loop
         vertex 1.299038e+001 -7.500000e+000 1.000000e+000
         vertex 1.072462e+001 -8.999026e+000 0.000000e+000
         vertex 1.212436e+001 -7.000000e+000 0.000000e+000
      endloop
   endfacet
   facet normal 6.308017e-001 -3.168525e-001 -7.083034e-001
      outer loop
         vertex 1.299038e+001 -7.500000e+000 1.000000e+000
         vertex 1.212436e+001 -7.000000e+000 0.000000e+000
         vertex 1.409539e+001 -5.130302e+000 1.000000e+000
      endloop
   endfacet
   facet normal 6.481946e-001 -2.795533e-001 -7.083035e-001
      outer loop
         vertex 1.409539e+001 -5.130302e+000 1.000000e+000
         vertex 1.212436e+001 -7.000000e+000 0.000000e+000
         vertex 1.315570e+001 -4.788282e+000 0.000000e+000
      endloop
   endfacet
   facet normal 6.762393e-001 -2.025012e-001 -7.083035e-001
      outer loop
         vertex 1.409539e+001 -5.130302e+000 1.000000e+000
         vertex 1.315570e+001 -4.788282e+000 0.000000e+000
         vertex 1.477212e+001 -2.604723e+000 1.000000e+000
      endloop
   endfacet
   facet normal 6.868910e-001 -1.627484e-001 -7.083035e-001
      outer loop
         vertex 1.477212e+001 -2.604723e+000 1.000000e+000
         vertex 1.315570e+001 -4.788282e+000 0.000000e+000
         vertex 1.378731e+001 -2.431074e+000 0.000000e+000
      endloop
   endfacet
   facet normal 7.011296e-001 -8.199707e-002 -7.083035e-001
      outer loop
         vertex 1.477212e+001 -2.604723e+000 1.000000e+000
         vertex 1.378731e+001 -2.431074e+000 0.000000e+000
         vertex 1.500000e+001 0.000000e+000 1.000000e+000
      endloop
   endfacet
   facet normal 7.047165e-001 -4.099853e-002 -7.083034e-001
      outer loop
         vertex 1.500000e+001 0.000000e+000 1.000000e+000
         vertex 1.378731e+001 -2.431074e+000 0.000000e+000
         vertex 1.400000e+001 0.000000e+000 0.000000e+000
      endloop
   endfacet
   facet normal 7.047165e-001 4.099853e-002 -7.083034e-001
      outer loop
         vertex 1.500000e+001 0.000000e+000 1.000000e+000
         vertex 1.400000e+001 0.000000e+000 0.000000e+000
         vertex 1.477212e+001 2.604723e+000 1.000000e+000
      endloop
   endfacet
   facet normal 7.011296e-001 8.199707e-002 -7.083035e-001
      outer loop
         vertex 1.477212e+001 2.604723e+000 1.000000e+000
         vertex 1.400000e+001 0.000000e+000 0.000000e+000
         vertex 1.378731e+001 2.431074e+000 0.000000e+000
      endloop
   endfacet
   facet normal -6.868910e-001 1.627484e-001 7.083035e-001
      outer loop
         vertex -1.477212e+001 2.604723e+000 1.690000e+002
         vertex -1.378731e+001 2.431074e+000 1.700000e+002
         vertex -1.409539e+001 5.130302e+000 1.690000e+002
      endloop
   endfacet
   facet normal -6.762393e-001 2.025012e-001 7.083035e-001
      outer loop
         vertex -1.409539e+001 5.130302e+000 1.690000e+002
         vertex -1.378731e+001 2.431074e+000 1.700000e+002
         vertex -1.315570e+001 4.788282e+000 1.700000e+002
      endloop
   endfacet
   facet normal -6.481946e-001 2.795533e-001 7.083035e-001
      outer loop
         vertex -1.409539e+001 5.130302e+000 1.690000e+002
         vertex -1.315570e+001 4.788282e+000 1.700000e+002
         vertex -1.299038e+001 7.500000e+000 1.690000e+002
      endloop
   endfacet
   facet normal -6.308017e-001 3.168525e-001 7.083035e-001
      outer loop
         vertex -1.299038e+001 7.500000e+000 1.690000e+002
         vertex -1.315570e+001 4.788282e+000 1.700000e+002
         vertex -1.212436e+001 7.000000e+000 1.700000e+002
      endloop
   endfacet
   facet normal -5.898032e-001 3.878640e-001 7.083035e-001
      outer loop
         vertex -1.299038e+001 7.500000e+000 1.690000e+002
         vertex -1.212436e+001 7.000000e+000 1.700000e+002
         vertex -1.149067e+001 9.641814e+000 1.690000e+002
      endloop
   endfacet
   facet normal -5.661975e-001 4.215763e-001 7.083034e-001
      outer loop
         vertex -1.149067e+001 9.641814e+000 1.690000e+002
         vertex -1.212436e+001 7.000000e+000 1.700000e+002
         vertex -1.072462e+001 8.999026e+000 1.700000e+002
      endloop
   endfacet
   facet normal -5.134909e-001 4.843898e-001 7.083035e-001
      outer loop
         vertex -1.149067e+001 9.641814e+000 1.690000e+002
         vertex -1.072462e+001 8.999026e+000 1.700000e+002
         vertex -9.641814e+000 1.149067e+001 1.690000e+002
      endloop
   endfacet
   facet normal -4.843898e-001 5.134908e-001 7.083034e-001
      outer loop
         vertex -9.641814e+000 1.149067e+001 1.690000e+002
         vertex -1.072462e+001 8.999026e+000 1.700000e+002
         vertex -8.999026e+000 1.072462e+001 1.700000e+002
      endloop
   endfacet
   facet normal -4.215764e-001 5.661975e-001 7.083035e-001
      outer loop
         vertex -9.641814e+000 1.149067e+001 1.690000e+002
         vertex -8.999026e+000 1.072462e+001 1.700000e+002
         vertex -7.500000e+000 1.299038e+001 1.690000e+002
      endloop
   endfacet
   facet normal -3.878640e-001 5.898032e-001 7.083035e-001
      outer loop
         vertex -7.500000e+000 1.299038e+001 1.690000e+002
         vertex -8.999026e+000 1.072462e+001 1.700000e+002
         vertex -7.000000e+000 1.212436e+001 1.700000e+002
      endloop
   endfacet
   facet normal -3.168525e-001 6.308017e-001 7.083034e-001
      outer loop
         vertex -7.500000e+000 1.299038e+001 1.690000e+002
         vertex -7.000000e+000 1.212436e+001 1.700000e+002
         vertex -5.130302e+000 1.409539e+001 1.690000e+002
      endloop
   endfacet
   facet normal -2.795533e-001 6.481946e-001 7.083035e-001
      outer loop
         vertex -5.130302e+000 1.409539e+001 1.690000e+002
         vertex -7.000000e+000 1.212436e+001 1.700000e+002
         vertex -4.788282e+000 1.315570e+001 1.700000e+002
      endloop
   endfacet
   facet normal -2.025012e-001 6.762393e-001 7.083035e-001
      outer loop
         vertex -5.130302e+000 1.409539e+001 1.690000e+002
         vertex -4.788282e+000 1.315570e+001 1.700000e+002
         vertex -2.604723e+000 1.477212e+001 1.690000e+002
      endloop
   endfacet
   facet normal -1.627484e-001 6.868910e-001 7.083035e-001
      outer loop
         vertex -2.604723e+000 1.477212e+001 1.690000e+002
         vertex -4.788282e+000 1.315570e+001 1.700000e+002
         vertex -2.431074e+000 1.378731e+001 1.700000e+002
      endloop
   endfacet
   facet normal -8.199707e-002 7.011296e-001 7.083035e-001
      outer loop
         vertex -2.604723e+000 1.477212e+001 1.690000e+002
         vertex -2.431074e+000 1.378731e+001 1.700000e+002
         vertex -2.081668e-015 1.500000e+001 1.690000e+002
      endloop
   endfacet
   facet normal -4.099853e-002 7.047165e-001 7.083034e-001
      outer loop
         vertex -2.081668e-015 1.500000e+001 1.690000e+002
         vertex -2.431074e+000 1.378731e+001 1.700000e+002
         vertex -1.942890e-015 1.400000e+001 1.700000e+002
      endloop
   endfacet
   facet normal 4.099853e-002 7.047165e-001 7.083034e-001
      outer loop
         vertex -2.081668e-015 1.500000e+001 1.690000e+002
         vertex -1.942890e-015 1.400000e+001 1.700000e+002
         vertex 2.604723e+000 1.477212e+001 1.690000e+002
      endloop
   endfacet
   facet normal 8.199707e-002 7.011296e-001 7.083035e-001
      outer loop
         vertex 2.604723e+000 1.477212e+001 1.690000e+002
         vertex -1.942890e-015 1.400000e+001 1.700000e+002
         vertex 2.431074e+000 1.378731e+001 1.700000e+002
      endloop
   endfacet
   facet normal 1.627484e-001 6.868910e-001 7.083035e-001
      outer loop
         vertex 2.604723e+000 1.477212e+001 1.690000e+002
         vertex 2.431074e+000 1.378731e+001 1.700000e+002
         vertex 5.130302e+000 1.409539e+001 1.690000e+002
      endloop
   endfacet
   facet normal 2.025012e-001 6.762393e-001 7.083035e-001
      outer loop
         vertex 5.130302e+000 1.409539e+001 1.690000e+002
         vertex 2.431074e+000 1.378731e+001 1.700000e+002
         vertex 4.788282e+000 1.315570e+001 1.700000e+002
      endloop
   endfacet
   facet normal 2.795533e-001 6.481946e-001 7.083035e-001
      outer loop
         vertex 5.130302e+000 1.409539e+001 1.690000e+002
         vertex 4.788282e+000 1.315570e+001 1.700000e+002
         vertex 7.500000e+000 1.299038e+001 1.690000e+002
      endloop
   endfacet
   facet normal 3.168525e-001 6.308017e-001 7.083035e-001
      outer loop
         vertex 7.500000e+000 1.299038e+001 1.690000e+002
         vertex 4.788282e+000 1.315570e+001 1.700000e+002
         vertex 7.000000e+000 1.212436e+001 1.700000e+002
      endloop
   endfacet
   facet normal 3.878640e-001 5.898032e-001 7.083035e-001
      outer loop
         vertex 7.500000e+000 1.299038e+001 1.690000e+002
         vertex 7.000000e+000 1.212436e+001 1.700000e+002
         vertex 9.641814e+000 1.149067e+001 1.690000e+002
      endloop
   endfacet
   facet normal 4.215763e-001 5.661975e-001 7.083034e-001
      outer loop
         vertex 9.641814e+000 1.149067e+001 1.690000e+002
         vertex 7.000000e+000 1.212436e+001 1.700000e+002
         vertex 8.999026e+000 1.072462e+001 1.700000e+002
      endloop
   endfacet
   facet normal 4.843898e-001 5.134909e-001 7.083035e-001
      outer loop
         vertex 9.641814e+000 1.149067e+001 1.690000e+002
         vertex 8.999026e+000 1.072462e+001 1.700000e+002
         vertex 1.149067e+001 9.641814e+000 1.690000e+002
      endloop
   endfacet
   facet normal 5.134908e-001 4.843898e-001 7.083034e-001
      outer loop
         vertex 1.149067e+001 9.641814e+000 1.690000e+002
         vertex 8.999026e+000 1.072462e+001 1.700000e+002
         vertex 1.072462e+001 8.999026e+000 1.700000e+002
      endloop
   endfacet
   facet normal 5.661975e-001 4.215764e-001 7.083035e-001
      outer loop
         vertex 1.149067e+001 9.641814e+000 1.690000e+002
         vertex 1.072462e+001 8.999026e+000 1.700000e+002
         vertex 1.299038e+001 7.500000e+000 1.690000e+002
      endloop
   endfacet
   facet normal 5.898032e-001 3.878640e-001 7.083035e-001
      outer loop
         vertex 1.299038e+001 7.500000e+000 1.690000e+002
         vertex 1.072462e+001 8.999026e+000 1.700000e+002
         vertex 1.212436e+001 7.000000e+000 1.700000e+002
      endloop
   endfacet
   facet normal 6.308017e-001 3.168525e-001 7.083034e-001
      outer loop
         vertex 1.299038e+001 7.500000e+000 1.690000e+002
         vertex 1.212436e+001 7.000000e+000 1.700000e+002
         vertex 1.409539e+001 5.130302e+000 1.690000e+002
      endloop
   endfacet
   facet normal 6.481946e-001 2.795533e-001 7.083035e-001
      outer loop
         vertex 1.409539e+001 5.130302e+000 1.690000e+002
         vertex 1.212436e+001 7.000000e+000 1.700000e+002
         vertex 1.315570e+001 4.788282e+000 1.700000e+002
      endloop
   endfacet
   facet normal 6.762393e-001 2.025012e-001 7.083035e-001
      outer loop
         vertex 1.409539e+001 5.130302e+000 1.690000e+002
         vertex 1.315570e+001 4.788282e+000 1.700000e+002
         vertex 1.477212e+001 2.604723e+000 1.690000e+002
      endloop
   endfacet
   facet normal 6.868910e-001 1.627484e-001 7.083035e-001
      outer loop
         vertex 1.477212e+001 2.604723e+000 1.690000e+002
         vertex 1.315570e+001 4.788282e+000 1.700000e+002
         vertex 1.378731e+001 2.431074e+000 1.700000e+002
      endloop
   endfacet
   facet normal 7.011296e-001 8.199707e-002 7.083035e-001
      outer loop
         vertex 1.477212e+001 2.604723e+000 1.690000e+002
         vertex 1.378731e+001 2.431074e+000 1.700000e+002
         vertex 1.500000e+001 2.914335e-015 1.690000e+002
      endloop
   endfacet
   facet normal 7.047165e-001 4.099853e-002 7.083034e-001
      outer loop
         vertex 1.500000e+001 2.914335e-015 1.690000e+002
         vertex 1.378731e+001 2.431074e+000 1.700000e+002
         vertex 1.400000e+001 2.720046e-015 1.700000e+002
      endloop
   endfacet
   facet normal 7.047165e-001 -4.099853e-002 7.083034e-001
      outer loop
         vertex 1.500000e+001 2.914335e-015 1.690000e+002
         vertex 1.400000e+001 2.720046e-015 1.700000e+002
         vertex 1.477212e+001 -2.604723e+000 1.690000e+002
      endloop
   endfacet
   facet normal 7.011296e-001 -8.199707e-002 7.083035e-001
      outer loop
         vertex 1.477212e+001 -2.604723e+000 1.690000e+002
         vertex 1.400000e+001 2.720046e-015 1.700000e+002
         vertex 1.378731e+001 -2.431074e+000 1.700000e+002
      endloop
   endfacet
   facet normal 6.868910e-001 -1.627484e-001 7.083035e-001
      outer loop
         vertex 1.477212e+001 -2.604723e+000 1.690000e+002
         vertex 1.378731e+001 -2.431074e+000 1.700000e+002
         vertex 1.409539e+001 -5.130302e+000 1.690000e+002
      endloop
   endfacet
   facet normal 6.762393e-001 -2.025012e-001 7.083035e-001
      outer loop
         vertex 1.409539e+001 -5.130302e+000 1.690000e+002
         vertex 1.378731e+001 -2.431074e+000 1.700000e+002
         vertex 1.315570e+001 -4.788282e+000 1.700000e+002
      endloop
   endfacet
   facet normal 6.481946e-001 -2.795533e-001 7.083035e-001
      outer loop
         vertex 1.409539e+001 -5.130302e+000 1.690000e+002
         vertex 1.315570e+001 -4.788282e+000 1.700000e+002
         vertex 1.299038e+001 -7.500000e+000 1.690000e+002
      endloop
   endfacet
   facet normal 6.308017e-001 -3.168525e-001 7.083035e-001
      outer loop
         vertex 1.299038e+001 -7.500000e+000 1.690000e+002
         vertex 1.315570e+001 -4.788282e+000 1.700000e+002
         vertex 1.212436e+001 -7.000000e+000 1.700000e+002
      endloop
   endfacet
   facet normal 5.898032e-001 -3.878640e-001 7.083035e-001
      outer loop
         vertex 1.299038e+001 -7.500000e+000 1.690000e+002
         vertex 1.212436e+001 -7.000000e+000 1.700000e+002
         vertex 1.149067e+001 -9.641814e+000 1.690000e+002
      endloop
   endfacet
   facet normal 5.661975e-001 -4.215763e-001 7.083034e-001
      outer loop
         vertex 1.149067e+001 -9.641814e+000 1.690000e+002
         vertex 1.212436e+001 -7.000000e+000 1.700000e+002
         vertex 1.072462e+001 -8.999026e+000 1.700000e+002
      endloop
   endfacet
   facet normal 5.134909e-001 -4.843898e-001 7.083035e-001
      outer loop
         vertex 1.149067e+001 -9.641814e+000 1.690000e+002
         vertex 1.072462e+001 -8.999026e+000 1.700000e+002
         vertex 9.641814e+000 -1.149067e+001 1.690000e+002
      endloop
   endfacet
   facet normal 4.843898e-001 -5.134908e-001 7.083034e-001
      outer loop
         vertex 9.641814e+000 -1.149067e+001 1.690000e+002
         vertex 1.072462e+001 -8.999026e+000 1.700000e+002
         vertex 8.999026e+000 -1.072462e+001 1.700000e+002
      endloop
   endfacet
   facet normal 4.215764e-001 -5.661975e-001 7.083035e-001
      outer loop
         vertex 9.641814e+000 -1.149067e+001 1.690000e+002
         vertex 8.999026e+000 -1.072462e+001 1.700000e+002
         vertex 7.500000e+000 -1.299038e+001 1.690000e+002
      endloop
   endfacet
   facet normal 3.878640e-001 -5.898032e-001 7.083035e-001
      outer loop
         vertex 7.500000e+000 -1.299038e+001 1.690000e+002
         vertex 8.999026e+000 -1.072462e+001 1.700000e+002
         vertex 7.000000e+000 -1.212436e+001 1.700000e+002
      endloop
   endfacet
   facet normal 3.168525e-001 -6.308017e-001 7.083034e-001
      outer loop
         vertex 7.500000e+000 -1.299038e+001 1.690000e+002
         vertex 7.000000e+000 -1.212436e+001 1.700000e+002
         vertex 5.130302e+000 -1.409539e+001 1.690000e+002
      endloop
   endfacet
   facet normal 2.795533e-001 -6.481946e-001 7.083035e-001
      outer loop
         vertex 5.130302e+000 -1.409539e+001 1.690000e+002
         vertex 7.000000e+000 -1.212436e+001 1.700000e+002
         vertex 4.788282e+000 -1.315570e+001 1.700000e+002
      endloop
   endfacet
   facet normal 2.025012e-001 -6.762393e-001 7.083035e-001
      outer loop
         vertex 5.130302e+000 -1.409539e+001 1.690000e+002
         vertex 4.788282e+000 -1.315570e+001 1.700000e+002
         vertex 2.604723e+000 -1.477212e+001 1.690000e+002
      endloop
   endfacet
   facet normal 1.627484e-001 -6.868910e-001 7.083035e-001
      outer loop
         vertex 2.604723e+000 -1.477212e+001 1.690000e+002
         vertex 4.788282e+000 -1.315570e+001 1.700000e+002
         vertex 2.431074e+000 -1.378731e+001 1.700000e+002
      endloop
   endfacet
   facet normal 8.199707e-002 -7.011296e-001 7.083035e-001
      outer loop
         vertex 2.604723e+000 -1.477212e+001 1.690000e+002
         vertex 2.431074e+000 -1.378731e+001 1.700000e+002
         vertex 2.081668e-015 -1.500000e+001 1.690000e+002
      endloop
   endfacet
   facet normal 4.099853e-002 -7.047165e-001 7.083034e-001
      outer loop
         vertex 2.081668e-015 -1.500000e+001 1.690000e+002
         vertex 2.431074e+000 -1.378731e+001 1.700000e+002
         vertex 1.942890e-015 -1.400000e+001 1.700000e+002
      endloop
   endfacet
   facet normal -4.099853e-002 -7.047165e-001 7.083034e-001
      outer loop
         vertex 2.081668e-015 -1.500000e+001 1.690000e+002
         vertex 1.942890e-015 -1.400000e+001 1.700000e+002
         vertex -2.604723e+000 -1.477212e+001 1.690000e+002
      endloop
   endfacet
   facet normal -8.199707e-002 -7.011296e-001 7.083035e-001
      outer loop
         vertex -2.604723e+000 -1.477212e+001 1.690000e+002
         vertex 1.942890e-015 -1.400000e+001 1.700000e+002
         vertex -2.431074e+000 -1.378731e+001 1.700000e+002
      endloop
   endfacet
   facet normal -1.627484e-001 -6.868910e-001 7.083035e-001
      outer loop
         vertex -2.604723e+000 -1.477212e+001 1.690000e+002
         vertex -2.431074e+000 -1.378731e+001 1.700000e+002
         vertex -5.130302e+000 -1.409539e+001 1.690000e+002
      endloop
   endfacet
   facet normal -2.025012e-001 -6.762393e-001 7.083035e-001
      outer loop
         vertex -5.130302e+000 -1.409539e+001 1.690000e+002
         vertex -2.431074e+000 -1.378731e+001 1.700000e+002
         vertex -4.788282e+000 -1.315570e+001 1.700000e+002
      endloop
   endfacet
   facet normal -2.795533e-001 -6.481946e-001 7.083035e-001
      outer loop
         vertex -5.130302e+000 -1.409539e+001 1.690000e+002
         vertex -4.788282e+000 -1.315570e+001 1.700000e+002
         vertex -7.500000e+000 -1.299038e+001 1.690000e+002
      endloop
   endfacet
   facet normal -3.168525e-001 -6.308017e-001 7.083035e-001
      outer loop
         vertex -7.500000e+000 -1.299038e+001 1.690000e+002
         vertex -4.788282e+000 -1.315570e+001 1.700000e+002
         vertex -7.000000e+000 -1.212436e+001 1.700000e+002
      endloop
   endfacet
   facet normal -3.878640e-001 -5.898032e-001 7.083035e-001
      outer loop
         vertex -7.500000e+000 -1.299038e+001 1.690000e+002
         vertex -7.000000e+000 -1.212436e+001 1.700000e+002
         vertex -9.641814e+000 -1.149067e+001 1.690000e+002
      endloop
   endfacet
   facet normal -4.215763e-001 -5.661975e-001 7.083034e-001
      outer loop
         vertex -9.641814e+000 -1.149067e+001 1.690000e+002
         vertex -7.000000e+000 -1.212436e+001 1.700000e+002
         vertex -8.999026e+000 -1.072462e+001 1.700000e+002
      endloop
   endfacet
   facet normal -4.843898e-001 -5.134909e-001 7.083035e-001
      outer loop
         vertex -9.641814e+000 -1.149067e+001 1.690000e+002
         vertex -8.999026e+000 -1.072462e+001 1.700000e+002
         vertex -1.149067e+001 -9.641814e+000 1.690000e+002
      endloop
   endfacet
   facet normal -5.134908e-001 -4.843898e-001 7.083034e-001
      outer loop
         vertex -1.149067e+001 -9.641814e+000 1.690000e+002
         vertex -8.999026e+000 -1.072462e+001 1.700000e+002
         vertex -1.072462e+001 -8.999026e+000 1.700000e+002
      endloop
   endfacet
   facet normal -5.661975e-001 -4.215764e-001 7.083035e-001
      outer loop
         vertex -1.149067e+001 -9.641814e+000 1.690000e+002
         vertex -1.072462e+001 -8.999026e+000 1.700000e+002
         vertex -1.299038e+001 -7.500000e+000 1.690000e+002
      endloop
   endfacet
   facet normal -5.898032e-001 -3.878640e-001 7.083035e-001
      outer loop
         vertex -1.299038e+001 -7.500000e+000 1.690000e+002
         vertex -1.072462e+001 -8.999026e+000 1.700000e+002
         vertex -1.212436e+001 -7.000000e+000 1.700000e+002
      endloop
   endfacet
   facet normal -6.308017e-001 -3.168525e-001 7.083034e-001
      outer loop
         vertex -1.299038e+001 -7.500000e+000 1.690000e+002
         vertex -1.212436e+001 -7.000000e+000 1.700000e+002
         vertex -1.409539e+001 -5.130302e+000 1.690000e+002
      endloop
   endfacet
   facet normal -6.481946e-001 -2.795533e-001 7.083035e-001
      outer loop
         vertex -1.409539e+001 -5.130302e+000 1.690000e+002
         vertex -1.212436e+001 -7.000000e+000 1.700000e+002
         vertex -1.315570e+001 -4.788282e+000 1.700000e+002
      endloop
   endfacet
   facet normal -6.762393e-001 -2.025012e-001 7.083035e-001
      outer loop
         vertex -1.409539e+001 -5.130302e+000 1.690000e+002
         vertex -1.315570e+001 -4.788282e+000 1.700000e+002
         vertex -1.477212e+001 -2.604723e+000 1.690000e+002
      endloop
   endfacet
   facet normal -6.868910e-001 -1.627484e-001 7.083035e-001
      outer loop
         vertex -1.477212e+001 -2.604723e+000 1.690000e+002
         vertex -1.315570e+001 -4.788282e+000 1.700000e+002
         vertex -1.378731e+001 -2.431074e+000 1.700000e+002
      endloop
   endfacet
   facet normal -7.011296e-001 -8.199707e-002 7.083035e-001
      outer loop
         vertex -1.477212e+001 -2.604723e+000 1.690000e+002
         vertex -1.378731e+001 -2.431074e+000 1.700000e+002
         vertex -1.500000e+001 0.000000e+000 1.690000e+002
      endloop
   endfacet
   facet normal -7.047165e-001 -4.099853e-002 7.083034e-001
      outer loop
         vertex -1.500000e+001 0.000000e+000 1.690000e+002
         vertex -1.378731e+001 -2.431074e+000 1.700000e+002
         vertex -1.400000e+001 0.000000e+000 1.700000e+002
      endloop
   endfacet
   facet normal -7.047165e-001 4.099853e-002 7.083034e-001
      outer loop
         vertex -1.500000e+001 0.000000e+000 1.690000e+002
         vertex -1.400000e+001 0.000000e+000 1.700000e+002
         vertex -1.477212e+001 2.604723e+000 1.690000e+002
      endloop
   endfacet
   facet normal -7.011296e-001 8.199707e-002 7.083035e-001
      outer loop
         vertex -1.477212e+001 2.604723e+000 1.690000e+002
         vertex -1.400000e+001 0.000000e+000 1.700000e+002
         vertex -1.378731e+001 2.431074e+000 1.700000e+002
      endloop
   endfacet
endsolid