solid Bati_CaleRF300_Défaut_sldprt
   facet normal -9.993913e-001 3.488532e-002 0.000000e+000
      outer loop
         vertex 9.227390e+001 5.226423e+000 7.000000e+000
         vertex 9.200000e+001 0.000000e+000 0.000000e+000
         vertex 9.200000e+001 0.000000e+000 7.000000e+000
      endloop
   endfacet
   facet normal -9.993913e-001 -3.488532e-002 0.000000e+000
      outer loop
         vertex 9.200000e+001 0.000000e+000 7.000000e+000
         vertex 9.200000e+001 0.000000e+000 0.000000e+000
         vertex 9.227390e+001 -5.226423e+000 0.000000e+000
      endloop
   endfacet
   facet normal -9.975630e-001 -6.977063e-002 0.000000e+000
      outer loop
         vertex 9.200000e+001 0.000000e+000 7.000000e+000
         vertex 9.227390e+001 -5.226423e+000 0.000000e+000
         vertex 9.227390e+001 -5.226423e+000 7.000000e+000
      endloop
   endfacet
   facet normal -9.902700e-001 -1.391590e-001 0.000000e+000
      outer loop
         vertex 9.227390e+001 -5.226423e+000 7.000000e+000
         vertex 9.227390e+001 -5.226423e+000 0.000000e+000
         vertex 9.309262e+001 -1.039559e+001 0.000000e+000
      endloop
   endfacet
   facet normal -9.848053e-001 -1.736622e-001 0.000000e+000
      outer loop
         vertex 9.227390e+001 -5.226423e+000 7.000000e+000
         vertex 9.309262e+001 -1.039559e+001 0.000000e+000
         vertex 9.309262e+001 -1.039559e+001 7.000000e+000
      endloop
   endfacet
   facet normal -9.702991e-001 -2.419081e-001 0.000000e+000
      outer loop
         vertex 9.309262e+001 -1.039559e+001 7.000000e+000
         vertex 9.309262e+001 -1.039559e+001 0.000000e+000
         vertex 9.444717e+001 -1.545085e+001 0.000000e+000
      endloop
   endfacet
   facet normal -9.612578e-001 -2.756510e-001 0.000000e+000
      outer loop
         vertex 9.309262e+001 -1.039559e+001 7.000000e+000
         vertex 9.444717e+001 -1.545085e+001 0.000000e+000
         vertex 9.444717e+001 -1.545085e+001 7.000000e+000
      endloop
   endfacet
   facet normal -9.396975e-001 -3.420068e-001 0.000000e+000
      outer loop
         vertex 9.444717e+001 -1.545085e+001 7.000000e+000
         vertex 9.444717e+001 -1.545085e+001 0.000000e+000
         vertex 9.632273e+001 -2.033683e+001 0.000000e+000
      endloop
   endfacet
   facet normal -9.271786e-001 -3.746197e-001 0.000000e+000
      outer loop
         vertex 9.444717e+001 -1.545085e+001 7.000000e+000
         vertex 9.632273e+001 -2.033683e+001 0.000000e+000
         vertex 9.632273e+001 -2.033683e+001 7.000000e+000
      endloop
   endfacet
   facet normal -8.988003e-001 -4.383584e-001 0.000000e+000
      outer loop
         vertex 9.632273e+001 -2.033683e+001 7.000000e+000
         vertex 9.632273e+001 -2.033683e+001 0.000000e+000
         vertex 9.869873e+001 -2.500000e+001 0.000000e+000
      endloop
   endfacet
   facet normal -8.829409e-001 -4.694841e-001 0.000000e+000
      outer loop
         vertex 9.632273e+001 -2.033683e+001 7.000000e+000
         vertex 9.869873e+001 -2.500000e+001 0.000000e+000
         vertex 9.869873e+001 -2.500000e+001 7.000000e+000
      endloop
   endfacet
   facet normal -8.480556e-001 -5.299072e-001 0.000000e+000
      outer loop
         vertex 9.869873e+001 -2.500000e+001 7.000000e+000
         vertex 9.869873e+001 -2.500000e+001 0.000000e+000
         vertex 1.015491e+002 -2.938926e+001 0.000000e+000
      endloop
   endfacet
   facet normal -8.290296e-001 -5.592046e-001 0.000000e+000
      outer loop
         vertex 9.869873e+001 -2.500000e+001 7.000000e+000
         vertex 1.015491e+002 -2.938926e+001 0.000000e+000
         vertex 1.015491e+002 -2.938926e+001 7.000000e+000
      endloop
   endfacet
   facet normal -7.880195e-001 -6.156502e-001 0.000000e+000
      outer loop
         vertex 1.015491e+002 -2.938926e+001 7.000000e+000
         vertex 1.015491e+002 -2.938926e+001 0.000000e+000
         vertex 1.048428e+002 -3.345653e+001 0.000000e+000
      endloop
   endfacet
   facet normal -7.660353e-001 -6.427984e-001 0.000000e+000
      outer loop
         vertex 1.015491e+002 -2.938926e+001 7.000000e+000
         vertex 1.048428e+002 -3.345653e+001 0.000000e+000
         vertex 1.048428e+002 -3.345653e+001 7.000000e+000
      endloop
   endfacet
   facet normal -7.193496e-001 -6.946481e-001 0.000000e+000
      outer loop
         vertex 1.048428e+002 -3.345653e+001 7.000000e+000
         vertex 1.048428e+002 -3.345653e+001 0.000000e+000
         vertex 1.085435e+002 -3.715724e+001 0.000000e+000
      endloop
   endfacet
   facet normal -6.946481e-001 -7.193496e-001 0.000000e+000
      outer loop
         vertex 1.048428e+002 -3.345653e+001 7.000000e+000
         vertex 1.085435e+002 -3.715724e+001 0.000000e+000
         vertex 1.085435e+002 -3.715724e+001 7.000000e+000
      endloop
   endfacet
   facet normal -6.427985e-001 -7.660353e-001 0.000000e+000
      outer loop
         vertex 1.085435e+002 -3.715724e+001 7.000000e+000
         vertex 1.085435e+002 -3.715724e+001 0.000000e+000
         vertex 1.126107e+002 -4.045085e+001 0.000000e+000
      endloop
   endfacet
   facet normal -6.156502e-001 -7.880195e-001 0.000000e+000
      outer loop
         vertex 1.085435e+002 -3.715724e+001 7.000000e+000
         vertex 1.126107e+002 -4.045085e+001 0.000000e+000
         vertex 1.126107e+002 -4.045085e+001 7.000000e+000
      endloop
   endfacet
   facet normal -5.592046e-001 -8.290296e-001 0.000000e+000
      outer loop
         vertex 1.126107e+002 -4.045085e+001 7.000000e+000
         vertex 1.126107e+002 -4.045085e+001 0.000000e+000
         vertex 1.170000e+002 -4.330127e+001 0.000000e+000
      endloop
   endfacet
   facet normal -5.299072e-001 -8.480556e-001 0.000000e+000
      outer loop
         vertex 1.126107e+002 -4.045085e+001 7.000000e+000
         vertex 1.170000e+002 -4.330127e+001 0.000000e+000
         vertex 1.170000e+002 -4.330127e+001 7.000000e+000
      endloop
   endfacet
   facet normal -4.694841e-001 -8.829409e-001 0.000000e+000
      outer loop
         vertex 1.170000e+002 -4.330127e+001 7.000000e+000
         vertex 1.170000e+002 -4.330127e+001 0.000000e+000
         vertex 1.216632e+002 -4.567727e+001 0.000000e+000
      endloop
   endfacet
   facet normal -4.383584e-001 -8.988003e-001 0.000000e+000
      outer loop
         vertex 1.170000e+002 -4.330127e+001 7.000000e+000
         vertex 1.216632e+002 -4.567727e+001 0.000000e+000
         vertex 1.216632e+002 -4.567727e+001 7.000000e+000
      endloop
   endfacet
   facet normal -3.746197e-001 -9.271786e-001 0.000000e+000
      outer loop
         vertex 1.216632e+002 -4.567727e+001 7.000000e+000
         vertex 1.216632e+002 -4.567727e+001 0.000000e+000
         vertex 1.265492e+002 -4.755283e+001 0.000000e+000
      endloop
   endfacet
   facet normal -3.420068e-001 -9.396974e-001 0.000000e+000
      outer loop
         vertex 1.216632e+002 -4.567727e+001 7.000000e+000
         vertex 1.265492e+002 -4.755283e+001 0.000000e+000
         vertex 1.265492e+002 -4.755283e+001 7.000000e+000
      endloop
   endfacet
   facet normal -2.756510e-001 -9.612578e-001 0.000000e+000
      outer loop
         vertex 1.265492e+002 -4.755283e+001 7.000000e+000
         vertex 1.265492e+002 -4.755283e+001 0.000000e+000
         vertex 1.316044e+002 -4.890738e+001 0.000000e+000
      endloop
   endfacet
   facet normal -2.419081e-001 -9.702991e-001 0.000000e+000
      outer loop
         vertex 1.265492e+002 -4.755283e+001 7.000000e+000
         vertex 1.316044e+002 -4.890738e+001 0.000000e+000
         vertex 1.316044e+002 -4.890738e+001 7.000000e+000
      endloop
   endfacet
   facet normal -1.736622e-001 -9.848053e-001 0.000000e+000
      outer loop
         vertex 1.316044e+002 -4.890738e+001 7.000000e+000
         vertex 1.316044e+002 -4.890738e+001 0.000000e+000
         vertex 1.367736e+002 -4.972609e+001 0.000000e+000
      endloop
   endfacet
   facet normal -1.391590e-001 -9.902700e-001 0.000000e+000
      outer loop
         vertex 1.316044e+002 -4.890738e+001 7.000000e+000
         vertex 1.367736e+002 -4.972609e+001 0.000000e+000
         vertex 1.367736e+002 -4.972609e+001 7.000000e+000
      endloop
   endfacet
   facet normal -6.977063e-002 -9.975630e-001 0.000000e+000
      outer loop
         vertex 1.367736e+002 -4.972609e+001 7.000000e+000
         vertex 1.367736e+002 -4.972609e+001 0.000000e+000
         vertex 1.420000e+002 -5.000000e+001 0.000000e+000
      endloop
   endfacet
   facet normal -3.488532e-002 -9.993913e-001 0.000000e+000
      outer loop
         vertex 1.367736e+002 -4.972609e+001 7.000000e+000
         vertex 1.420000e+002 -5.000000e+001 0.000000e+000
         vertex 1.420000e+002 -5.000000e+001 7.000000e+000
      endloop
   endfacet
   facet normal 3.488532e-002 -9.993913e-001 0.000000e+000
      outer loop
         vertex 1.420000e+002 -5.000000e+001 7.000000e+000
         vertex 1.420000e+002 -5.000000e+001 0.000000e+000
         vertex 1.472264e+002 -4.972609e+001 0.000000e+000
      endloop
   endfacet
   facet normal 6.977063e-002 -9.975630e-001 0.000000e+000
      outer loop
         vertex 1.420000e+002 -5.000000e+001 7.000000e+000
         vertex 1.472264e+002 -4.972609e+001 0.000000e+000
         vertex 1.472264e+002 -4.972609e+001 7.000000e+000
      endloop
   endfacet
   facet normal 1.391590e-001 -9.902700e-001 0.000000e+000
      outer loop
         vertex 1.472264e+002 -4.972609e+001 7.000000e+000
         vertex 1.472264e+002 -4.972609e+001 0.000000e+000
         vertex 1.523956e+002 -4.890738e+001 0.000000e+000
      endloop
   endfacet
   facet normal 1.736622e-001 -9.848053e-001 0.000000e+000
      outer loop
         vertex 1.472264e+002 -4.972609e+001 7.000000e+000
         vertex 1.523956e+002 -4.890738e+001 0.000000e+000
         vertex 1.523956e+002 -4.890738e+001 7.000000e+000
      endloop
   endfacet
   facet normal 2.419081e-001 -9.702991e-001 0.000000e+000
      outer loop
         vertex 1.523956e+002 -4.890738e+001 7.000000e+000
         vertex 1.523956e+002 -4.890738e+001 0.000000e+000
         vertex 1.574509e+002 -4.755283e+001 0.000000e+000
      endloop
   endfacet
   facet normal 2.756510e-001 -9.612578e-001 0.000000e+000
      outer loop
         vertex 1.523956e+002 -4.890738e+001 7.000000e+000
         vertex 1.574509e+002 -4.755283e+001 0.000000e+000
         vertex 1.574509e+002 -4.755283e+001 7.000000e+000
      endloop
   endfacet
   facet normal 3.420068e-001 -9.396975e-001 0.000000e+000
      outer loop
         vertex 1.574509e+002 -4.755283e+001 7.000000e+000
         vertex 1.574509e+002 -4.755283e+001 0.000000e+000
         vertex 1.623368e+002 -4.567727e+001 0.000000e+000
      endloop
   endfacet
   facet normal 3.746197e-001 -9.271786e-001 0.000000e+000
      outer loop
         vertex 1.574509e+002 -4.755283e+001 7.000000e+000
         vertex 1.623368e+002 -4.567727e+001 0.000000e+000
         vertex 1.623368e+002 -4.567727e+001 7.000000e+000
      endloop
   endfacet
   facet normal 4.383584e-001 -8.988003e-001 0.000000e+000
      outer loop
         vertex 1.623368e+002 -4.567727e+001 7.000000e+000
         vertex 1.623368e+002 -4.567727e+001 0.000000e+000
         vertex 1.670000e+002 -4.330127e+001 0.000000e+000
      endloop
   endfacet
   facet normal 4.694841e-001 -8.829409e-001 0.000000e+000
      outer loop
         vertex 1.623368e+002 -4.567727e+001 7.000000e+000
         vertex 1.670000e+002 -4.330127e+001 0.000000e+000
         vertex 1.670000e+002 -4.330127e+001 7.000000e+000
      endloop
   endfacet
   facet normal 5.299072e-001 -8.480556e-001 0.000000e+000
      outer loop
         vertex 1.670000e+002 -4.330127e+001 7.000000e+000
         vertex 1.670000e+002 -4.330127e+001 0.000000e+000
         vertex 1.713893e+002 -4.045085e+001 0.000000e+000
      endloop
   endfacet
   facet normal 5.592046e-001 -8.290296e-001 0.000000e+000
      outer loop
         vertex 1.670000e+002 -4.330127e+001 7.000000e+000
         vertex 1.713893e+002 -4.045085e+001 0.000000e+000
         vertex 1.713893e+002 -4.045085e+001 7.000000e+000
      endloop
   endfacet
   facet normal 6.156502e-001 -7.880195e-001 0.000000e+000
      outer loop
         vertex 1.713893e+002 -4.045085e+001 7.000000e+000
         vertex 1.713893e+002 -4.045085e+001 0.000000e+000
         vertex 1.754565e+002 -3.715724e+001 0.000000e+000
      endloop
   endfacet
   facet normal 6.427984e-001 -7.660353e-001 0.000000e+000
      outer loop
         vertex 1.713893e+002 -4.045085e+001 7.000000e+000
         vertex 1.754565e+002 -3.715724e+001 0.000000e+000
         vertex 1.754565e+002 -3.715724e+001 7.000000e+000
      endloop
   endfacet
   facet normal 6.946481e-001 -7.193496e-001 0.000000e+000
      outer loop
         vertex 1.754565e+002 -3.715724e+001 7.000000e+000
         vertex 1.754565e+002 -3.715724e+001 0.000000e+000
         vertex 1.791572e+002 -3.345653e+001 0.000000e+000
      endloop
   endfacet
   facet normal 7.193496e-001 -6.946481e-001 0.000000e+000
      outer loop
         vertex 1.754565e+002 -3.715724e+001 7.000000e+000
         vertex 1.791572e+002 -3.345653e+001 0.000000e+000
         vertex 1.791572e+002 -3.345653e+001 7.000000e+000
      endloop
   endfacet
   facet normal 7.660353e-001 -6.427985e-001 0.000000e+000
      outer loop
         vertex 1.791572e+002 -3.345653e+001 7.000000e+000
         vertex 1.791572e+002 -3.345653e+001 0.000000e+000
         vertex 1.824509e+002 -2.938926e+001 0.000000e+000
      endloop
   endfacet
   facet normal 7.880195e-001 -6.156502e-001 0.000000e+000
      outer loop
         vertex 1.791572e+002 -3.345653e+001 7.000000e+000
         vertex 1.824509e+002 -2.938926e+001 0.000000e+000
         vertex 1.824509e+002 -2.938926e+001 7.000000e+000
      endloop
   endfacet
   facet normal 8.290296e-001 -5.592046e-001 0.000000e+000
      outer loop
         vertex 1.824509e+002 -2.938926e+001 7.000000e+000
         vertex 1.824509e+002 -2.938926e+001 0.000000e+000
         vertex 1.853013e+002 -2.500000e+001 0.000000e+000
      endloop
   endfacet
   facet normal 8.480556e-001 -5.299072e-001 0.000000e+000
      outer loop
         vertex 1.824509e+002 -2.938926e+001 7.000000e+000
         vertex 1.853013e+002 -2.500000e+001 0.000000e+000
         vertex 1.853013e+002 -2.500000e+001 7.000000e+000
      endloop
   endfacet
   facet normal 8.829409e-001 -4.694841e-001 0.000000e+000
      outer loop
         vertex 1.853013e+002 -2.500000e+001 7.000000e+000
         vertex 1.853013e+002 -2.500000e+001 0.000000e+000
         vertex 1.876773e+002 -2.033683e+001 0.000000e+000
      endloop
   endfacet
   facet normal 8.988003e-001 -4.383584e-001 0.000000e+000
      outer loop
         vertex 1.853013e+002 -2.500000e+001 7.000000e+000
         vertex 1.876773e+002 -2.033683e+001 0.000000e+000
         vertex 1.876773e+002 -2.033683e+001 7.000000e+000
      endloop
   endfacet
   facet normal 9.271786e-001 -3.746197e-001 0.000000e+000
      outer loop
         vertex 1.876773e+002 -2.033683e+001 7.000000e+000
         vertex 1.876773e+002 -2.033683e+001 0.000000e+000
         vertex 1.895528e+002 -1.545085e+001 0.000000e+000
      endloop
   endfacet
   facet normal 9.396974e-001 -3.420068e-001 0.000000e+000
      outer loop
         vertex 1.876773e+002 -2.033683e+001 7.000000e+000
         vertex 1.895528e+002 -1.545085e+001 0.000000e+000
         vertex 1.895528e+002 -1.545085e+001 7.000000e+000
      endloop
   endfacet
   facet normal 9.612578e-001 -2.756510e-001 0.000000e+000
      outer loop
         vertex 1.895528e+002 -1.545085e+001 7.000000e+000
         vertex 1.895528e+002 -1.545085e+001 0.000000e+000
         vertex 1.909074e+002 -1.039559e+001 0.000000e+000
      endloop
   endfacet
   facet normal 9.702991e-001 -2.419081e-001 0.000000e+000
      outer loop
         vertex 1.895528e+002 -1.545085e+001 7.000000e+000
         vertex 1.909074e+002 -1.039559e+001 0.000000e+000
         vertex 1.909074e+002 -1.039559e+001 7.000000e+000
      endloop
   endfacet
   facet normal 9.848053e-001 -1.736622e-001 0.000000e+000
      outer loop
         vertex 1.909074e+002 -1.039559e+001 7.000000e+000
         vertex 1.909074e+002 -1.039559e+001 0.000000e+000
         vertex 1.917261e+002 -5.226423e+000 0.000000e+000
      endloop
   endfacet
   facet normal 9.902700e-001 -1.391590e-001 0.000000e+000
      outer loop
         vertex 1.909074e+002 -1.039559e+001 7.000000e+000
         vertex 1.917261e+002 -5.226423e+000 0.000000e+000
         vertex 1.917261e+002 -5.226423e+000 7.000000e+000
      endloop
   endfacet
   facet normal 9.975630e-001 -6.977063e-002 0.000000e+000
      outer loop
         vertex 1.917261e+002 -5.226423e+000 7.000000e+000
         vertex 1.917261e+002 -5.226423e+000 0.000000e+000
         vertex 1.920000e+002 6.123234e-015 0.000000e+000
      endloop
   endfacet
   facet normal 9.993913e-001 -3.488532e-002 0.000000e+000
      outer loop
         vertex 1.917261e+002 -5.226423e+000 7.000000e+000
         vertex 1.920000e+002 6.123234e-015 0.000000e+000
         vertex 1.920000e+002 6.123234e-015 7.000000e+000
      endloop
   endfacet
   facet normal 9.993913e-001 3.488532e-002 0.000000e+000
      outer loop
         vertex 1.920000e+002 6.123234e-015 7.000000e+000
         vertex 1.920000e+002 6.123234e-015 0.000000e+000
         vertex 1.917261e+002 5.226423e+000 0.000000e+000
      endloop
   endfacet
   facet normal 9.975630e-001 6.977063e-002 0.000000e+000
      outer loop
         vertex 1.920000e+002 6.123234e-015 7.000000e+000
         vertex 1.917261e+002 5.226423e+000 0.000000e+000
         vertex 1.917261e+002 5.226423e+000 7.000000e+000
      endloop
   endfacet
   facet normal 9.902700e-001 1.391590e-001 0.000000e+000
      outer loop
         vertex 1.917261e+002 5.226423e+000 7.000000e+000
         vertex 1.917261e+002 5.226423e+000 0.000000e+000
         vertex 1.909074e+002 1.039559e+001 0.000000e+000
      endloop
   endfacet
   facet normal 9.848053e-001 1.736622e-001 0.000000e+000
      outer loop
         vertex 1.917261e+002 5.226423e+000 7.000000e+000
         vertex 1.909074e+002 1.039559e+001 0.000000e+000
         vertex 1.909074e+002 1.039559e+001 7.000000e+000
      endloop
   endfacet
   facet normal 9.702991e-001 2.419081e-001 0.000000e+000
      outer loop
         vertex 1.909074e+002 1.039559e+001 7.000000e+000
         vertex 1.909074e+002 1.039559e+001 0.000000e+000
         vertex 1.895528e+002 1.545085e+001 0.000000e+000
      endloop
   endfacet
   facet normal 9.612578e-001 2.756510e-001 0.000000e+000
      outer loop
         vertex 1.909074e+002 1.039559e+001 7.000000e+000
         vertex 1.895528e+002 1.545085e+001 0.000000e+000
         vertex 1.895528e+002 1.545085e+001 7.000000e+000
      endloop
   endfacet
   facet normal 9.396975e-001 3.420068e-001 0.000000e+000
      outer loop
         vertex 1.895528e+002 1.545085e+001 7.000000e+000
         vertex 1.895528e+002 1.545085e+001 0.000000e+000
         vertex 1.876773e+002 2.033683e+001 0.000000e+000
      endloop
   endfacet
   facet normal 9.271786e-001 3.746197e-001 0.000000e+000
      outer loop
         vertex 1.895528e+002 1.545085e+001 7.000000e+000
         vertex 1.876773e+002 2.033683e+001 0.000000e+000
         vertex 1.876773e+002 2.033683e+001 7.000000e+000
      endloop
   endfacet
   facet normal 8.988003e-001 4.383584e-001 0.000000e+000
      outer loop
         vertex 1.876773e+002 2.033683e+001 7.000000e+000
         vertex 1.876773e+002 2.033683e+001 0.000000e+000
         vertex 1.853013e+002 2.500000e+001 0.000000e+000
      endloop
   endfacet
   facet normal 8.829409e-001 4.694841e-001 0.000000e+000
      outer loop
         vertex 1.876773e+002 2.033683e+001 7.000000e+000
         vertex 1.853013e+002 2.500000e+001 0.000000e+000
         vertex 1.853013e+002 2.500000e+001 7.000000e+000
      endloop
   endfacet
   facet normal 8.480556e-001 5.299072e-001 0.000000e+000
      outer loop
         vertex 1.853013e+002 2.500000e+001 7.000000e+000
         vertex 1.853013e+002 2.500000e+001 0.000000e+000
         vertex 1.824509e+002 2.938926e+001 0.000000e+000
      endloop
   endfacet
   facet normal 8.290296e-001 5.592046e-001 0.000000e+000
      outer loop
         vertex 1.853013e+002 2.500000e+001 7.000000e+000
         vertex 1.824509e+002 2.938926e+001 0.000000e+000
         vertex 1.824509e+002 2.938926e+001 7.000000e+000
      endloop
   endfacet
   facet normal 7.880195e-001 6.156502e-001 0.000000e+000
      outer loop
         vertex 1.824509e+002 2.938926e+001 7.000000e+000
         vertex 1.824509e+002 2.938926e+001 0.000000e+000
         vertex 1.791572e+002 3.345653e+001 0.000000e+000
      endloop
   endfacet
   facet normal 7.660353e-001 6.427984e-001 0.000000e+000
      outer loop
         vertex 1.824509e+002 2.938926e+001 7.000000e+000
         vertex 1.791572e+002 3.345653e+001 0.000000e+000
         vertex 1.791572e+002 3.345653e+001 7.000000e+000
      endloop
   endfacet
   facet normal 7.193496e-001 6.946481e-001 0.000000e+000
      outer loop
         vertex 1.791572e+002 3.345653e+001 7.000000e+000
         vertex 1.791572e+002 3.345653e+001 0.000000e+000
         vertex 1.754565e+002 3.715724e+001 0.000000e+000
      endloop
   endfacet
   facet normal 6.946481e-001 7.193496e-001 0.000000e+000
      outer loop
         vertex 1.791572e+002 3.345653e+001 7.000000e+000
         vertex 1.754565e+002 3.715724e+001 0.000000e+000
         vertex 1.754565e+002 3.715724e+001 7.000000e+000
      endloop
   endfacet
   facet normal 6.427985e-001 7.660353e-001 0.000000e+000
      outer loop
         vertex 1.754565e+002 3.715724e+001 7.000000e+000
         vertex 1.754565e+002 3.715724e+001 0.000000e+000
         vertex 1.713893e+002 4.045085e+001 0.000000e+000
      endloop
   endfacet
   facet normal 6.156502e-001 7.880195e-001 0.000000e+000
      outer loop
         vertex 1.754565e+002 3.715724e+001 7.000000e+000
         vertex 1.713893e+002 4.045085e+001 0.000000e+000
         vertex 1.713893e+002 4.045085e+001 7.000000e+000
      endloop
   endfacet
   facet normal 5.592046e-001 8.290296e-001 0.000000e+000
      outer loop
         vertex 1.713893e+002 4.045085e+001 7.000000e+000
         vertex 1.713893e+002 4.045085e+001 0.000000e+000
         vertex 1.670000e+002 4.330127e+001 0.000000e+000
      endloop
   endfacet
   facet normal 5.299072e-001 8.480556e-001 0.000000e+000
      outer loop
         vertex 1.713893e+002 4.045085e+001 7.000000e+000
         vertex 1.670000e+002 4.330127e+001 0.000000e+000
         vertex 1.670000e+002 4.330127e+001 7.000000e+000
      endloop
   endfacet
   facet normal 4.694841e-001 8.829409e-001 0.000000e+000
      outer loop
         vertex 1.670000e+002 4.330127e+001 7.000000e+000
         vertex 1.670000e+002 4.330127e+001 0.000000e+000
         vertex 1.623368e+002 4.567727e+001 0.000000e+000
      endloop
   endfacet
   facet normal 4.383584e-001 8.988003e-001 0.000000e+000
      outer loop
         vertex 1.670000e+002 4.330127e+001 7.000000e+000
         vertex 1.623368e+002 4.567727e+001 0.000000e+000
         vertex 1.623368e+002 4.567727e+001 7.000000e+000
      endloop
   endfacet
   facet normal 3.746197e-001 9.271786e-001 0.000000e+000
      outer loop
         vertex 1.623368e+002 4.567727e+001 7.000000e+000
         vertex 1.623368e+002 4.567727e+001 0.000000e+000
         vertex 1.574509e+002 4.755283e+001 0.000000e+000
      endloop
   endfacet
   facet normal 3.420068e-001 9.396974e-001 0.000000e+000
      outer loop
         vertex 1.623368e+002 4.567727e+001 7.000000e+000
         vertex 1.574509e+002 4.755283e+001 0.000000e+000
         vertex 1.574509e+002 4.755283e+001 7.000000e+000
      endloop
   endfacet
   facet normal 2.756510e-001 9.612578e-001 0.000000e+000
      outer loop
         vertex 1.574509e+002 4.755283e+001 7.000000e+000
         vertex 1.574509e+002 4.755283e+001 0.000000e+000
         vertex 1.523956e+002 4.890738e+001 0.000000e+000
      endloop
   endfacet
   facet normal 2.419081e-001 9.702991e-001 0.000000e+000
      outer loop
         vertex 1.574509e+002 4.755283e+001 7.000000e+000
         vertex 1.523956e+002 4.890738e+001 0.000000e+000
         vertex 1.523956e+002 4.890738e+001 7.000000e+000
      endloop
   endfacet
   facet normal 1.736622e-001 9.848053e-001 0.000000e+000
      outer loop
         vertex 1.523956e+002 4.890738e+001 7.000000e+000
         vertex 1.523956e+002 4.890738e+001 0.000000e+000
         vertex 1.472264e+002 4.972609e+001 0.000000e+000
      endloop
   endfacet
   facet normal 1.391590e-001 9.902700e-001 0.000000e+000
      outer loop
         vertex 1.523956e+002 4.890738e+001 7.000000e+000
         vertex 1.472264e+002 4.972609e+001 0.000000e+000
         vertex 1.472264e+002 4.972609e+001 7.000000e+000
      endloop
   endfacet
   facet normal 6.977063e-002 9.975630e-001 0.000000e+000
      outer loop
         vertex 1.472264e+002 4.972609e+001 7.000000e+000
         vertex 1.472264e+002 4.972609e+001 0.000000e+000
         vertex 1.420000e+002 5.000000e+001 0.000000e+000
      endloop
   endfacet
   facet normal 3.488532e-002 9.993913e-001 0.000000e+000
      outer loop
         vertex 1.472264e+002 4.972609e+001 7.000000e+000
         vertex 1.420000e+002 5.000000e+001 0.000000e+000
         vertex 1.420000e+002 5.000000e+001 7.000000e+000
      endloop
   endfacet
   facet normal -3.488532e-002 9.993913e-001 0.000000e+000
      outer loop
         vertex 1.420000e+002 5.000000e+001 7.000000e+000
         vertex 1.420000e+002 5.000000e+001 0.000000e+000
         vertex 1.367736e+002 4.972609e+001 0.000000e+000
      endloop
   endfacet
   facet normal -6.977063e-002 9.975630e-001 0.000000e+000
      outer loop
         vertex 1.420000e+002 5.000000e+001 7.000000e+000
         vertex 1.367736e+002 4.972609e+001 0.000000e+000
         vertex 1.367736e+002 4.972609e+001 7.000000e+000
      endloop
   endfacet
   facet normal -1.391590e-001 9.902700e-001 0.000000e+000
      outer loop
         vertex 1.367736e+002 4.972609e+001 7.000000e+000
         vertex 1.367736e+002 4.972609e+001 0.000000e+000
         vertex 1.316044e+002 4.890738e+001 0.000000e+000
      endloop
   endfacet
   facet normal -1.736622e-001 9.848053e-001 0.000000e+000
      outer loop
         vertex 1.367736e+002 4.972609e+001 7.000000e+000
         vertex 1.316044e+002 4.890738e+001 0.000000e+000
         vertex 1.316044e+002 4.890738e+001 7.000000e+000
      endloop
   endfacet
   facet normal -2.419081e-001 9.702991e-001 0.000000e+000
      outer loop
         vertex 1.316044e+002 4.890738e+001 7.000000e+000
         vertex 1.316044e+002 4.890738e+001 0.000000e+000
         vertex 1.265492e+002 4.755283e+001 0.000000e+000
      endloop
   endfacet
   facet normal -2.756510e-001 9.612578e-001 0.000000e+000
      outer loop
         vertex 1.316044e+002 4.890738e+001 7.000000e+000
         vertex 1.265492e+002 4.755283e+001 0.000000e+000
         vertex 1.265492e+002 4.755283e+001 7.000000e+000
      endloop
   endfacet
   facet normal -3.420068e-001 9.396975e-001 0.000000e+000
      outer loop
         vertex 1.265492e+002 4.755283e+001 7.000000e+000
         vertex 1.265492e+002 4.755283e+001 0.000000e+000
         vertex 1.216632e+002 4.567727e+001 0.000000e+000
      endloop
   endfacet
   facet normal -3.746197e-001 9.271786e-001 0.000000e+000
      outer loop
         vertex 1.265492e+002 4.755283e+001 7.000000e+000
         vertex 1.216632e+002 4.567727e+001 0.000000e+000
         vertex 1.216632e+002 4.567727e+001 7.000000e+000
      endloop
   endfacet
   facet normal -4.383584e-001 8.988003e-001 0.000000e+000
      outer loop
         vertex 1.216632e+002 4.567727e+001 7.000000e+000
         vertex 1.216632e+002 4.567727e+001 0.000000e+000
         vertex 1.170000e+002 4.330127e+001 0.000000e+000
      endloop
   endfacet
   facet normal -4.694841e-001 8.829409e-001 0.000000e+000
      outer loop
         vertex 1.216632e+002 4.567727e+001 7.000000e+000
         vertex 1.170000e+002 4.330127e+001 0.000000e+000
         vertex 1.170000e+002 4.330127e+001 7.000000e+000
      endloop
   endfacet
   facet normal -5.299072e-001 8.480556e-001 0.000000e+000
      outer loop
         vertex 1.170000e+002 4.330127e+001 7.000000e+000
         vertex 1.170000e+002 4.330127e+001 0.000000e+000
         vertex 1.126107e+002 4.045085e+001 0.000000e+000
      endloop
   endfacet
   facet normal -5.592046e-001 8.290296e-001 0.000000e+000
      outer loop
         vertex 1.170000e+002 4.330127e+001 7.000000e+000
         vertex 1.126107e+002 4.045085e+001 0.000000e+000
         vertex 1.126107e+002 4.045085e+001 7.000000e+000
      endloop
   endfacet
   facet normal -6.156502e-001 7.880195e-001 0.000000e+000
      outer loop
         vertex 1.126107e+002 4.045085e+001 7.000000e+000
         vertex 1.126107e+002 4.045085e+001 0.000000e+000
         vertex 1.085435e+002 3.715724e+001 0.000000e+000
      endloop
   endfacet
   facet normal -6.427984e-001 7.660353e-001 0.000000e+000
      outer loop
         vertex 1.126107e+002 4.045085e+001 7.000000e+000
         vertex 1.085435e+002 3.715724e+001 0.000000e+000
         vertex 1.085435e+002 3.715724e+001 7.000000e+000
      endloop
   endfacet
   facet normal -6.946481e-001 7.193496e-001 0.000000e+000
      outer loop
         vertex 1.085435e+002 3.715724e+001 7.000000e+000
         vertex 1.085435e+002 3.715724e+001 0.000000e+000
         vertex 1.048428e+002 3.345653e+001 0.000000e+000
      endloop
   endfacet
   facet normal -7.193496e-001 6.946481e-001 0.000000e+000
      outer loop
         vertex 1.085435e+002 3.715724e+001 7.000000e+000
         vertex 1.048428e+002 3.345653e+001 0.000000e+000
         vertex 1.048428e+002 3.345653e+001 7.000000e+000
      endloop
   endfacet
   facet normal -7.660353e-001 6.427985e-001 0.000000e+000
      outer loop
         vertex 1.048428e+002 3.345653e+001 7.000000e+000
         vertex 1.048428e+002 3.345653e+001 0.000000e+000
         vertex 1.015491e+002 2.938926e+001 0.000000e+000
      endloop
   endfacet
   facet normal -7.880195e-001 6.156502e-001 0.000000e+000
      outer loop
         vertex 1.048428e+002 3.345653e+001 7.000000e+000
         vertex 1.015491e+002 2.938926e+001 0.000000e+000
         vertex 1.015491e+002 2.938926e+001 7.000000e+000
      endloop
   endfacet
   facet normal -8.290296e-001 5.592046e-001 0.000000e+000
      outer loop
         vertex 1.015491e+002 2.938926e+001 7.000000e+000
         vertex 1.015491e+002 2.938926e+001 0.000000e+000
         vertex 9.869873e+001 2.500000e+001 0.000000e+000
      endloop
   endfacet
   facet normal -8.480556e-001 5.299072e-001 0.000000e+000
      outer loop
         vertex 1.015491e+002 2.938926e+001 7.000000e+000
         vertex 9.869873e+001 2.500000e+001 0.000000e+000
         vertex 9.869873e+001 2.500000e+001 7.000000e+000
      endloop
   endfacet
   facet normal -8.829409e-001 4.694841e-001 0.000000e+000
      outer loop
         vertex 9.869873e+001 2.500000e+001 7.000000e+000
         vertex 9.869873e+001 2.500000e+001 0.000000e+000
         vertex 9.632273e+001 2.033683e+001 0.000000e+000
      endloop
   endfacet
   facet normal -8.988003e-001 4.383584e-001 0.000000e+000
      outer loop
         vertex 9.869873e+001 2.500000e+001 7.000000e+000
         vertex 9.632273e+001 2.033683e+001 0.000000e+000
         vertex 9.632273e+001 2.033683e+001 7.000000e+000
      endloop
   endfacet
   facet normal -9.271786e-001 3.746197e-001 0.000000e+000
      outer loop
         vertex 9.632273e+001 2.033683e+001 7.000000e+000
         vertex 9.632273e+001 2.033683e+001 0.000000e+000
         vertex 9.444717e+001 1.545085e+001 0.000000e+000
      endloop
   endfacet
   facet normal -9.396974e-001 3.420068e-001 0.000000e+000
      outer loop
         vertex 9.632273e+001 2.033683e+001 7.000000e+000
         vertex 9.444717e+001 1.545085e+001 0.000000e+000
         vertex 9.444717e+001 1.545085e+001 7.000000e+000
      endloop
   endfacet
   facet normal -9.612578e-001 2.756510e-001 0.000000e+000
      outer loop
         vertex 9.444717e+001 1.545085e+001 7.000000e+000
         vertex 9.444717e+001 1.545085e+001 0.000000e+000
         vertex 9.309262e+001 1.039559e+001 0.000000e+000
      endloop
   endfacet
   facet normal -9.702991e-001 2.419081e-001 0.000000e+000
      outer loop
         vertex 9.444717e+001 1.545085e+001 7.000000e+000
         vertex 9.309262e+001 1.039559e+001 0.000000e+000
         vertex 9.309262e+001 1.039559e+001 7.000000e+000
      endloop
   endfacet
   facet normal -9.848053e-001 1.736622e-001 0.000000e+000
      outer loop
         vertex 9.309262e+001 1.039559e+001 7.000000e+000
         vertex 9.309262e+001 1.039559e+001 0.000000e+000
         vertex 9.227390e+001 5.226423e+000 0.000000e+000
      endloop
   endfacet
   facet normal -9.902700e-001 1.391590e-001 0.000000e+000
      outer loop
         vertex 9.309262e+001 1.039559e+001 7.000000e+000
         vertex 9.227390e+001 5.226423e+000 0.000000e+000
         vertex 9.227390e+001 5.226423e+000 7.000000e+000
      endloop
   endfacet
   facet normal -9.975630e-001 6.977063e-002 0.000000e+000
      outer loop
         vertex 9.227390e+001 5.226423e+000 7.000000e+000
         vertex 9.227390e+001 5.226423e+000 0.000000e+000
         vertex 9.200000e+001 0.000000e+000 0.000000e+000
      endloop
   endfacet
   facet normal 0.000000e+000 0.000000e+000 1.000000e+000
      outer loop
         vertex 1.876773e+002 -2.033683e+001 7.000000e+000
         vertex 1.895528e+002 -1.545085e+001 7.000000e+000
         vertex 9.227390e+001 5.226423e+000 7.000000e+000
      endloop
   endfacet
   facet normal 0.000000e+000 0.000000e+000 1.000000e+000
      outer loop
         vertex 9.227390e+001 5.226423e+000 7.000000e+000
         vertex 1.895528e+002 -1.545085e+001 7.000000e+000
         vertex 1.909074e+002 -1.039559e+001 7.000000e+000
      endloop
   endfacet
   facet normal 0.000000e+000 0.000000e+000 1.000000e+000
      outer loop
         vertex 9.227390e+001 5.226423e+000 7.000000e+000
         vertex 1.909074e+002 -1.039559e+001 7.000000e+000
         vertex 9.309262e+001 1.039559e+001 7.000000e+000
      endloop
   endfacet
   facet normal 0.000000e+000 0.000000e+000 1.000000e+000
      outer loop
         vertex 9.309262e+001 1.039559e+001 7.000000e+000
         vertex 1.909074e+002 -1.039559e+001 7.000000e+000
         vertex 1.917261e+002 -5.226423e+000 7.000000e+000
      endloop
   endfacet
   facet normal 0.000000e+000 0.000000e+000 1.000000e+000
      outer loop
         vertex 1.917261e+002 -5.226423e+000 7.000000e+000
         vertex 1.920000e+002 6.123234e-015 7.000000e+000
         vertex 9.309262e+001 1.039559e+001 7.000000e+000
      endloop
   endfacet
   facet normal 0.000000e+000 0.000000e+000 1.000000e+000
      outer loop
         vertex 9.309262e+001 1.039559e+001 7.000000e+000
         vertex 1.920000e+002 6.123234e-015 7.000000e+000
         vertex 1.917261e+002 5.226423e+000 7.000000e+000
      endloop
   endfacet
   facet normal 0.000000e+000 0.000000e+000 1.000000e+000
      outer loop
         vertex 9.309262e+001 1.039559e+001 7.000000e+000
         vertex 1.917261e+002 5.226423e+000 7.000000e+000
         vertex 1.909074e+002 1.039559e+001 7.000000e+000
      endloop
   endfacet
   facet normal 0.000000e+000 0.000000e+000 1.000000e+000
      outer loop
         vertex 1.909074e+002 1.039559e+001 7.000000e+000
         vertex 1.895528e+002 1.545085e+001 7.000000e+000
         vertex 9.309262e+001 1.039559e+001 7.000000e+000
      endloop
   endfacet
   facet normal 0.000000e+000 0.000000e+000 1.000000e+000
      outer loop
         vertex 9.309262e+001 1.039559e+001 7.000000e+000
         vertex 1.895528e+002 1.545085e+001 7.000000e+000
         vertex 1.876773e+002 2.033683e+001 7.000000e+000
      endloop
   endfacet
   facet normal 0.000000e+000 0.000000e+000 1.000000e+000
      outer loop
         vertex 9.309262e+001 1.039559e+001 7.000000e+000
         vertex 1.876773e+002 2.033683e+001 7.000000e+000
         vertex 1.853013e+002 2.500000e+001 7.000000e+000
      endloop
   endfacet
   facet normal 0.000000e+000 0.000000e+000 1.000000e+000
      outer loop
         vertex 1.623368e+002 4.567727e+001 7.000000e+000
         vertex 1.015491e+002 2.938926e+001 7.000000e+000
         vertex 1.670000e+002 4.330127e+001 7.000000e+000
      endloop
   endfacet
   facet normal 0.000000e+000 0.000000e+000 1.000000e+000
      outer loop
         vertex 1.670000e+002 4.330127e+001 7.000000e+000
         vertex 1.015491e+002 2.938926e+001 7.000000e+000
         vertex 9.869873e+001 2.500000e+001 7.000000e+000
      endloop
   endfacet
   facet normal 0.000000e+000 0.000000e+000 1.000000e+000
      outer loop
         vertex 1.670000e+002 4.330127e+001 7.000000e+000
         vertex 9.869873e+001 2.500000e+001 7.000000e+000
         vertex 9.632273e+001 2.033683e+001 7.000000e+000
      endloop
   endfacet
   facet normal 0.000000e+000 0.000000e+000 1.000000e+000
      outer loop
         vertex 1.574509e+002 -4.755283e+001 7.000000e+000
         vertex 1.623368e+002 -4.567727e+001 7.000000e+000
         vertex 9.227390e+001 -5.226423e+000 7.000000e+000
      endloop
   endfacet
   facet normal 0.000000e+000 0.000000e+000 1.000000e+000
      outer loop
         vertex 1.824509e+002 -2.938926e+001 7.000000e+000
         vertex 9.227390e+001 -5.226423e+000 7.000000e+000
         vertex 1.791572e+002 -3.345653e+001 7.000000e+000
      endloop
   endfacet
   facet normal 0.000000e+000 0.000000e+000 1.000000e+000
      outer loop
         vertex 1.791572e+002 -3.345653e+001 7.000000e+000
         vertex 9.227390e+001 -5.226423e+000 7.000000e+000
         vertex 1.754565e+002 -3.715724e+001 7.000000e+000
      endloop
   endfacet
   facet normal 0.000000e+000 0.000000e+000 1.000000e+000
      outer loop
         vertex 9.227390e+001 5.226423e+000 7.000000e+000
         vertex 9.200000e+001 0.000000e+000 7.000000e+000
         vertex 1.876773e+002 -2.033683e+001 7.000000e+000
      endloop
   endfacet
   facet normal 0.000000e+000 0.000000e+000 1.000000e+000
      outer loop
         vertex 1.876773e+002 -2.033683e+001 7.000000e+000
         vertex 9.200000e+001 0.000000e+000 7.000000e+000
         vertex 9.227390e+001 -5.226423e+000 7.000000e+000
      endloop
   endfacet
   facet normal 0.000000e+000 0.000000e+000 1.000000e+000
      outer loop
         vertex 1.876773e+002 -2.033683e+001 7.000000e+000
         vertex 9.227390e+001 -5.226423e+000 7.000000e+000
         vertex 1.853013e+002 -2.500000e+001 7.000000e+000
      endloop
   endfacet
   facet normal 0.000000e+000 0.000000e+000 1.000000e+000
      outer loop
         vertex 1.853013e+002 -2.500000e+001 7.000000e+000
         vertex 9.227390e+001 -5.226423e+000 7.000000e+000
         vertex 1.824509e+002 -2.938926e+001 7.000000e+000
      endloop
   endfacet
   facet normal 0.000000e+000 0.000000e+000 1.000000e+000
      outer loop
         vertex 1.853013e+002 2.500000e+001 7.000000e+000
         vertex 1.824509e+002 2.938926e+001 7.000000e+000
         vertex 9.309262e+001 1.039559e+001 7.000000e+000
      endloop
   endfacet
   facet normal 0.000000e+000 0.000000e+000 1.000000e+000
      outer loop
         vertex 9.309262e+001 1.039559e+001 7.000000e+000
         vertex 1.824509e+002 2.938926e+001 7.000000e+000
         vertex 1.791572e+002 3.345653e+001 7.000000e+000
      endloop
   endfacet
   facet normal 0.000000e+000 0.000000e+000 1.000000e+000
      outer loop
         vertex 9.309262e+001 1.039559e+001 7.000000e+000
         vertex 1.791572e+002 3.345653e+001 7.000000e+000
         vertex 1.754565e+002 3.715724e+001 7.000000e+000
      endloop
   endfacet
   facet normal 0.000000e+000 0.000000e+000 1.000000e+000
      outer loop
         vertex 9.632273e+001 2.033683e+001 7.000000e+000
         vertex 9.444717e+001 1.545085e+001 7.000000e+000
         vertex 1.670000e+002 4.330127e+001 7.000000e+000
      endloop
   endfacet
   facet normal 0.000000e+000 0.000000e+000 1.000000e+000
      outer loop
         vertex 1.670000e+002 4.330127e+001 7.000000e+000
         vertex 9.444717e+001 1.545085e+001 7.000000e+000
         vertex 9.309262e+001 1.039559e+001 7.000000e+000
      endloop
   endfacet
   facet normal 0.000000e+000 0.000000e+000 1.000000e+000
      outer loop
         vertex 1.670000e+002 4.330127e+001 7.000000e+000
         vertex 9.309262e+001 1.039559e+001 7.000000e+000
         vertex 1.713893e+002 4.045085e+001 7.000000e+000
      endloop
   endfacet
   facet normal 0.000000e+000 0.000000e+000 1.000000e+000
      outer loop
         vertex 1.713893e+002 4.045085e+001 7.000000e+000
         vertex 9.309262e+001 1.039559e+001 7.000000e+000
         vertex 1.754565e+002 3.715724e+001 7.000000e+000
      endloop
   endfacet
   facet normal 0.000000e+000 0.000000e+000 1.000000e+000
      outer loop
         vertex 1.623368e+002 4.567727e+001 7.000000e+000
         vertex 1.574509e+002 4.755283e+001 7.000000e+000
         vertex 1.015491e+002 2.938926e+001 7.000000e+000
      endloop
   endfacet
   facet normal 0.000000e+000 0.000000e+000 1.000000e+000
      outer loop
         vertex 1.015491e+002 2.938926e+001 7.000000e+000
         vertex 1.574509e+002 4.755283e+001 7.000000e+000
         vertex 1.523956e+002 4.890738e+001 7.000000e+000
      endloop
   endfacet
   facet normal 0.000000e+000 0.000000e+000 1.000000e+000
      outer loop
         vertex 1.015491e+002 2.938926e+001 7.000000e+000
         vertex 1.523956e+002 4.890738e+001 7.000000e+000
         vertex 1.472264e+002 4.972609e+001 7.000000e+000
      endloop
   endfacet
   facet normal 0.000000e+000 0.000000e+000 1.000000e+000
      outer loop
         vertex 1.472264e+002 4.972609e+001 7.000000e+000
         vertex 1.420000e+002 5.000000e+001 7.000000e+000
         vertex 1.015491e+002 2.938926e+001 7.000000e+000
      endloop
   endfacet
   facet normal 0.000000e+000 0.000000e+000 1.000000e+000
      outer loop
         vertex 1.015491e+002 2.938926e+001 7.000000e+000
         vertex 1.420000e+002 5.000000e+001 7.000000e+000
         vertex 1.367736e+002 4.972609e+001 7.000000e+000
      endloop
   endfacet
   facet normal 0.000000e+000 0.000000e+000 1.000000e+000
      outer loop
         vertex 1.015491e+002 2.938926e+001 7.000000e+000
         vertex 1.367736e+002 4.972609e+001 7.000000e+000
         vertex 1.048428e+002 3.345653e+001 7.000000e+000
      endloop
   endfacet
   facet normal 0.000000e+000 0.000000e+000 1.000000e+000
      outer loop
         vertex 1.048428e+002 3.345653e+001 7.000000e+000
         vertex 1.367736e+002 4.972609e+001 7.000000e+000
         vertex 1.085435e+002 3.715724e+001 7.000000e+000
      endloop
   endfacet
   facet normal 0.000000e+000 0.000000e+000 1.000000e+000
      outer loop
         vertex 1.085435e+002 3.715724e+001 7.000000e+000
         vertex 1.367736e+002 4.972609e+001 7.000000e+000
         vertex 1.316044e+002 4.890738e+001 7.000000e+000
      endloop
   endfacet
   facet normal 0.000000e+000 0.000000e+000 1.000000e+000
      outer loop
         vertex 1.085435e+002 3.715724e+001 7.000000e+000
         vertex 1.316044e+002 4.890738e+001 7.000000e+000
         vertex 1.265492e+002 4.755283e+001 7.000000e+000
      endloop
   endfacet
   facet normal 0.000000e+000 0.000000e+000 1.000000e+000
      outer loop
         vertex 1.265492e+002 4.755283e+001 7.000000e+000
         vertex 1.216632e+002 4.567727e+001 7.000000e+000
         vertex 1.085435e+002 3.715724e+001 7.000000e+000
      endloop
   endfacet
   facet normal 0.000000e+000 0.000000e+000 1.000000e+000
      outer loop
         vertex 1.085435e+002 3.715724e+001 7.000000e+000
         vertex 1.216632e+002 4.567727e+001 7.000000e+000
         vertex 1.170000e+002 4.330127e+001 7.000000e+000
      endloop
   endfacet
   facet normal 0.000000e+000 0.000000e+000 1.000000e+000
      outer loop
         vertex 1.085435e+002 3.715724e+001 7.000000e+000
         vertex 1.170000e+002 4.330127e+001 7.000000e+000
         vertex 1.126107e+002 4.045085e+001 7.000000e+000
      endloop
   endfacet
   facet normal 0.000000e+000 0.000000e+000 1.000000e+000
      outer loop
         vertex 9.309262e+001 -1.039559e+001 7.000000e+000
         vertex 9.444717e+001 -1.545085e+001 7.000000e+000
         vertex 1.472264e+002 -4.972609e+001 7.000000e+000
      endloop
   endfacet
   facet normal 0.000000e+000 0.000000e+000 1.000000e+000
      outer loop
         vertex 1.472264e+002 -4.972609e+001 7.000000e+000
         vertex 9.444717e+001 -1.545085e+001 7.000000e+000
         vertex 9.632273e+001 -2.033683e+001 7.000000e+000
      endloop
   endfacet
   facet normal 0.000000e+000 0.000000e+000 1.000000e+000
      outer loop
         vertex 1.472264e+002 -4.972609e+001 7.000000e+000
         vertex 9.632273e+001 -2.033683e+001 7.000000e+000
         vertex 9.869873e+001 -2.500000e+001 7.000000e+000
      endloop
   endfacet
   facet normal 0.000000e+000 0.000000e+000 1.000000e+000
      outer loop
         vertex 9.309262e+001 -1.039559e+001 7.000000e+000
         vertex 1.472264e+002 -4.972609e+001 7.000000e+000
         vertex 9.227390e+001 -5.226423e+000 7.000000e+000
      endloop
   endfacet
   facet normal 0.000000e+000 0.000000e+000 1.000000e+000
      outer loop
         vertex 9.227390e+001 -5.226423e+000 7.000000e+000
         vertex 1.472264e+002 -4.972609e+001 7.000000e+000
         vertex 1.523956e+002 -4.890738e+001 7.000000e+000
      endloop
   endfacet
   facet normal 0.000000e+000 0.000000e+000 1.000000e+000
      outer loop
         vertex 9.227390e+001 -5.226423e+000 7.000000e+000
         vertex 1.523956e+002 -4.890738e+001 7.000000e+000
         vertex 1.574509e+002 -4.755283e+001 7.000000e+000
      endloop
   endfacet
   facet normal 0.000000e+000 0.000000e+000 1.000000e+000
      outer loop
         vertex 1.623368e+002 -4.567727e+001 7.000000e+000
         vertex 1.670000e+002 -4.330127e+001 7.000000e+000
         vertex 9.227390e+001 -5.226423e+000 7.000000e+000
      endloop
   endfacet
   facet normal 0.000000e+000 0.000000e+000 1.000000e+000
      outer loop
         vertex 9.227390e+001 -5.226423e+000 7.000000e+000
         vertex 1.670000e+002 -4.330127e+001 7.000000e+000
         vertex 1.713893e+002 -4.045085e+001 7.000000e+000
      endloop
   endfacet
   facet normal 0.000000e+000 0.000000e+000 1.000000e+000
      outer loop
         vertex 9.227390e+001 -5.226423e+000 7.000000e+000
         vertex 1.713893e+002 -4.045085e+001 7.000000e+000
         vertex 1.754565e+002 -3.715724e+001 7.000000e+000
      endloop
   endfacet
   facet normal 0.000000e+000 0.000000e+000 1.000000e+000
      outer loop
         vertex 1.472264e+002 -4.972609e+001 7.000000e+000
         vertex 1.085435e+002 -3.715724e+001 7.000000e+000
         vertex 1.126107e+002 -4.045085e+001 7.000000e+000
      endloop
   endfacet
   facet normal 0.000000e+000 0.000000e+000 1.000000e+000
      outer loop
         vertex 9.869873e+001 -2.500000e+001 7.000000e+000
         vertex 1.015491e+002 -2.938926e+001 7.000000e+000
         vertex 1.472264e+002 -4.972609e+001 7.000000e+000
      endloop
   endfacet
   facet normal 0.000000e+000 0.000000e+000 1.000000e+000
      outer loop
         vertex 1.472264e+002 -4.972609e+001 7.000000e+000
         vertex 1.015491e+002 -2.938926e+001 7.000000e+000
         vertex 1.048428e+002 -3.345653e+001 7.000000e+000
      endloop
   endfacet
   facet normal 0.000000e+000 0.000000e+000 1.000000e+000
      outer loop
         vertex 1.472264e+002 -4.972609e+001 7.000000e+000
         vertex 1.048428e+002 -3.345653e+001 7.000000e+000
         vertex 1.085435e+002 -3.715724e+001 7.000000e+000
      endloop
   endfacet
   facet normal 0.000000e+000 0.000000e+000 1.000000e+000
      outer loop
         vertex 1.126107e+002 -4.045085e+001 7.000000e+000
         vertex 1.170000e+002 -4.330127e+001 7.000000e+000
         vertex 1.472264e+002 -4.972609e+001 7.000000e+000
      endloop
   endfacet
   facet normal 0.000000e+000 0.000000e+000 1.000000e+000
      outer loop
         vertex 1.472264e+002 -4.972609e+001 7.000000e+000
         vertex 1.170000e+002 -4.330127e+001 7.000000e+000
         vertex 1.216632e+002 -4.567727e+001 7.000000e+000
      endloop
   endfacet
   facet normal 0.000000e+000 0.000000e+000 1.000000e+000
      outer loop
         vertex 1.472264e+002 -4.972609e+001 7.000000e+000
         vertex 1.216632e+002 -4.567727e+001 7.000000e+000
         vertex 1.265492e+002 -4.755283e+001 7.000000e+000
      endloop
   endfacet
   facet normal 0.000000e+000 0.000000e+000 1.000000e+000
      outer loop
         vertex 1.265492e+002 -4.755283e+001 7.000000e+000
         vertex 1.316044e+002 -4.890738e+001 7.000000e+000
         vertex 1.472264e+002 -4.972609e+001 7.000000e+000
      endloop
   endfacet
   facet normal 0.000000e+000 0.000000e+000 1.000000e+000
      outer loop
         vertex 1.472264e+002 -4.972609e+001 7.000000e+000
         vertex 1.316044e+002 -4.890738e+001 7.000000e+000
         vertex 1.367736e+002 -4.972609e+001 7.000000e+000
      endloop
   endfacet
   facet normal 0.000000e+000 0.000000e+000 1.000000e+000
      outer loop
         vertex 1.472264e+002 -4.972609e+001 7.000000e+000
         vertex 1.367736e+002 -4.972609e+001 7.000000e+000
         vertex 1.420000e+002 -5.000000e+001 7.000000e+000
      endloop
   endfacet
   facet normal 0.000000e+000 0.000000e+000 -1.000000e+000
      outer loop
         vertex 1.895528e+002 -1.545085e+001 0.000000e+000
         vertex 1.876773e+002 -2.033683e+001 0.000000e+000
         vertex 9.309262e+001 1.039559e+001 0.000000e+000
      endloop
   endfacet
   facet normal 0.000000e+000 0.000000e+000 -1.000000e+000
      outer loop
         vertex 1.853013e+002 2.500000e+001 0.000000e+000
         vertex 1.876773e+002 2.033683e+001 0.000000e+000
         vertex 9.309262e+001 1.039559e+001 0.000000e+000
      endloop
   endfacet
   facet normal 0.000000e+000 0.000000e+000 -1.000000e+000
      outer loop
         vertex 9.309262e+001 1.039559e+001 0.000000e+000
         vertex 1.917261e+002 5.226423e+000 0.000000e+000
         vertex 1.920000e+002 1.836970e-014 0.000000e+000
      endloop
   endfacet
   facet normal 0.000000e+000 0.000000e+000 -1.000000e+000
      outer loop
         vertex 9.444717e+001 1.545085e+001 0.000000e+000
         vertex 9.632273e+001 2.033683e+001 0.000000e+000
         vertex 1.670000e+002 4.330127e+001 0.000000e+000
      endloop
   endfacet
   facet normal 0.000000e+000 0.000000e+000 -1.000000e+000
      outer loop
         vertex 1.670000e+002 4.330127e+001 0.000000e+000
         vertex 9.632273e+001 2.033683e+001 0.000000e+000
         vertex 9.869873e+001 2.500000e+001 0.000000e+000
      endloop
   endfacet
   facet normal 0.000000e+000 0.000000e+000 -1.000000e+000
      outer loop
         vertex 1.670000e+002 4.330127e+001 0.000000e+000
         vertex 9.869873e+001 2.500000e+001 0.000000e+000
         vertex 1.015491e+002 2.938926e+001 0.000000e+000
      endloop
   endfacet
   facet normal 0.000000e+000 0.000000e+000 -1.000000e+000
      outer loop
         vertex 1.015491e+002 2.938926e+001 0.000000e+000
         vertex 1.048428e+002 3.345653e+001 0.000000e+000
         vertex 1.670000e+002 4.330127e+001 0.000000e+000
      endloop
   endfacet
   facet normal 0.000000e+000 0.000000e+000 -1.000000e+000
      outer loop
         vertex 1.670000e+002 4.330127e+001 0.000000e+000
         vertex 1.048428e+002 3.345653e+001 0.000000e+000
         vertex 1.085435e+002 3.715724e+001 0.000000e+000
      endloop
   endfacet
   facet normal 0.000000e+000 0.000000e+000 -1.000000e+000
      outer loop
         vertex 1.670000e+002 4.330127e+001 0.000000e+000
         vertex 1.085435e+002 3.715724e+001 0.000000e+000
         vertex 1.623368e+002 4.567727e+001 0.000000e+000
      endloop
   endfacet
   facet normal 0.000000e+000 0.000000e+000 -1.000000e+000
      outer loop
         vertex 1.920000e+002 1.836970e-014 0.000000e+000
         vertex 1.917261e+002 -5.226423e+000 0.000000e+000
         vertex 9.309262e+001 1.039559e+001 0.000000e+000
      endloop
   endfacet
   facet normal 0.000000e+000 0.000000e+000 -1.000000e+000
      outer loop
         vertex 9.309262e+001 1.039559e+001 0.000000e+000
         vertex 1.917261e+002 -5.226423e+000 0.000000e+000
         vertex 1.909074e+002 -1.039559e+001 0.000000e+000
      endloop
   endfacet
   facet normal 0.000000e+000 0.000000e+000 -1.000000e+000
      outer loop
         vertex 9.309262e+001 1.039559e+001 0.000000e+000
         vertex 1.909074e+002 -1.039559e+001 0.000000e+000
         vertex 1.895528e+002 -1.545085e+001 0.000000e+000
      endloop
   endfacet
   facet normal 0.000000e+000 0.000000e+000 -1.000000e+000
      outer loop
         vertex 9.227390e+001 -5.226423e+000 0.000000e+000
         vertex 9.200000e+001 0.000000e+000 0.000000e+000
         vertex 1.876773e+002 -2.033683e+001 0.000000e+000
      endloop
   endfacet
   facet normal 0.000000e+000 0.000000e+000 -1.000000e+000
      outer loop
         vertex 1.876773e+002 -2.033683e+001 0.000000e+000
         vertex 9.200000e+001 0.000000e+000 0.000000e+000
         vertex 9.227390e+001 5.226423e+000 0.000000e+000
      endloop
   endfacet
   facet normal 0.000000e+000 0.000000e+000 -1.000000e+000
      outer loop
         vertex 1.876773e+002 -2.033683e+001 0.000000e+000
         vertex 9.227390e+001 5.226423e+000 0.000000e+000
         vertex 9.309262e+001 1.039559e+001 0.000000e+000
      endloop
   endfacet
   facet normal 0.000000e+000 0.000000e+000 -1.000000e+000
      outer loop
         vertex 1.126107e+002 4.045085e+001 0.000000e+000
         vertex 1.170000e+002 4.330127e+001 0.000000e+000
         vertex 1.367736e+002 4.972609e+001 0.000000e+000
      endloop
   endfacet
   facet normal 0.000000e+000 0.000000e+000 -1.000000e+000
      outer loop
         vertex 1.876773e+002 2.033683e+001 0.000000e+000
         vertex 1.895528e+002 1.545085e+001 0.000000e+000
         vertex 9.309262e+001 1.039559e+001 0.000000e+000
      endloop
   endfacet
   facet normal 0.000000e+000 0.000000e+000 -1.000000e+000
      outer loop
         vertex 9.309262e+001 1.039559e+001 0.000000e+000
         vertex 1.895528e+002 1.545085e+001 0.000000e+000
         vertex 1.909074e+002 1.039559e+001 0.000000e+000
      endloop
   endfacet
   facet normal 0.000000e+000 0.000000e+000 -1.000000e+000
      outer loop
         vertex 9.309262e+001 1.039559e+001 0.000000e+000
         vertex 1.909074e+002 1.039559e+001 0.000000e+000
         vertex 1.917261e+002 5.226423e+000 0.000000e+000
      endloop
   endfacet
   facet normal 0.000000e+000 0.000000e+000 -1.000000e+000
      outer loop
         vertex 9.444717e+001 1.545085e+001 0.000000e+000
         vertex 1.670000e+002 4.330127e+001 0.000000e+000
         vertex 9.309262e+001 1.039559e+001 0.000000e+000
      endloop
   endfacet
   facet normal 0.000000e+000 0.000000e+000 -1.000000e+000
      outer loop
         vertex 9.309262e+001 1.039559e+001 0.000000e+000
         vertex 1.670000e+002 4.330127e+001 0.000000e+000
         vertex 1.713893e+002 4.045085e+001 0.000000e+000
      endloop
   endfacet
   facet normal 0.000000e+000 0.000000e+000 -1.000000e+000
      outer loop
         vertex 9.309262e+001 1.039559e+001 0.000000e+000
         vertex 1.713893e+002 4.045085e+001 0.000000e+000
         vertex 1.754565e+002 3.715724e+001 0.000000e+000
      endloop
   endfacet
   facet normal 0.000000e+000 0.000000e+000 -1.000000e+000
      outer loop
         vertex 1.754565e+002 3.715724e+001 0.000000e+000
         vertex 1.791572e+002 3.345653e+001 0.000000e+000
         vertex 9.309262e+001 1.039559e+001 0.000000e+000
      endloop
   endfacet
   facet normal 0.000000e+000 0.000000e+000 -1.000000e+000
      outer loop
         vertex 9.309262e+001 1.039559e+001 0.000000e+000
         vertex 1.791572e+002 3.345653e+001 0.000000e+000
         vertex 1.824509e+002 2.938926e+001 0.000000e+000
      endloop
   endfacet
   facet normal 0.000000e+000 0.000000e+000 -1.000000e+000
      outer loop
         vertex 9.309262e+001 1.039559e+001 0.000000e+000
         vertex 1.824509e+002 2.938926e+001 0.000000e+000
         vertex 1.853013e+002 2.500000e+001 0.000000e+000
      endloop
   endfacet
   facet normal 0.000000e+000 0.000000e+000 -1.000000e+000
      outer loop
         vertex 1.876773e+002 -2.033683e+001 0.000000e+000
         vertex 1.853013e+002 -2.500000e+001 0.000000e+000
         vertex 9.227390e+001 -5.226423e+000 0.000000e+000
      endloop
   endfacet
   facet normal 0.000000e+000 0.000000e+000 -1.000000e+000
      outer loop
         vertex 9.227390e+001 -5.226423e+000 0.000000e+000
         vertex 1.853013e+002 -2.500000e+001 0.000000e+000
         vertex 1.824509e+002 -2.938926e+001 0.000000e+000
      endloop
   endfacet
   facet normal 0.000000e+000 0.000000e+000 -1.000000e+000
      outer loop
         vertex 9.227390e+001 -5.226423e+000 0.000000e+000
         vertex 1.824509e+002 -2.938926e+001 0.000000e+000
         vertex 1.791572e+002 -3.345653e+001 0.000000e+000
      endloop
   endfacet
   facet normal 0.000000e+000 0.000000e+000 -1.000000e+000
      outer loop
         vertex 1.170000e+002 4.330127e+001 0.000000e+000
         vertex 1.216632e+002 4.567727e+001 0.000000e+000
         vertex 1.367736e+002 4.972609e+001 0.000000e+000
      endloop
   endfacet
   facet normal 0.000000e+000 0.000000e+000 -1.000000e+000
      outer loop
         vertex 1.367736e+002 4.972609e+001 0.000000e+000
         vertex 1.216632e+002 4.567727e+001 0.000000e+000
         vertex 1.265492e+002 4.755283e+001 0.000000e+000
      endloop
   endfacet
   facet normal 0.000000e+000 0.000000e+000 -1.000000e+000
      outer loop
         vertex 1.367736e+002 4.972609e+001 0.000000e+000
         vertex 1.265492e+002 4.755283e+001 0.000000e+000
         vertex 1.316044e+002 4.890738e+001 0.000000e+000
      endloop
   endfacet
   facet normal 0.000000e+000 0.000000e+000 -1.000000e+000
      outer loop
         vertex 1.126107e+002 4.045085e+001 0.000000e+000
         vertex 1.367736e+002 4.972609e+001 0.000000e+000
         vertex 1.085435e+002 3.715724e+001 0.000000e+000
      endloop
   endfacet
   facet normal 0.000000e+000 0.000000e+000 -1.000000e+000
      outer loop
         vertex 1.085435e+002 3.715724e+001 0.000000e+000
         vertex 1.367736e+002 4.972609e+001 0.000000e+000
         vertex 1.420000e+002 5.000000e+001 0.000000e+000
      endloop
   endfacet
   facet normal 0.000000e+000 0.000000e+000 -1.000000e+000
      outer loop
         vertex 1.085435e+002 3.715724e+001 0.000000e+000
         vertex 1.420000e+002 5.000000e+001 0.000000e+000
         vertex 1.472264e+002 4.972609e+001 0.000000e+000
      endloop
   endfacet
   facet normal 0.000000e+000 0.000000e+000 -1.000000e+000
      outer loop
         vertex 1.472264e+002 4.972609e+001 0.000000e+000
         vertex 1.523956e+002 4.890738e+001 0.000000e+000
         vertex 1.085435e+002 3.715724e+001 0.000000e+000
      endloop
   endfacet
   facet normal 0.000000e+000 0.000000e+000 -1.000000e+000
      outer loop
         vertex 1.085435e+002 3.715724e+001 0.000000e+000
         vertex 1.523956e+002 4.890738e+001 0.000000e+000
         vertex 1.574509e+002 4.755283e+001 0.000000e+000
      endloop
   endfacet
   facet normal 0.000000e+000 0.000000e+000 -1.000000e+000
      outer loop
         vertex 1.085435e+002 3.715724e+001 0.000000e+000
         vertex 1.574509e+002 4.755283e+001 0.000000e+000
         vertex 1.623368e+002 4.567727e+001 0.000000e+000
      endloop
   endfacet
   facet normal 0.000000e+000 0.000000e+000 -1.000000e+000
      outer loop
         vertex 1.791572e+002 -3.345653e+001 0.000000e+000
         vertex 1.754565e+002 -3.715724e+001 0.000000e+000
         vertex 9.227390e+001 -5.226423e+000 0.000000e+000
      endloop
   endfacet
   facet normal 0.000000e+000 0.000000e+000 -1.000000e+000
      outer loop
         vertex 9.227390e+001 -5.226423e+000 0.000000e+000
         vertex 1.754565e+002 -3.715724e+001 0.000000e+000
         vertex 1.713893e+002 -4.045085e+001 0.000000e+000
      endloop
   endfacet
   facet normal 0.000000e+000 0.000000e+000 -1.000000e+000
      outer loop
         vertex 9.227390e+001 -5.226423e+000 0.000000e+000
         vertex 1.713893e+002 -4.045085e+001 0.000000e+000
         vertex 1.670000e+002 -4.330127e+001 0.000000e+000
      endloop
   endfacet
   facet normal 0.000000e+000 0.000000e+000 -1.000000e+000
      outer loop
         vertex 1.670000e+002 -4.330127e+001 0.000000e+000
         vertex 1.623368e+002 -4.567727e+001 0.000000e+000
         vertex 9.227390e+001 -5.226423e+000 0.000000e+000
      endloop
   endfacet
   facet normal 0.000000e+000 0.000000e+000 -1.000000e+000
      outer loop
         vertex 9.227390e+001 -5.226423e+000 0.000000e+000
         vertex 1.623368e+002 -4.567727e+001 0.000000e+000
         vertex 1.574509e+002 -4.755283e+001 0.000000e+000
      endloop
   endfacet
   facet normal 0.000000e+000 0.000000e+000 -1.000000e+000
      outer loop
         vertex 9.227390e+001 -5.226423e+000 0.000000e+000
         vertex 1.574509e+002 -4.755283e+001 0.000000e+000
         vertex 1.523956e+002 -4.890738e+001 0.000000e+000
      endloop
   endfacet
   facet normal 0.000000e+000 0.000000e+000 -1.000000e+000
      outer loop
         vertex 1.523956e+002 -4.890738e+001 0.000000e+000
         vertex 1.472264e+002 -4.972609e+001 0.000000e+000
         vertex 9.227390e+001 -5.226423e+000 0.000000e+000
      endloop
   endfacet
   facet normal 0.000000e+000 0.000000e+000 -1.000000e+000
      outer loop
         vertex 9.227390e+001 -5.226423e+000 0.000000e+000
         vertex 1.472264e+002 -4.972609e+001 0.000000e+000
         vertex 1.420000e+002 -5.000000e+001 0.000000e+000
      endloop
   endfacet
   facet normal 0.000000e+000 0.000000e+000 -1.000000e+000
      outer loop
         vertex 9.227390e+001 -5.226423e+000 0.000000e+000
         vertex 1.420000e+002 -5.000000e+001 0.000000e+000
         vertex 1.367736e+002 -4.972609e+001 0.000000e+000
      endloop
   endfacet
   facet normal 0.000000e+000 0.000000e+000 -1.000000e+000
      outer loop
         vertex 1.367736e+002 -4.972609e+001 0.000000e+000
         vertex 1.316044e+002 -4.890738e+001 0.000000e+000
         vertex 9.227390e+001 -5.226423e+000 0.000000e+000
      endloop
   endfacet
   facet normal 0.000000e+000 0.000000e+000 -1.000000e+000
      outer loop
         vertex 9.227390e+001 -5.226423e+000 0.000000e+000
         vertex 1.316044e+002 -4.890738e+001 0.000000e+000
         vertex 1.265492e+002 -4.755283e+001 0.000000e+000
      endloop
   endfacet
   facet normal 0.000000e+000 0.000000e+000 -1.000000e+000
      outer loop
         vertex 9.227390e+001 -5.226423e+000 0.000000e+000
         vertex 1.265492e+002 -4.755283e+001 0.000000e+000
         vertex 1.216632e+002 -4.567727e+001 0.000000e+000
      endloop
   endfacet
   facet normal 0.000000e+000 0.000000e+000 -1.000000e+000
      outer loop
         vertex 1.216632e+002 -4.567727e+001 0.000000e+000
         vertex 1.170000e+002 -4.330127e+001 0.000000e+000
         vertex 9.227390e+001 -5.226423e+000 0.000000e+000
      endloop
   endfacet
   facet normal 0.000000e+000 0.000000e+000 -1.000000e+000
      outer loop
         vertex 9.227390e+001 -5.226423e+000 0.000000e+000
         vertex 1.170000e+002 -4.330127e+001 0.000000e+000
         vertex 1.126107e+002 -4.045085e+001 0.000000e+000
      endloop
   endfacet
   facet normal 0.000000e+000 0.000000e+000 -1.000000e+000
      outer loop
         vertex 9.227390e+001 -5.226423e+000 0.000000e+000
         vertex 1.126107e+002 -4.045085e+001 0.000000e+000
         vertex 1.085435e+002 -3.715724e+001 0.000000e+000
      endloop
   endfacet
   facet normal 0.000000e+000 0.000000e+000 -1.000000e+000
      outer loop
         vertex 1.085435e+002 -3.715724e+001 0.000000e+000
         vertex 1.048428e+002 -3.345653e+001 0.000000e+000
         vertex 9.227390e+001 -5.226423e+000 0.000000e+000
      endloop
   endfacet
   facet normal 0.000000e+000 0.000000e+000 -1.000000e+000
      outer loop
         vertex 9.227390e+001 -5.226423e+000 0.000000e+000
         vertex 1.048428e+002 -3.345653e+001 0.000000e+000
         vertex 1.015491e+002 -2.938926e+001 0.000000e+000
      endloop
   endfacet
   facet normal 0.000000e+000 0.000000e+000 -1.000000e+000
      outer loop
         vertex 9.227390e+001 -5.226423e+000 0.000000e+000
         vertex 1.015491e+002 -2.938926e+001 0.000000e+000
         vertex 9.869873e+001 -2.500000e+001 0.000000e+000
      endloop
   endfacet
   facet normal 0.000000e+000 0.000000e+000 -1.000000e+000
      outer loop
         vertex 9.869873e+001 -2.500000e+001 0.000000e+000
         vertex 9.632273e+001 -2.033683e+001 0.000000e+000
         vertex 9.227390e+001 -5.226423e+000 0.000000e+000
      endloop
   endfacet
   facet normal 0.000000e+000 0.000000e+000 -1.000000e+000
      outer loop
         vertex 9.227390e+001 -5.226423e+000 0.000000e+000
         vertex 9.632273e+001 -2.033683e+001 0.000000e+000
         vertex 9.444717e+001 -1.545085e+001 0.000000e+000
      endloop
   endfacet
   facet normal 0.000000e+000 0.000000e+000 -1.000000e+000
      outer loop
         vertex 9.227390e+001 -5.226423e+000 0.000000e+000
         vertex 9.444717e+001 -1.545085e+001 0.000000e+000
         vertex 9.309262e+001 -1.039559e+001 0.000000e+000
      endloop
   endfacet
endsolid