solid Bati_PlaqueFront_Défaut_sldprt
   facet normal -1.000000e+000 0.000000e+000 0.000000e+000
      outer loop
         vertex 0.000000e+000 8.300000e+001 -8.000000e+000
         vertex 0.000000e+000 0.000000e+000 -8.000000e+000
         vertex 0.000000e+000 8.300000e+001 0.000000e+000
      endloop
   endfacet
   facet normal -1.000000e+000 0.000000e+000 0.000000e+000
      outer loop
         vertex 0.000000e+000 8.300000e+001 0.000000e+000
         vertex 0.000000e+000 0.000000e+000 -8.000000e+000
         vertex 0.000000e+000 0.000000e+000 0.000000e+000
      endloop
   endfacet
   facet normal 0.000000e+000 1.000000e+000 0.000000e+000
      outer loop
         vertex 9.380000e+002 8.300000e+001 -8.000000e+000
         vertex 0.000000e+000 8.300000e+001 -8.000000e+000
         vertex 9.380000e+002 8.300000e+001 0.000000e+000
      endloop
   endfacet
   facet normal 0.000000e+000 1.000000e+000 0.000000e+000
      outer loop
         vertex 9.380000e+002 8.300000e+001 0.000000e+000
         vertex 0.000000e+000 8.300000e+001 -8.000000e+000
         vertex 0.000000e+000 8.300000e+001 0.000000e+000
      endloop
   endfacet
   facet normal 1.000000e+000 0.000000e+000 0.000000e+000
      outer loop
         vertex 9.380000e+002 0.000000e+000 -8.000000e+000
         vertex 9.380000e+002 8.300000e+001 -8.000000e+000
         vertex 9.380000e+002 0.000000e+000 0.000000e+000
      endloop
   endfacet
   facet normal 1.000000e+000 0.000000e+000 0.000000e+000
      outer loop
         vertex 9.380000e+002 0.000000e+000 0.000000e+000
         vertex 9.380000e+002 8.300000e+001 -8.000000e+000
         vertex 9.380000e+002 8.300000e+001 0.000000e+000
      endloop
   endfacet
   facet normal 0.000000e+000 -1.000000e+000 0.000000e+000
      outer loop
         vertex 0.000000e+000 0.000000e+000 -8.000000e+000
         vertex 9.380000e+002 0.000000e+000 -8.000000e+000
         vertex 0.000000e+000 0.000000e+000 0.000000e+000
      endloop
   endfacet
   facet normal 0.000000e+000 -1.000000e+000 0.000000e+000
      outer loop
         vertex 0.000000e+000 0.000000e+000 0.000000e+000
         vertex 9.380000e+002 0.000000e+000 -8.000000e+000
         vertex 9.380000e+002 0.000000e+000 0.000000e+000
      endloop
   endfacet
   facet normal 0.000000e+000 0.000000e+000 -1.000000e+000
      outer loop
         vertex 9.380000e+002 8.300000e+001 -8.000000e+000
         vertex 9.380000e+002 0.000000e+000 -8.000000e+000
         vertex 0.000000e+000 8.300000e+001 -8.000000e+000
      endloop
   endfacet
   facet normal 0.000000e+000 0.000000e+000 -1.000000e+000
      outer loop
         vertex 0.000000e+000 8.300000e+001 -8.000000e+000
         vertex 9.380000e+002 0.000000e+000 -8.000000e+000
         vertex 0.000000e+000 0.000000e+000 -8.000000e+000
      endloop
   endfacet
   facet normal 0.000000e+000 0.000000e+000 1.000000e+000
      outer loop
         vertex 9.380000e+002 0.000000e+000 0.000000e+000
         vertex 9.380000e+002 8.300000e+001 0.000000e+000
         vertex 0.000000e+000 0.000000e+000 0.000000e+000
      endloop
   endfacet
   facet normal 0.000000e+000 0.000000e+000 1.000000e+000
      outer loop
         vertex 0.000000e+000 0.000000e+000 0.000000e+000
         vertex 9.380000e+002 8.300000e+001 0.000000e+000
         vertex 0.000000e+000 8.300000e+001 0.000000e+000
      endloop
   endfacet
endsolid