solid Tirant_Défaut_sldprt
   facet normal -9.983119e-001 5.807913e-002 0.000000e+000
      outer loop
         vertex -2.954423e+000 5.209445e-001 3.340000e+002
         vertex -3.000000e+000 0.000000e+000 1.000000e+000
         vertex -3.000000e+000 0.000000e+000 3.340000e+002
      endloop
   endfacet
   facet normal -9.983119e-001 -5.807913e-002 0.000000e+000
      outer loop
         vertex -3.000000e+000 0.000000e+000 3.340000e+002
         vertex -3.000000e+000 0.000000e+000 1.000000e+000
         vertex -2.954423e+000 -5.209445e-001 1.000000e+000
      endloop
   endfacet
   facet normal -9.932307e-001 -1.161583e-001 0.000000e+000
      outer loop
         vertex -3.000000e+000 0.000000e+000 3.340000e+002
         vertex -2.954423e+000 -5.209445e-001 1.000000e+000
         vertex -2.954423e+000 -5.209445e-001 3.340000e+002
      endloop
   endfacet
   facet normal -9.730600e-001 -2.305519e-001 0.000000e+000
      outer loop
         vertex -2.954423e+000 -5.209445e-001 3.340000e+002
         vertex -2.954423e+000 -5.209445e-001 1.000000e+000
         vertex -2.819078e+000 -1.026060e+000 1.000000e+000
      endloop
   endfacet
   facet normal -9.579706e-001 -2.868663e-001 0.000000e+000
      outer loop
         vertex -2.954423e+000 -5.209445e-001 3.340000e+002
         vertex -2.819078e+000 -1.026060e+000 1.000000e+000
         vertex -2.819078e+000 -1.026060e+000 3.340000e+002
      endloop
   endfacet
   facet normal -9.182422e-001 -3.960194e-001 0.000000e+000
      outer loop
         vertex -2.819078e+000 -1.026060e+000 3.340000e+002
         vertex -2.819078e+000 -1.026060e+000 1.000000e+000
         vertex -2.598076e+000 -1.500000e+000 1.000000e+000
      endloop
   endfacet
   facet normal -8.936031e-001 -4.488580e-001 0.000000e+000
      outer loop
         vertex -2.819078e+000 -1.026060e+000 3.340000e+002
         vertex -2.598076e+000 -1.500000e+000 1.000000e+000
         vertex -2.598076e+000 -1.500000e+000 3.340000e+002
      endloop
   endfacet
   facet normal -8.355240e-001 -5.494540e-001 0.000000e+000
      outer loop
         vertex -2.598076e+000 -1.500000e+000 3.340000e+002
         vertex -2.598076e+000 -1.500000e+000 1.000000e+000
         vertex -2.298133e+000 -1.928363e+000 1.000000e+000
      endloop
   endfacet
   facet normal -8.020838e-001 -5.972114e-001 0.000000e+000
      outer loop
         vertex -2.598076e+000 -1.500000e+000 3.340000e+002
         vertex -2.298133e+000 -1.928363e+000 1.000000e+000
         vertex -2.298133e+000 -1.928363e+000 3.340000e+002
      endloop
   endfacet
   facet normal -7.274188e-001 -6.861938e-001 0.000000e+000
      outer loop
         vertex -2.298133e+000 -1.928363e+000 3.340000e+002
         vertex -2.298133e+000 -1.928363e+000 1.000000e+000
         vertex -1.928363e+000 -2.298133e+000 1.000000e+000
      endloop
   endfacet
   facet normal -6.861938e-001 -7.274188e-001 0.000000e+000
      outer loop
         vertex -2.298133e+000 -1.928363e+000 3.340000e+002
         vertex -1.928363e+000 -2.298133e+000 1.000000e+000
         vertex -1.928363e+000 -2.298133e+000 3.340000e+002
      endloop
   endfacet
   facet normal -5.972114e-001 -8.020838e-001 0.000000e+000
      outer loop
         vertex -1.928363e+000 -2.298133e+000 3.340000e+002
         vertex -1.928363e+000 -2.298133e+000 1.000000e+000
         vertex -1.500000e+000 -2.598076e+000 1.000000e+000
      endloop
   endfacet
   facet normal -5.494540e-001 -8.355240e-001 0.000000e+000
      outer loop
         vertex -1.928363e+000 -2.298133e+000 3.340000e+002
         vertex -1.500000e+000 -2.598076e+000 1.000000e+000
         vertex -1.500000e+000 -2.598076e+000 3.340000e+002
      endloop
   endfacet
   facet normal -4.488580e-001 -8.936031e-001 0.000000e+000
      outer loop
         vertex -1.500000e+000 -2.598076e+000 3.340000e+002
         vertex -1.500000e+000 -2.598076e+000 1.000000e+000
         vertex -1.026060e+000 -2.819078e+000 1.000000e+000
      endloop
   endfacet
   facet normal -3.960194e-001 -9.182422e-001 0.000000e+000
      outer loop
         vertex -1.500000e+000 -2.598076e+000 3.340000e+002
         vertex -1.026060e+000 -2.819078e+000 1.000000e+000
         vertex -1.026060e+000 -2.819078e+000 3.340000e+002
      endloop
   endfacet
   facet normal -2.868663e-001 -9.579706e-001 0.000000e+000
      outer loop
         vertex -1.026060e+000 -2.819078e+000 3.340000e+002
         vertex -1.026060e+000 -2.819078e+000 1.000000e+000
         vertex -5.209445e-001 -2.954423e+000 1.000000e+000
      endloop
   endfacet
   facet normal -2.305519e-001 -9.730600e-001 0.000000e+000
      outer loop
         vertex -1.026060e+000 -2.819078e+000 3.340000e+002
         vertex -5.209445e-001 -2.954423e+000 1.000000e+000
         vertex -5.209445e-001 -2.954423e+000 3.340000e+002
      endloop
   endfacet
   facet normal -1.161583e-001 -9.932307e-001 0.000000e+000
      outer loop
         vertex -5.209445e-001 -2.954423e+000 3.340000e+002
         vertex -5.209445e-001 -2.954423e+000 1.000000e+000
         vertex 5.510910e-016 -3.000000e+000 1.000000e+000
      endloop
   endfacet
   facet normal -5.807913e-002 -9.983119e-001 0.000000e+000
      outer loop
         vertex -5.209445e-001 -2.954423e+000 3.340000e+002
         vertex 5.510910e-016 -3.000000e+000 1.000000e+000
         vertex 5.510910e-016 -3.000000e+000 3.340000e+002
      endloop
   endfacet
   facet normal 5.807913e-002 -9.983119e-001 0.000000e+000
      outer loop
         vertex 5.510910e-016 -3.000000e+000 3.340000e+002
         vertex 5.510910e-016 -3.000000e+000 1.000000e+000
         vertex 5.209445e-001 -2.954423e+000 1.000000e+000
      endloop
   endfacet
   facet normal 1.161583e-001 -9.932307e-001 0.000000e+000
      outer loop
         vertex 5.510910e-016 -3.000000e+000 3.340000e+002
         vertex 5.209445e-001 -2.954423e+000 1.000000e+000
         vertex 5.209445e-001 -2.954423e+000 3.340000e+002
      endloop
   endfacet
   facet normal 2.305519e-001 -9.730600e-001 0.000000e+000
      outer loop
         vertex 5.209445e-001 -2.954423e+000 3.340000e+002
         vertex 5.209445e-001 -2.954423e+000 1.000000e+000
         vertex 1.026060e+000 -2.819078e+000 1.000000e+000
      endloop
   endfacet
   facet normal 2.868663e-001 -9.579706e-001 0.000000e+000
      outer loop
         vertex 5.209445e-001 -2.954423e+000 3.340000e+002
         vertex 1.026060e+000 -2.819078e+000 1.000000e+000
         vertex 1.026060e+000 -2.819078e+000 3.340000e+002
      endloop
   endfacet
   facet normal 3.960194e-001 -9.182422e-001 0.000000e+000
      outer loop
         vertex 1.026060e+000 -2.819078e+000 3.340000e+002
         vertex 1.026060e+000 -2.819078e+000 1.000000e+000
         vertex 1.500000e+000 -2.598076e+000 1.000000e+000
      endloop
   endfacet
   facet normal 4.488580e-001 -8.936031e-001 0.000000e+000
      outer loop
         vertex 1.026060e+000 -2.819078e+000 3.340000e+002
         vertex 1.500000e+000 -2.598076e+000 1.000000e+000
         vertex 1.500000e+000 -2.598076e+000 3.340000e+002
      endloop
   endfacet
   facet normal 5.494540e-001 -8.355240e-001 0.000000e+000
      outer loop
         vertex 1.500000e+000 -2.598076e+000 3.340000e+002
         vertex 1.500000e+000 -2.598076e+000 1.000000e+000
         vertex 1.928363e+000 -2.298133e+000 1.000000e+000
      endloop
   endfacet
   facet normal 5.972114e-001 -8.020838e-001 0.000000e+000
      outer loop
         vertex 1.500000e+000 -2.598076e+000 3.340000e+002
         vertex 1.928363e+000 -2.298133e+000 1.000000e+000
         vertex 1.928363e+000 -2.298133e+000 3.340000e+002
      endloop
   endfacet
   facet normal 6.861938e-001 -7.274188e-001 0.000000e+000
      outer loop
         vertex 1.928363e+000 -2.298133e+000 3.340000e+002
         vertex 1.928363e+000 -2.298133e+000 1.000000e+000
         vertex 2.298133e+000 -1.928363e+000 1.000000e+000
      endloop
   endfacet
   facet normal 7.274188e-001 -6.861938e-001 0.000000e+000
      outer loop
         vertex 1.928363e+000 -2.298133e+000 3.340000e+002
         vertex 2.298133e+000 -1.928363e+000 1.000000e+000
         vertex 2.298133e+000 -1.928363e+000 3.340000e+002
      endloop
   endfacet
   facet normal 8.020838e-001 -5.972114e-001 0.000000e+000
      outer loop
         vertex 2.298133e+000 -1.928363e+000 3.340000e+002
         vertex 2.298133e+000 -1.928363e+000 1.000000e+000
         vertex 2.598076e+000 -1.500000e+000 1.000000e+000
      endloop
   endfacet
   facet normal 8.355240e-001 -5.494540e-001 0.000000e+000
      outer loop
         vertex 2.298133e+000 -1.928363e+000 3.340000e+002
         vertex 2.598076e+000 -1.500000e+000 1.000000e+000
         vertex 2.598076e+000 -1.500000e+000 3.340000e+002
      endloop
   endfacet
   facet normal 8.936031e-001 -4.488580e-001 0.000000e+000
      outer loop
         vertex 2.598076e+000 -1.500000e+000 3.340000e+002
         vertex 2.598076e+000 -1.500000e+000 1.000000e+000
         vertex 2.819078e+000 -1.026060e+000 1.000000e+000
      endloop
   endfacet
   facet normal 9.182422e-001 -3.960194e-001 0.000000e+000
      outer loop
         vertex 2.598076e+000 -1.500000e+000 3.340000e+002
         vertex 2.819078e+000 -1.026060e+000 1.000000e+000
         vertex 2.819078e+000 -1.026060e+000 3.340000e+002
      endloop
   endfacet
   facet normal 9.579706e-001 -2.868663e-001 0.000000e+000
      outer loop
         vertex 2.819078e+000 -1.026060e+000 3.340000e+002
         vertex 2.819078e+000 -1.026060e+000 1.000000e+000
         vertex 2.954423e+000 -5.209445e-001 1.000000e+000
      endloop
   endfacet
   facet normal 9.730600e-001 -2.305519e-001 0.000000e+000
      outer loop
         vertex 2.819078e+000 -1.026060e+000 3.340000e+002
         vertex 2.954423e+000 -5.209445e-001 1.000000e+000
         vertex 2.954423e+000 -5.209445e-001 3.340000e+002
      endloop
   endfacet
   facet normal 9.932307e-001 -1.161583e-001 0.000000e+000
      outer loop
         vertex 2.954423e+000 -5.209445e-001 3.340000e+002
         vertex 2.954423e+000 -5.209445e-001 1.000000e+000
         vertex 3.000000e+000 3.673940e-016 1.000000e+000
      endloop
   endfacet
   facet normal 9.983119e-001 -5.807913e-002 0.000000e+000
      outer loop
         vertex 2.954423e+000 -5.209445e-001 3.340000e+002
         vertex 3.000000e+000 3.673940e-016 1.000000e+000
         vertex 3.000000e+000 3.673940e-016 3.340000e+002
      endloop
   endfacet
   facet normal 9.983119e-001 5.807913e-002 0.000000e+000
      outer loop
         vertex 3.000000e+000 3.673940e-016 3.340000e+002
         vertex 3.000000e+000 3.673940e-016 1.000000e+000
         vertex 2.954423e+000 5.209445e-001 1.000000e+000
      endloop
   endfacet
   facet normal 9.932307e-001 1.161583e-001 0.000000e+000
      outer loop
         vertex 3.000000e+000 3.673940e-016 3.340000e+002
         vertex 2.954423e+000 5.209445e-001 1.000000e+000
         vertex 2.954423e+000 5.209445e-001 3.340000e+002
      endloop
   endfacet
   facet normal 9.730600e-001 2.305519e-001 0.000000e+000
      outer loop
         vertex 2.954423e+000 5.209445e-001 3.340000e+002
         vertex 2.954423e+000 5.209445e-001 1.000000e+000
         vertex 2.819078e+000 1.026060e+000 1.000000e+000
      endloop
   endfacet
   facet normal 9.579706e-001 2.868663e-001 0.000000e+000
      outer loop
         vertex 2.954423e+000 5.209445e-001 3.340000e+002
         vertex 2.819078e+000 1.026060e+000 1.000000e+000
         vertex 2.819078e+000 1.026060e+000 3.340000e+002
      endloop
   endfacet
   facet normal 9.182422e-001 3.960194e-001 0.000000e+000
      outer loop
         vertex 2.819078e+000 1.026060e+000 3.340000e+002
         vertex 2.819078e+000 1.026060e+000 1.000000e+000
         vertex 2.598076e+000 1.500000e+000 1.000000e+000
      endloop
   endfacet
   facet normal 8.936031e-001 4.488580e-001 0.000000e+000
      outer loop
         vertex 2.819078e+000 1.026060e+000 3.340000e+002
         vertex 2.598076e+000 1.500000e+000 1.000000e+000
         vertex 2.598076e+000 1.500000e+000 3.340000e+002
      endloop
   endfacet
   facet normal 8.355240e-001 5.494540e-001 0.000000e+000
      outer loop
         vertex 2.598076e+000 1.500000e+000 3.340000e+002
         vertex 2.598076e+000 1.500000e+000 1.000000e+000
         vertex 2.298133e+000 1.928363e+000 1.000000e+000
      endloop
   endfacet
   facet normal 8.020838e-001 5.972114e-001 0.000000e+000
      outer loop
         vertex 2.598076e+000 1.500000e+000 3.340000e+002
         vertex 2.298133e+000 1.928363e+000 1.000000e+000
         vertex 2.298133e+000 1.928363e+000 3.340000e+002
      endloop
   endfacet
   facet normal 7.274188e-001 6.861938e-001 0.000000e+000
      outer loop
         vertex 2.298133e+000 1.928363e+000 3.340000e+002
         vertex 2.298133e+000 1.928363e+000 1.000000e+000
         vertex 1.928363e+000 2.298133e+000 1.000000e+000
      endloop
   endfacet
   facet normal 6.861938e-001 7.274188e-001 0.000000e+000
      outer loop
         vertex 2.298133e+000 1.928363e+000 3.340000e+002
         vertex 1.928363e+000 2.298133e+000 1.000000e+000
         vertex 1.928363e+000 2.298133e+000 3.340000e+002
      endloop
   endfacet
   facet normal 5.972114e-001 8.020838e-001 0.000000e+000
      outer loop
         vertex 1.928363e+000 2.298133e+000 3.340000e+002
         vertex 1.928363e+000 2.298133e+000 1.000000e+000
         vertex 1.500000e+000 2.598076e+000 1.000000e+000
      endloop
   endfacet
   facet normal 5.494540e-001 8.355240e-001 0.000000e+000
      outer loop
         vertex 1.928363e+000 2.298133e+000 3.340000e+002
         vertex 1.500000e+000 2.598076e+000 1.000000e+000
         vertex 1.500000e+000 2.598076e+000 3.340000e+002
      endloop
   endfacet
   facet normal 4.488580e-001 8.936031e-001 0.000000e+000
      outer loop
         vertex 1.500000e+000 2.598076e+000 3.340000e+002
         vertex 1.500000e+000 2.598076e+000 1.000000e+000
         vertex 1.026060e+000 2.819078e+000 1.000000e+000
      endloop
   endfacet
   facet normal 3.960194e-001 9.182422e-001 0.000000e+000
      outer loop
         vertex 1.500000e+000 2.598076e+000 3.340000e+002
         vertex 1.026060e+000 2.819078e+000 1.000000e+000
         vertex 1.026060e+000 2.819078e+000 3.340000e+002
      endloop
   endfacet
   facet normal 2.868663e-001 9.579706e-001 0.000000e+000
      outer loop
         vertex 1.026060e+000 2.819078e+000 3.340000e+002
         vertex 1.026060e+000 2.819078e+000 1.000000e+000
         vertex 5.209445e-001 2.954423e+000 1.000000e+000
      endloop
   endfacet
   facet normal 2.305519e-001 9.730600e-001 0.000000e+000
      outer loop
         vertex 1.026060e+000 2.819078e+000 3.340000e+002
         vertex 5.209445e-001 2.954423e+000 1.000000e+000
         vertex 5.209445e-001 2.954423e+000 3.340000e+002
      endloop
   endfacet
   facet normal 1.161583e-001 9.932307e-001 0.000000e+000
      outer loop
         vertex 5.209445e-001 2.954423e+000 3.340000e+002
         vertex 5.209445e-001 2.954423e+000 1.000000e+000
         vertex -1.836970e-016 3.000000e+000 1.000000e+000
      endloop
   endfacet
   facet normal 5.807913e-002 9.983119e-001 0.000000e+000
      outer loop
         vertex 5.209445e-001 2.954423e+000 3.340000e+002
         vertex -1.836970e-016 3.000000e+000 1.000000e+000
         vertex -1.836970e-016 3.000000e+000 3.340000e+002
      endloop
   endfacet
   facet normal -5.807913e-002 9.983119e-001 0.000000e+000
      outer loop
         vertex -1.836970e-016 3.000000e+000 3.340000e+002
         vertex -1.836970e-016 3.000000e+000 1.000000e+000
         vertex -5.209445e-001 2.954423e+000 1.000000e+000
      endloop
   endfacet
   facet normal -1.161583e-001 9.932307e-001 0.000000e+000
      outer loop
         vertex -1.836970e-016 3.000000e+000 3.340000e+002
         vertex -5.209445e-001 2.954423e+000 1.000000e+000
         vertex -5.209445e-001 2.954423e+000 3.340000e+002
      endloop
   endfacet
   facet normal -2.305519e-001 9.730600e-001 0.000000e+000
      outer loop
         vertex -5.209445e-001 2.954423e+000 3.340000e+002
         vertex -5.209445e-001 2.954423e+000 1.000000e+000
         vertex -1.026060e+000 2.819078e+000 1.000000e+000
      endloop
   endfacet
   facet normal -2.868663e-001 9.579706e-001 0.000000e+000
      outer loop
         vertex -5.209445e-001 2.954423e+000 3.340000e+002
         vertex -1.026060e+000 2.819078e+000 1.000000e+000
         vertex -1.026060e+000 2.819078e+000 3.340000e+002
      endloop
   endfacet
   facet normal -3.960194e-001 9.182422e-001 0.000000e+000
      outer loop
         vertex -1.026060e+000 2.819078e+000 3.340000e+002
         vertex -1.026060e+000 2.819078e+000 1.000000e+000
         vertex -1.500000e+000 2.598076e+000 1.000000e+000
      endloop
   endfacet
   facet normal -4.488580e-001 8.936031e-001 0.000000e+000
      outer loop
         vertex -1.026060e+000 2.819078e+000 3.340000e+002
         vertex -1.500000e+000 2.598076e+000 1.000000e+000
         vertex -1.500000e+000 2.598076e+000 3.340000e+002
      endloop
   endfacet
   facet normal -5.494540e-001 8.355240e-001 0.000000e+000
      outer loop
         vertex -1.500000e+000 2.598076e+000 3.340000e+002
         vertex -1.500000e+000 2.598076e+000 1.000000e+000
         vertex -1.928363e+000 2.298133e+000 1.000000e+000
      endloop
   endfacet
   facet normal -5.972114e-001 8.020838e-001 0.000000e+000
      outer loop
         vertex -1.500000e+000 2.598076e+000 3.340000e+002
         vertex -1.928363e+000 2.298133e+000 1.000000e+000
         vertex -1.928363e+000 2.298133e+000 3.340000e+002
      endloop
   endfacet
   facet normal -6.861938e-001 7.274188e-001 0.000000e+000
      outer loop
         vertex -1.928363e+000 2.298133e+000 3.340000e+002
         vertex -1.928363e+000 2.298133e+000 1.000000e+000
         vertex -2.298133e+000 1.928363e+000 1.000000e+000
      endloop
   endfacet
   facet normal -7.274188e-001 6.861938e-001 0.000000e+000
      outer loop
         vertex -1.928363e+000 2.298133e+000 3.340000e+002
         vertex -2.298133e+000 1.928363e+000 1.000000e+000
         vertex -2.298133e+000 1.928363e+000 3.340000e+002
      endloop
   endfacet
   facet normal -8.020838e-001 5.972114e-001 0.000000e+000
      outer loop
         vertex -2.298133e+000 1.928363e+000 3.340000e+002
         vertex -2.298133e+000 1.928363e+000 1.000000e+000
         vertex -2.598076e+000 1.500000e+000 1.000000e+000
      endloop
   endfacet
   facet normal -8.355240e-001 5.494540e-001 0.000000e+000
      outer loop
         vertex -2.298133e+000 1.928363e+000 3.340000e+002
         vertex -2.598076e+000 1.500000e+000 1.000000e+000
         vertex -2.598076e+000 1.500000e+000 3.340000e+002
      endloop
   endfacet
   facet normal -8.936031e-001 4.488580e-001 0.000000e+000
      outer loop
         vertex -2.598076e+000 1.500000e+000 3.340000e+002
         vertex -2.598076e+000 1.500000e+000 1.000000e+000
         vertex -2.819078e+000 1.026060e+000 1.000000e+000
      endloop
   endfacet
   facet normal -9.182422e-001 3.960194e-001 0.000000e+000
      outer loop
         vertex -2.598076e+000 1.500000e+000 3.340000e+002
         vertex -2.819078e+000 1.026060e+000 1.000000e+000
         vertex -2.819078e+000 1.026060e+000 3.340000e+002
      endloop
   endfacet
   facet normal -9.579706e-001 2.868663e-001 0.000000e+000
      outer loop
         vertex -2.819078e+000 1.026060e+000 3.340000e+002
         vertex -2.819078e+000 1.026060e+000 1.000000e+000
         vertex -2.954423e+000 5.209445e-001 1.000000e+000
      endloop
   endfacet
   facet normal -9.730600e-001 2.305519e-001 0.000000e+000
      outer loop
         vertex -2.819078e+000 1.026060e+000 3.340000e+002
         vertex -2.954423e+000 5.209445e-001 1.000000e+000
         vertex -2.954423e+000 5.209445e-001 3.340000e+002
      endloop
   endfacet
   facet normal -9.932307e-001 1.161583e-001 0.000000e+000
      outer loop
         vertex -2.954423e+000 5.209445e-001 3.340000e+002
         vertex -2.954423e+000 5.209445e-001 1.000000e+000
         vertex -3.000000e+000 0.000000e+000 1.000000e+000
      endloop
   endfacet
   facet normal 0.000000e+000 0.000000e+000 1.000000e+000
      outer loop
         vertex -1.285575e+000 -1.532089e+000 3.350000e+002
         vertex -1.000000e+000 -1.732051e+000 3.350000e+002
         vertex 1.532089e+000 1.285575e+000 3.350000e+002
      endloop
   endfacet
   facet normal 0.000000e+000 0.000000e+000 1.000000e+000
      outer loop
         vertex 1.532089e+000 1.285575e+000 3.350000e+002
         vertex -1.000000e+000 -1.732051e+000 3.350000e+002
         vertex -6.840403e-001 -1.879385e+000 3.350000e+002
      endloop
   endfacet
   facet normal 0.000000e+000 0.000000e+000 1.000000e+000
      outer loop
         vertex 1.532089e+000 1.285575e+000 3.350000e+002
         vertex -6.840403e-001 -1.879385e+000 3.350000e+002
         vertex -3.472964e-001 -1.969615e+000 3.350000e+002
      endloop
   endfacet
   facet normal 0.000000e+000 0.000000e+000 1.000000e+000
      outer loop
         vertex 1.532089e+000 1.285575e+000 3.350000e+002
         vertex 1.285575e+000 1.532089e+000 3.350000e+002
         vertex -1.532089e+000 1.285575e+000 3.350000e+002
      endloop
   endfacet
   facet normal 0.000000e+000 0.000000e+000 1.000000e+000
      outer loop
         vertex -1.532089e+000 1.285575e+000 3.350000e+002
         vertex 1.285575e+000 1.532089e+000 3.350000e+002
         vertex 1.000000e+000 1.732051e+000 3.350000e+002
      endloop
   endfacet
   facet normal 0.000000e+000 0.000000e+000 1.000000e+000
      outer loop
         vertex -1.532089e+000 1.285575e+000 3.350000e+002
         vertex 1.000000e+000 1.732051e+000 3.350000e+002
         vertex -1.285575e+000 1.532089e+000 3.350000e+002
      endloop
   endfacet
   facet normal 0.000000e+000 0.000000e+000 1.000000e+000
      outer loop
         vertex -1.532089e+000 1.285575e+000 3.350000e+002
         vertex -1.732051e+000 1.000000e+000 3.350000e+002
         vertex 1.532089e+000 1.285575e+000 3.350000e+002
      endloop
   endfacet
   facet normal 0.000000e+000 0.000000e+000 1.000000e+000
      outer loop
         vertex 1.532089e+000 1.285575e+000 3.350000e+002
         vertex -1.732051e+000 1.000000e+000 3.350000e+002
         vertex -1.879385e+000 6.840403e-001 3.350000e+002
      endloop
   endfacet
   facet normal 0.000000e+000 0.000000e+000 1.000000e+000
      outer loop
         vertex 1.532089e+000 1.285575e+000 3.350000e+002
         vertex -1.879385e+000 6.840403e-001 3.350000e+002
         vertex -1.969615e+000 3.472964e-001 3.350000e+002
      endloop
   endfacet
   facet normal 0.000000e+000 0.000000e+000 1.000000e+000
      outer loop
         vertex 2.000000e+000 2.449294e-016 3.350000e+002
         vertex 1.969615e+000 3.472964e-001 3.350000e+002
         vertex 1.879385e+000 6.840403e-001 3.350000e+002
      endloop
   endfacet
   facet normal 0.000000e+000 0.000000e+000 1.000000e+000
      outer loop
         vertex -1.879385e+000 -6.840403e-001 3.350000e+002
         vertex -1.732051e+000 -1.000000e+000 3.350000e+002
         vertex 1.532089e+000 1.285575e+000 3.350000e+002
      endloop
   endfacet
   facet normal 0.000000e+000 0.000000e+000 1.000000e+000
      outer loop
         vertex 1.532089e+000 1.285575e+000 3.350000e+002
         vertex -1.732051e+000 -1.000000e+000 3.350000e+002
         vertex -1.532089e+000 -1.285575e+000 3.350000e+002
      endloop
   endfacet
   facet normal 0.000000e+000 0.000000e+000 1.000000e+000
      outer loop
         vertex 1.532089e+000 1.285575e+000 3.350000e+002
         vertex -1.532089e+000 -1.285575e+000 3.350000e+002
         vertex -1.285575e+000 -1.532089e+000 3.350000e+002
      endloop
   endfacet
   facet normal 0.000000e+000 0.000000e+000 1.000000e+000
      outer loop
         vertex -3.472964e-001 -1.969615e+000 3.350000e+002
         vertex 5.696464e-015 -2.000000e+000 3.350000e+002
         vertex 1.532089e+000 1.285575e+000 3.350000e+002
      endloop
   endfacet
   facet normal 0.000000e+000 0.000000e+000 1.000000e+000
      outer loop
         vertex 1.532089e+000 1.285575e+000 3.350000e+002
         vertex 5.696464e-015 -2.000000e+000 3.350000e+002
         vertex 3.472964e-001 -1.969615e+000 3.350000e+002
      endloop
   endfacet
   facet normal 0.000000e+000 0.000000e+000 1.000000e+000
      outer loop
         vertex 1.532089e+000 1.285575e+000 3.350000e+002
         vertex 3.472964e-001 -1.969615e+000 3.350000e+002
         vertex 6.840403e-001 -1.879385e+000 3.350000e+002
      endloop
   endfacet
   facet normal 0.000000e+000 0.000000e+000 1.000000e+000
      outer loop
         vertex 6.840403e-001 -1.879385e+000 3.350000e+002
         vertex 1.000000e+000 -1.732051e+000 3.350000e+002
         vertex 1.532089e+000 1.285575e+000 3.350000e+002
      endloop
   endfacet
   facet normal 0.000000e+000 0.000000e+000 1.000000e+000
      outer loop
         vertex 1.532089e+000 1.285575e+000 3.350000e+002
         vertex 1.000000e+000 -1.732051e+000 3.350000e+002
         vertex 1.285575e+000 -1.532089e+000 3.350000e+002
      endloop
   endfacet
   facet normal 0.000000e+000 0.000000e+000 1.000000e+000
      outer loop
         vertex 1.532089e+000 1.285575e+000 3.350000e+002
         vertex 1.285575e+000 -1.532089e+000 3.350000e+002
         vertex 1.532089e+000 -1.285575e+000 3.350000e+002
      endloop
   endfacet
   facet normal 0.000000e+000 0.000000e+000 1.000000e+000
      outer loop
         vertex 2.000000e+000 2.449294e-016 3.350000e+002
         vertex 1.879385e+000 6.840403e-001 3.350000e+002
         vertex 1.969615e+000 -3.472964e-001 3.350000e+002
      endloop
   endfacet
   facet normal 0.000000e+000 0.000000e+000 1.000000e+000
      outer loop
         vertex 1.969615e+000 -3.472964e-001 3.350000e+002
         vertex 1.879385e+000 6.840403e-001 3.350000e+002
         vertex 1.732051e+000 1.000000e+000 3.350000e+002
      endloop
   endfacet
   facet normal 0.000000e+000 0.000000e+000 1.000000e+000
      outer loop
         vertex 1.969615e+000 -3.472964e-001 3.350000e+002
         vertex 1.732051e+000 1.000000e+000 3.350000e+002
         vertex 1.532089e+000 1.285575e+000 3.350000e+002
      endloop
   endfacet
   facet normal 0.000000e+000 0.000000e+000 1.000000e+000
      outer loop
         vertex 6.840403e-001 1.879385e+000 3.350000e+002
         vertex 3.472964e-001 1.969615e+000 3.350000e+002
         vertex -6.840403e-001 1.879385e+000 3.350000e+002
      endloop
   endfacet
   facet normal 0.000000e+000 0.000000e+000 1.000000e+000
      outer loop
         vertex -6.840403e-001 1.879385e+000 3.350000e+002
         vertex 3.472964e-001 1.969615e+000 3.350000e+002
         vertex -1.224647e-016 2.000000e+000 3.350000e+002
      endloop
   endfacet
   facet normal 0.000000e+000 0.000000e+000 1.000000e+000
      outer loop
         vertex -6.840403e-001 1.879385e+000 3.350000e+002
         vertex -1.224647e-016 2.000000e+000 3.350000e+002
         vertex -3.472964e-001 1.969615e+000 3.350000e+002
      endloop
   endfacet
   facet normal 0.000000e+000 0.000000e+000 1.000000e+000
      outer loop
         vertex 6.840403e-001 1.879385e+000 3.350000e+002
         vertex -6.840403e-001 1.879385e+000 3.350000e+002
         vertex 1.000000e+000 1.732051e+000 3.350000e+002
      endloop
   endfacet
   facet normal 0.000000e+000 0.000000e+000 1.000000e+000
      outer loop
         vertex 1.000000e+000 1.732051e+000 3.350000e+002
         vertex -6.840403e-001 1.879385e+000 3.350000e+002
         vertex -1.000000e+000 1.732051e+000 3.350000e+002
      endloop
   endfacet
   facet normal 0.000000e+000 0.000000e+000 1.000000e+000
      outer loop
         vertex 1.000000e+000 1.732051e+000 3.350000e+002
         vertex -1.000000e+000 1.732051e+000 3.350000e+002
         vertex -1.285575e+000 1.532089e+000 3.350000e+002
      endloop
   endfacet
   facet normal 0.000000e+000 0.000000e+000 1.000000e+000
      outer loop
         vertex 1.532089e+000 -1.285575e+000 3.350000e+002
         vertex 1.732051e+000 -1.000000e+000 3.350000e+002
         vertex 1.532089e+000 1.285575e+000 3.350000e+002
      endloop
   endfacet
   facet normal 0.000000e+000 0.000000e+000 1.000000e+000
      outer loop
         vertex 1.532089e+000 1.285575e+000 3.350000e+002
         vertex 1.732051e+000 -1.000000e+000 3.350000e+002
         vertex 1.879385e+000 -6.840403e-001 3.350000e+002
      endloop
   endfacet
   facet normal 0.000000e+000 0.000000e+000 1.000000e+000
      outer loop
         vertex 1.532089e+000 1.285575e+000 3.350000e+002
         vertex 1.879385e+000 -6.840403e-001 3.350000e+002
         vertex 1.969615e+000 -3.472964e-001 3.350000e+002
      endloop
   endfacet
   facet normal 0.000000e+000 0.000000e+000 1.000000e+000
      outer loop
         vertex -1.969615e+000 3.472964e-001 3.350000e+002
         vertex -2.000000e+000 0.000000e+000 3.350000e+002
         vertex 1.532089e+000 1.285575e+000 3.350000e+002
      endloop
   endfacet
   facet normal 0.000000e+000 0.000000e+000 1.000000e+000
      outer loop
         vertex 1.532089e+000 1.285575e+000 3.350000e+002
         vertex -2.000000e+000 0.000000e+000 3.350000e+002
         vertex -1.969615e+000 -3.472964e-001 3.350000e+002
      endloop
   endfacet
   facet normal 0.000000e+000 0.000000e+000 1.000000e+000
      outer loop
         vertex 1.532089e+000 1.285575e+000 3.350000e+002
         vertex -1.969615e+000 -3.472964e-001 3.350000e+002
         vertex -1.879385e+000 -6.840403e-001 3.350000e+002
      endloop
   endfacet
   facet normal 0.000000e+000 0.000000e+000 -1.000000e+000
      outer loop
         vertex 3.472964e-001 -1.969615e+000 0.000000e+000
         vertex -3.472964e-001 1.969615e+000 0.000000e+000
         vertex 1.224647e-016 2.000000e+000 0.000000e+000
      endloop
   endfacet
   facet normal 0.000000e+000 0.000000e+000 -1.000000e+000
      outer loop
         vertex 1.969615e+000 -3.472964e-001 0.000000e+000
         vertex 1.879385e+000 -6.840403e-001 0.000000e+000
         vertex 1.000000e+000 -1.732051e+000 0.000000e+000
      endloop
   endfacet
   facet normal 0.000000e+000 0.000000e+000 -1.000000e+000
      outer loop
         vertex -1.000000e+000 -1.732051e+000 0.000000e+000
         vertex -1.285575e+000 -1.532089e+000 0.000000e+000
         vertex -1.532089e+000 -1.285575e+000 0.000000e+000
      endloop
   endfacet
   facet normal 0.000000e+000 0.000000e+000 -1.000000e+000
      outer loop
         vertex -1.969615e+000 3.472964e-001 0.000000e+000
         vertex -1.879385e+000 6.840403e-001 0.000000e+000
         vertex -3.472964e-001 -1.969615e+000 0.000000e+000
      endloop
   endfacet
   facet normal 0.000000e+000 0.000000e+000 -1.000000e+000
      outer loop
         vertex -3.472964e-001 -1.969615e+000 0.000000e+000
         vertex -1.879385e+000 6.840403e-001 0.000000e+000
         vertex -1.732051e+000 1.000000e+000 0.000000e+000
      endloop
   endfacet
   facet normal 0.000000e+000 0.000000e+000 -1.000000e+000
      outer loop
         vertex -1.732051e+000 1.000000e+000 0.000000e+000
         vertex -1.532089e+000 1.285575e+000 0.000000e+000
         vertex -3.472964e-001 -1.969615e+000 0.000000e+000
      endloop
   endfacet
   facet normal 0.000000e+000 0.000000e+000 -1.000000e+000
      outer loop
         vertex -3.472964e-001 -1.969615e+000 0.000000e+000
         vertex -1.532089e+000 1.285575e+000 0.000000e+000
         vertex -1.285575e+000 1.532089e+000 0.000000e+000
      endloop
   endfacet
   facet normal 0.000000e+000 0.000000e+000 -1.000000e+000
      outer loop
         vertex -3.472964e-001 -1.969615e+000 0.000000e+000
         vertex -1.285575e+000 1.532089e+000 0.000000e+000
         vertex -1.000000e+000 1.732051e+000 0.000000e+000
      endloop
   endfacet
   facet normal 0.000000e+000 0.000000e+000 -1.000000e+000
      outer loop
         vertex 3.472964e-001 -1.969615e+000 0.000000e+000
         vertex -5.696464e-015 -2.000000e+000 0.000000e+000
         vertex -3.472964e-001 1.969615e+000 0.000000e+000
      endloop
   endfacet
   facet normal 0.000000e+000 0.000000e+000 -1.000000e+000
      outer loop
         vertex -3.472964e-001 1.969615e+000 0.000000e+000
         vertex -5.696464e-015 -2.000000e+000 0.000000e+000
         vertex -3.472964e-001 -1.969615e+000 0.000000e+000
      endloop
   endfacet
   facet normal 0.000000e+000 0.000000e+000 -1.000000e+000
      outer loop
         vertex -3.472964e-001 1.969615e+000 0.000000e+000
         vertex -3.472964e-001 -1.969615e+000 0.000000e+000
         vertex -6.840403e-001 1.879385e+000 0.000000e+000
      endloop
   endfacet
   facet normal 0.000000e+000 0.000000e+000 -1.000000e+000
      outer loop
         vertex -6.840403e-001 1.879385e+000 0.000000e+000
         vertex -3.472964e-001 -1.969615e+000 0.000000e+000
         vertex -1.000000e+000 1.732051e+000 0.000000e+000
      endloop
   endfacet
   facet normal 0.000000e+000 0.000000e+000 -1.000000e+000
      outer loop
         vertex 1.224647e-016 2.000000e+000 0.000000e+000
         vertex 3.472964e-001 1.969615e+000 0.000000e+000
         vertex 3.472964e-001 -1.969615e+000 0.000000e+000
      endloop
   endfacet
   facet normal 0.000000e+000 0.000000e+000 -1.000000e+000
      outer loop
         vertex 3.472964e-001 -1.969615e+000 0.000000e+000
         vertex 3.472964e-001 1.969615e+000 0.000000e+000
         vertex 6.840403e-001 1.879385e+000 0.000000e+000
      endloop
   endfacet
   facet normal 0.000000e+000 0.000000e+000 -1.000000e+000
      outer loop
         vertex 3.472964e-001 -1.969615e+000 0.000000e+000
         vertex 6.840403e-001 1.879385e+000 0.000000e+000
         vertex 1.000000e+000 1.732051e+000 0.000000e+000
      endloop
   endfacet
   facet normal 0.000000e+000 0.000000e+000 -1.000000e+000
      outer loop
         vertex 1.732051e+000 1.000000e+000 0.000000e+000
         vertex 1.879385e+000 6.840403e-001 0.000000e+000
         vertex 3.472964e-001 -1.969615e+000 0.000000e+000
      endloop
   endfacet
   facet normal 0.000000e+000 0.000000e+000 -1.000000e+000
      outer loop
         vertex 3.472964e-001 -1.969615e+000 0.000000e+000
         vertex 1.879385e+000 6.840403e-001 0.000000e+000
         vertex 1.969615e+000 3.472964e-001 0.000000e+000
      endloop
   endfacet
   facet normal 0.000000e+000 0.000000e+000 -1.000000e+000
      outer loop
         vertex 3.472964e-001 -1.969615e+000 0.000000e+000
         vertex 1.969615e+000 3.472964e-001 0.000000e+000
         vertex 6.840403e-001 -1.879385e+000 0.000000e+000
      endloop
   endfacet
   facet normal 0.000000e+000 0.000000e+000 -1.000000e+000
      outer loop
         vertex 6.840403e-001 -1.879385e+000 0.000000e+000
         vertex 1.969615e+000 3.472964e-001 0.000000e+000
         vertex 1.000000e+000 -1.732051e+000 0.000000e+000
      endloop
   endfacet
   facet normal 0.000000e+000 0.000000e+000 -1.000000e+000
      outer loop
         vertex 1.000000e+000 -1.732051e+000 0.000000e+000
         vertex 1.969615e+000 3.472964e-001 0.000000e+000
         vertex 2.000000e+000 0.000000e+000 0.000000e+000
      endloop
   endfacet
   facet normal 0.000000e+000 0.000000e+000 -1.000000e+000
      outer loop
         vertex 1.000000e+000 -1.732051e+000 0.000000e+000
         vertex 2.000000e+000 0.000000e+000 0.000000e+000
         vertex 1.969615e+000 -3.472964e-001 0.000000e+000
      endloop
   endfacet
   facet normal 0.000000e+000 0.000000e+000 -1.000000e+000
      outer loop
         vertex 1.879385e+000 -6.840403e-001 0.000000e+000
         vertex 1.732051e+000 -1.000000e+000 0.000000e+000
         vertex 1.000000e+000 -1.732051e+000 0.000000e+000
      endloop
   endfacet
   facet normal 0.000000e+000 0.000000e+000 -1.000000e+000
      outer loop
         vertex 1.000000e+000 -1.732051e+000 0.000000e+000
         vertex 1.732051e+000 -1.000000e+000 0.000000e+000
         vertex 1.532089e+000 -1.285575e+000 0.000000e+000
      endloop
   endfacet
   facet normal 0.000000e+000 0.000000e+000 -1.000000e+000
      outer loop
         vertex 1.000000e+000 -1.732051e+000 0.000000e+000
         vertex 1.532089e+000 -1.285575e+000 0.000000e+000
         vertex 1.285575e+000 -1.532089e+000 0.000000e+000
      endloop
   endfacet
   facet normal 0.000000e+000 0.000000e+000 -1.000000e+000
      outer loop
         vertex -1.532089e+000 -1.285575e+000 0.000000e+000
         vertex -1.732051e+000 -1.000000e+000 0.000000e+000
         vertex -1.000000e+000 -1.732051e+000 0.000000e+000
      endloop
   endfacet
   facet normal 0.000000e+000 0.000000e+000 -1.000000e+000
      outer loop
         vertex -1.000000e+000 -1.732051e+000 0.000000e+000
         vertex -1.732051e+000 -1.000000e+000 0.000000e+000
         vertex -1.879385e+000 -6.840403e-001 0.000000e+000
      endloop
   endfacet
   facet normal 0.000000e+000 0.000000e+000 -1.000000e+000
      outer loop
         vertex -1.000000e+000 -1.732051e+000 0.000000e+000
         vertex -1.879385e+000 -6.840403e-001 0.000000e+000
         vertex -1.969615e+000 -3.472964e-001 0.000000e+000
      endloop
   endfacet
   facet normal 0.000000e+000 0.000000e+000 -1.000000e+000
      outer loop
         vertex -3.472964e-001 -1.969615e+000 0.000000e+000
         vertex -6.840403e-001 -1.879385e+000 0.000000e+000
         vertex -1.969615e+000 3.472964e-001 0.000000e+000
      endloop
   endfacet
   facet normal 0.000000e+000 0.000000e+000 -1.000000e+000
      outer loop
         vertex -1.969615e+000 3.472964e-001 0.000000e+000
         vertex -6.840403e-001 -1.879385e+000 0.000000e+000
         vertex -1.000000e+000 -1.732051e+000 0.000000e+000
      endloop
   endfacet
   facet normal 0.000000e+000 0.000000e+000 -1.000000e+000
      outer loop
         vertex -1.969615e+000 3.472964e-001 0.000000e+000
         vertex -1.000000e+000 -1.732051e+000 0.000000e+000
         vertex -2.000000e+000 2.909465e-015 0.000000e+000
      endloop
   endfacet
   facet normal 0.000000e+000 0.000000e+000 -1.000000e+000
      outer loop
         vertex -2.000000e+000 2.909465e-015 0.000000e+000
         vertex -1.000000e+000 -1.732051e+000 0.000000e+000
         vertex -1.969615e+000 -3.472964e-001 0.000000e+000
      endloop
   endfacet
   facet normal 0.000000e+000 0.000000e+000 -1.000000e+000
      outer loop
         vertex 1.000000e+000 1.732051e+000 0.000000e+000
         vertex 1.285575e+000 1.532089e+000 0.000000e+000
         vertex 3.472964e-001 -1.969615e+000 0.000000e+000
      endloop
   endfacet
   facet normal 0.000000e+000 0.000000e+000 -1.000000e+000
      outer loop
         vertex 3.472964e-001 -1.969615e+000 0.000000e+000
         vertex 1.285575e+000 1.532089e+000 0.000000e+000
         vertex 1.532089e+000 1.285575e+000 0.000000e+000
      endloop
   endfacet
   facet normal 0.000000e+000 0.000000e+000 -1.000000e+000
      outer loop
         vertex 3.472964e-001 -1.969615e+000 0.000000e+000
         vertex 1.532089e+000 1.285575e+000 0.000000e+000
         vertex 1.732051e+000 1.000000e+000 0.000000e+000
      endloop
   endfacet
   facet normal 6.868910e-001 1.627484e-001 -7.083035e-001
      outer loop
         vertex 2.954423e+000 5.209445e-001 1.000000e+000
         vertex 1.969615e+000 3.472964e-001 2.168404e-016
         vertex 2.819078e+000 1.026060e+000 1.000000e+000
      endloop
   endfacet
   facet normal 6.762393e-001 2.025012e-001 -7.083035e-001
      outer loop
         vertex 2.819078e+000 1.026060e+000 1.000000e+000
         vertex 1.969615e+000 3.472964e-001 2.168404e-016
         vertex 1.879385e+000 6.840403e-001 2.168404e-016
      endloop
   endfacet
   facet normal 6.481946e-001 2.795533e-001 -7.083035e-001
      outer loop
         vertex 2.819078e+000 1.026060e+000 1.000000e+000
         vertex 1.879385e+000 6.840403e-001 2.168404e-016
         vertex 2.598076e+000 1.500000e+000 1.000000e+000
      endloop
   endfacet
   facet normal 6.308017e-001 3.168525e-001 -7.083035e-001
      outer loop
         vertex 2.598076e+000 1.500000e+000 1.000000e+000
         vertex 1.879385e+000 6.840403e-001 2.168404e-016
         vertex 1.732051e+000 1.000000e+000 2.168404e-016
      endloop
   endfacet
   facet normal 5.898032e-001 3.878640e-001 -7.083035e-001
      outer loop
         vertex 2.598076e+000 1.500000e+000 1.000000e+000
         vertex 1.732051e+000 1.000000e+000 2.168404e-016
         vertex 2.298133e+000 1.928363e+000 1.000000e+000
      endloop
   endfacet
   facet normal 5.661975e-001 4.215763e-001 -7.083034e-001
      outer loop
         vertex 2.298133e+000 1.928363e+000 1.000000e+000
         vertex 1.732051e+000 1.000000e+000 2.168404e-016
         vertex 1.532089e+000 1.285575e+000 2.168404e-016
      endloop
   endfacet
   facet normal 5.134909e-001 4.843898e-001 -7.083035e-001
      outer loop
         vertex 2.298133e+000 1.928363e+000 1.000000e+000
         vertex 1.532089e+000 1.285575e+000 2.168404e-016
         vertex 1.928363e+000 2.298133e+000 1.000000e+000
      endloop
   endfacet
   facet normal 4.843898e-001 5.134908e-001 -7.083034e-001
      outer loop
         vertex 1.928363e+000 2.298133e+000 1.000000e+000
         vertex 1.532089e+000 1.285575e+000 2.168404e-016
         vertex 1.285575e+000 1.532089e+000 2.168404e-016
      endloop
   endfacet
   facet normal 4.215764e-001 5.661975e-001 -7.083035e-001
      outer loop
         vertex 1.928363e+000 2.298133e+000 1.000000e+000
         vertex 1.285575e+000 1.532089e+000 2.168404e-016
         vertex 1.500000e+000 2.598076e+000 1.000000e+000
      endloop
   endfacet
   facet normal 3.878640e-001 5.898032e-001 -7.083035e-001
      outer loop
         vertex 1.500000e+000 2.598076e+000 1.000000e+000
         vertex 1.285575e+000 1.532089e+000 2.168404e-016
         vertex 1.000000e+000 1.732051e+000 2.168404e-016
      endloop
   endfacet
   facet normal 3.168525e-001 6.308017e-001 -7.083034e-001
      outer loop
         vertex 1.500000e+000 2.598076e+000 1.000000e+000
         vertex 1.000000e+000 1.732051e+000 2.168404e-016
         vertex 1.026060e+000 2.819078e+000 1.000000e+000
      endloop
   endfacet
   facet normal 2.795533e-001 6.481946e-001 -7.083035e-001
      outer loop
         vertex 1.026060e+000 2.819078e+000 1.000000e+000
         vertex 1.000000e+000 1.732051e+000 2.168404e-016
         vertex 6.840403e-001 1.879385e+000 2.168404e-016
      endloop
   endfacet
   facet normal 2.025012e-001 6.762393e-001 -7.083035e-001
      outer loop
         vertex 1.026060e+000 2.819078e+000 1.000000e+000
         vertex 6.840403e-001 1.879385e+000 2.168404e-016
         vertex 5.209445e-001 2.954423e+000 1.000000e+000
      endloop
   endfacet
   facet normal 1.627484e-001 6.868910e-001 -7.083035e-001
      outer loop
         vertex 5.209445e-001 2.954423e+000 1.000000e+000
         vertex 6.840403e-001 1.879385e+000 2.168404e-016
         vertex 3.472964e-001 1.969615e+000 2.168404e-016
      endloop
   endfacet
   facet normal 8.199707e-002 7.011296e-001 -7.083035e-001
      outer loop
         vertex 5.209445e-001 2.954423e+000 1.000000e+000
         vertex 3.472964e-001 1.969615e+000 2.168404e-016
         vertex 4.163336e-016 3.000000e+000 1.000000e+000
      endloop
   endfacet
   facet normal 4.099853e-002 7.047165e-001 -7.083034e-001
      outer loop
         vertex 4.163336e-016 3.000000e+000 1.000000e+000
         vertex 3.472964e-001 1.969615e+000 2.168404e-016
         vertex 2.775558e-016 2.000000e+000 2.168404e-016
      endloop
   endfacet
   facet normal -4.099853e-002 7.047165e-001 -7.083034e-001
      outer loop
         vertex 4.163336e-016 3.000000e+000 1.000000e+000
         vertex 2.775558e-016 2.000000e+000 2.168404e-016
         vertex -5.209445e-001 2.954423e+000 1.000000e+000
      endloop
   endfacet
   facet normal -8.199707e-002 7.011296e-001 -7.083035e-001
      outer loop
         vertex -5.209445e-001 2.954423e+000 1.000000e+000
         vertex 2.775558e-016 2.000000e+000 2.168404e-016
         vertex -3.472964e-001 1.969615e+000 2.168404e-016
      endloop
   endfacet
   facet normal -1.627484e-001 6.868910e-001 -7.083035e-001
      outer loop
         vertex -5.209445e-001 2.954423e+000 1.000000e+000
         vertex -3.472964e-001 1.969615e+000 2.168404e-016
         vertex -1.026060e+000 2.819078e+000 1.000000e+000
      endloop
   endfacet
   facet normal -2.025012e-001 6.762393e-001 -7.083035e-001
      outer loop
         vertex -1.026060e+000 2.819078e+000 1.000000e+000
         vertex -3.472964e-001 1.969615e+000 2.168404e-016
         vertex -6.840403e-001 1.879385e+000 2.168404e-016
      endloop
   endfacet
   facet normal -2.795533e-001 6.481946e-001 -7.083035e-001
      outer loop
         vertex -1.026060e+000 2.819078e+000 1.000000e+000
         vertex -6.840403e-001 1.879385e+000 2.168404e-016
         vertex -1.500000e+000 2.598076e+000 1.000000e+000
      endloop
   endfacet
   facet normal -3.168525e-001 6.308017e-001 -7.083035e-001
      outer loop
         vertex -1.500000e+000 2.598076e+000 1.000000e+000
         vertex -6.840403e-001 1.879385e+000 2.168404e-016
         vertex -1.000000e+000 1.732051e+000 2.168404e-016
      endloop
   endfacet
   facet normal -3.878640e-001 5.898032e-001 -7.083035e-001
      outer loop
         vertex -1.500000e+000 2.598076e+000 1.000000e+000
         vertex -1.000000e+000 1.732051e+000 2.168404e-016
         vertex -1.928363e+000 2.298133e+000 1.000000e+000
      endloop
   endfacet
   facet normal -4.215763e-001 5.661975e-001 -7.083034e-001
      outer loop
         vertex -1.928363e+000 2.298133e+000 1.000000e+000
         vertex -1.000000e+000 1.732051e+000 2.168404e-016
         vertex -1.285575e+000 1.532089e+000 2.168404e-016
      endloop
   endfacet
   facet normal -4.843898e-001 5.134909e-001 -7.083035e-001
      outer loop
         vertex -1.928363e+000 2.298133e+000 1.000000e+000
         vertex -1.285575e+000 1.532089e+000 2.168404e-016
         vertex -2.298133e+000 1.928363e+000 1.000000e+000
      endloop
   endfacet
   facet normal -5.134908e-001 4.843898e-001 -7.083034e-001
      outer loop
         vertex -2.298133e+000 1.928363e+000 1.000000e+000
         vertex -1.285575e+000 1.532089e+000 2.168404e-016
         vertex -1.532089e+000 1.285575e+000 2.168404e-016
      endloop
   endfacet
   facet normal -5.661975e-001 4.215764e-001 -7.083035e-001
      outer loop
         vertex -2.298133e+000 1.928363e+000 1.000000e+000
         vertex -1.532089e+000 1.285575e+000 2.168404e-016
         vertex -2.598076e+000 1.500000e+000 1.000000e+000
      endloop
   endfacet
   facet normal -5.898032e-001 3.878640e-001 -7.083035e-001
      outer loop
         vertex -2.598076e+000 1.500000e+000 1.000000e+000
         vertex -1.532089e+000 1.285575e+000 2.168404e-016
         vertex -1.732051e+000 1.000000e+000 2.168404e-016
      endloop
   endfacet
   facet normal -6.308017e-001 3.168525e-001 -7.083034e-001
      outer loop
         vertex -2.598076e+000 1.500000e+000 1.000000e+000
         vertex -1.732051e+000 1.000000e+000 2.168404e-016
         vertex -2.819078e+000 1.026060e+000 1.000000e+000
      endloop
   endfacet
   facet normal -6.481946e-001 2.795533e-001 -7.083035e-001
      outer loop
         vertex -2.819078e+000 1.026060e+000 1.000000e+000
         vertex -1.732051e+000 1.000000e+000 2.168404e-016
         vertex -1.879385e+000 6.840403e-001 2.168404e-016
      endloop
   endfacet
   facet normal -6.762393e-001 2.025012e-001 -7.083035e-001
      outer loop
         vertex -2.819078e+000 1.026060e+000 1.000000e+000
         vertex -1.879385e+000 6.840403e-001 2.168404e-016
         vertex -2.954423e+000 5.209445e-001 1.000000e+000
      endloop
   endfacet
   facet normal -6.868910e-001 1.627484e-001 -7.083035e-001
      outer loop
         vertex -2.954423e+000 5.209445e-001 1.000000e+000
         vertex -1.879385e+000 6.840403e-001 2.168404e-016
         vertex -1.969615e+000 3.472964e-001 2.168404e-016
      endloop
   endfacet
   facet normal -7.011296e-001 8.199707e-002 -7.083035e-001
      outer loop
         vertex -2.954423e+000 5.209445e-001 1.000000e+000
         vertex -1.969615e+000 3.472964e-001 2.168404e-016
         vertex -3.000000e+000 5.828671e-016 1.000000e+000
      endloop
   endfacet
   facet normal -7.047165e-001 4.099853e-002 -7.083034e-001
      outer loop
         vertex -3.000000e+000 5.828671e-016 1.000000e+000
         vertex -1.969615e+000 3.472964e-001 2.168404e-016
         vertex -2.000000e+000 3.885781e-016 2.168404e-016
      endloop
   endfacet
   facet normal -7.047165e-001 -4.099853e-002 -7.083034e-001
      outer loop
         vertex -3.000000e+000 5.828671e-016 1.000000e+000
         vertex -2.000000e+000 3.885781e-016 2.168404e-016
         vertex -2.954423e+000 -5.209445e-001 1.000000e+000
      endloop
   endfacet
   facet normal -7.011296e-001 -8.199707e-002 -7.083035e-001
      outer loop
         vertex -2.954423e+000 -5.209445e-001 1.000000e+000
         vertex -2.000000e+000 3.885781e-016 2.168404e-016
         vertex -1.969615e+000 -3.472964e-001 2.168404e-016
      endloop
   endfacet
   facet normal -6.868910e-001 -1.627484e-001 -7.083035e-001
      outer loop
         vertex -2.954423e+000 -5.209445e-001 1.000000e+000
         vertex -1.969615e+000 -3.472964e-001 2.168404e-016
         vertex -2.819078e+000 -1.026060e+000 1.000000e+000
      endloop
   endfacet
   facet normal -6.762393e-001 -2.025012e-001 -7.083035e-001
      outer loop
         vertex -2.819078e+000 -1.026060e+000 1.000000e+000
         vertex -1.969615e+000 -3.472964e-001 2.168404e-016
         vertex -1.879385e+000 -6.840403e-001 2.168404e-016
      endloop
   endfacet
   facet normal -6.481946e-001 -2.795533e-001 -7.083035e-001
      outer loop
         vertex -2.819078e+000 -1.026060e+000 1.000000e+000
         vertex -1.879385e+000 -6.840403e-001 2.168404e-016
         vertex -2.598076e+000 -1.500000e+000 1.000000e+000
      endloop
   endfacet
   facet normal -6.308017e-001 -3.168525e-001 -7.083035e-001
      outer loop
         vertex -2.598076e+000 -1.500000e+000 1.000000e+000
         vertex -1.879385e+000 -6.840403e-001 2.168404e-016
         vertex -1.732051e+000 -1.000000e+000 2.168404e-016
      endloop
   endfacet
   facet normal -5.898032e-001 -3.878640e-001 -7.083035e-001
      outer loop
         vertex -2.598076e+000 -1.500000e+000 1.000000e+000
         vertex -1.732051e+000 -1.000000e+000 2.168404e-016
         vertex -2.298133e+000 -1.928363e+000 1.000000e+000
      endloop
   endfacet
   facet normal -5.661975e-001 -4.215763e-001 -7.083034e-001
      outer loop
         vertex -2.298133e+000 -1.928363e+000 1.000000e+000
         vertex -1.732051e+000 -1.000000e+000 2.168404e-016
         vertex -1.532089e+000 -1.285575e+000 2.168404e-016
      endloop
   endfacet
   facet normal -5.134909e-001 -4.843898e-001 -7.083035e-001
      outer loop
         vertex -2.298133e+000 -1.928363e+000 1.000000e+000
         vertex -1.532089e+000 -1.285575e+000 2.168404e-016
         vertex -1.928363e+000 -2.298133e+000 1.000000e+000
      endloop
   endfacet
   facet normal -4.843898e-001 -5.134908e-001 -7.083034e-001
      outer loop
         vertex -1.928363e+000 -2.298133e+000 1.000000e+000
         vertex -1.532089e+000 -1.285575e+000 2.168404e-016
         vertex -1.285575e+000 -1.532089e+000 2.168404e-016
      endloop
   endfacet
   facet normal -4.215764e-001 -5.661975e-001 -7.083035e-001
      outer loop
         vertex -1.928363e+000 -2.298133e+000 1.000000e+000
         vertex -1.285575e+000 -1.532089e+000 2.168404e-016
         vertex -1.500000e+000 -2.598076e+000 1.000000e+000
      endloop
   endfacet
   facet normal -3.878640e-001 -5.898032e-001 -7.083035e-001
      outer loop
         vertex -1.500000e+000 -2.598076e+000 1.000000e+000
         vertex -1.285575e+000 -1.532089e+000 2.168404e-016
         vertex -1.000000e+000 -1.732051e+000 2.168404e-016
      endloop
   endfacet
   facet normal -3.168525e-001 -6.308017e-001 -7.083034e-001
      outer loop
         vertex -1.500000e+000 -2.598076e+000 1.000000e+000
         vertex -1.000000e+000 -1.732051e+000 2.168404e-016
         vertex -1.026060e+000 -2.819078e+000 1.000000e+000
      endloop
   endfacet
   facet normal -2.795533e-001 -6.481946e-001 -7.083035e-001
      outer loop
         vertex -1.026060e+000 -2.819078e+000 1.000000e+000
         vertex -1.000000e+000 -1.732051e+000 2.168404e-016
         vertex -6.840403e-001 -1.879385e+000 2.168404e-016
      endloop
   endfacet
   facet normal -2.025012e-001 -6.762393e-001 -7.083035e-001
      outer loop
         vertex -1.026060e+000 -2.819078e+000 1.000000e+000
         vertex -6.840403e-001 -1.879385e+000 2.168404e-016
         vertex -5.209445e-001 -2.954423e+000 1.000000e+000
      endloop
   endfacet
   facet normal -1.627484e-001 -6.868910e-001 -7.083035e-001
      outer loop
         vertex -5.209445e-001 -2.954423e+000 1.000000e+000
         vertex -6.840403e-001 -1.879385e+000 2.168404e-016
         vertex -3.472964e-001 -1.969615e+000 2.168404e-016
      endloop
   endfacet
   facet normal -8.199707e-002 -7.011296e-001 -7.083035e-001
      outer loop
         vertex -5.209445e-001 -2.954423e+000 1.000000e+000
         vertex -3.472964e-001 -1.969615e+000 2.168404e-016
         vertex -4.163336e-016 -3.000000e+000 1.000000e+000
      endloop
   endfacet
   facet normal -4.099853e-002 -7.047165e-001 -7.083034e-001
      outer loop
         vertex -4.163336e-016 -3.000000e+000 1.000000e+000
         vertex -3.472964e-001 -1.969615e+000 2.168404e-016
         vertex -2.775558e-016 -2.000000e+000 2.168404e-016
      endloop
   endfacet
   facet normal 4.099853e-002 -7.047165e-001 -7.083034e-001
      outer loop
         vertex -4.163336e-016 -3.000000e+000 1.000000e+000
         vertex -2.775558e-016 -2.000000e+000 2.168404e-016
         vertex 5.209445e-001 -2.954423e+000 1.000000e+000
      endloop
   endfacet
   facet normal 8.199707e-002 -7.011296e-001 -7.083035e-001
      outer loop
         vertex 5.209445e-001 -2.954423e+000 1.000000e+000
         vertex -2.775558e-016 -2.000000e+000 2.168404e-016
         vertex 3.472964e-001 -1.969615e+000 2.168404e-016
      endloop
   endfacet
   facet normal 1.627484e-001 -6.868910e-001 -7.083035e-001
      outer loop
         vertex 5.209445e-001 -2.954423e+000 1.000000e+000
         vertex 3.472964e-001 -1.969615e+000 2.168404e-016
         vertex 1.026060e+000 -2.819078e+000 1.000000e+000
      endloop
   endfacet
   facet normal 2.025012e-001 -6.762393e-001 -7.083035e-001
      outer loop
         vertex 1.026060e+000 -2.819078e+000 1.000000e+000
         vertex 3.472964e-001 -1.969615e+000 2.168404e-016
         vertex 6.840403e-001 -1.879385e+000 2.168404e-016
      endloop
   endfacet
   facet normal 2.795533e-001 -6.481946e-001 -7.083035e-001
      outer loop
         vertex 1.026060e+000 -2.819078e+000 1.000000e+000
         vertex 6.840403e-001 -1.879385e+000 2.168404e-016
         vertex 1.500000e+000 -2.598076e+000 1.000000e+000
      endloop
   endfacet
   facet normal 3.168525e-001 -6.308017e-001 -7.083035e-001
      outer loop
         vertex 1.500000e+000 -2.598076e+000 1.000000e+000
         vertex 6.840403e-001 -1.879385e+000 2.168404e-016
         vertex 1.000000e+000 -1.732051e+000 2.168404e-016
      endloop
   endfacet
   facet normal 3.878640e-001 -5.898032e-001 -7.083035e-001
      outer loop
         vertex 1.500000e+000 -2.598076e+000 1.000000e+000
         vertex 1.000000e+000 -1.732051e+000 2.168404e-016
         vertex 1.928363e+000 -2.298133e+000 1.000000e+000
      endloop
   endfacet
   facet normal 4.215763e-001 -5.661975e-001 -7.083034e-001
      outer loop
         vertex 1.928363e+000 -2.298133e+000 1.000000e+000
         vertex 1.000000e+000 -1.732051e+000 2.168404e-016
         vertex 1.285575e+000 -1.532089e+000 2.168404e-016
      endloop
   endfacet
   facet normal 4.843898e-001 -5.134909e-001 -7.083035e-001
      outer loop
         vertex 1.928363e+000 -2.298133e+000 1.000000e+000
         vertex 1.285575e+000 -1.532089e+000 2.168404e-016
         vertex 2.298133e+000 -1.928363e+000 1.000000e+000
      endloop
   endfacet
   facet normal 5.134908e-001 -4.843898e-001 -7.083034e-001
      outer loop
         vertex 2.298133e+000 -1.928363e+000 1.000000e+000
         vertex 1.285575e+000 -1.532089e+000 2.168404e-016
         vertex 1.532089e+000 -1.285575e+000 2.168404e-016
      endloop
   endfacet
   facet normal 5.661975e-001 -4.215764e-001 -7.083035e-001
      outer loop
         vertex 2.298133e+000 -1.928363e+000 1.000000e+000
         vertex 1.532089e+000 -1.285575e+000 2.168404e-016
         vertex 2.598076e+000 -1.500000e+000 1.000000e+000
      endloop
   endfacet
   facet normal 5.898032e-001 -3.878640e-001 -7.083035e-001
      outer loop
         vertex 2.598076e+000 -1.500000e+000 1.000000e+000
         vertex 1.532089e+000 -1.285575e+000 2.168404e-016
         vertex 1.732051e+000 -1.000000e+000 2.168404e-016
      endloop
   endfacet
   facet normal 6.308017e-001 -3.168525e-001 -7.083034e-001
      outer loop
         vertex 2.598076e+000 -1.500000e+000 1.000000e+000
         vertex 1.732051e+000 -1.000000e+000 2.168404e-016
         vertex 2.819078e+000 -1.026060e+000 1.000000e+000
      endloop
   endfacet
   facet normal 6.481946e-001 -2.795533e-001 -7.083035e-001
      outer loop
         vertex 2.819078e+000 -1.026060e+000 1.000000e+000
         vertex 1.732051e+000 -1.000000e+000 2.168404e-016
         vertex 1.879385e+000 -6.840403e-001 2.168404e-016
      endloop
   endfacet
   facet normal 6.762393e-001 -2.025012e-001 -7.083035e-001
      outer loop
         vertex 2.819078e+000 -1.026060e+000 1.000000e+000
         vertex 1.879385e+000 -6.840403e-001 2.168404e-016
         vertex 2.954423e+000 -5.209445e-001 1.000000e+000
      endloop
   endfacet
   facet normal 6.868910e-001 -1.627484e-001 -7.083035e-001
      outer loop
         vertex 2.954423e+000 -5.209445e-001 1.000000e+000
         vertex 1.879385e+000 -6.840403e-001 2.168404e-016
         vertex 1.969615e+000 -3.472964e-001 2.168404e-016
      endloop
   endfacet
   facet normal 7.011296e-001 -8.199707e-002 -7.083035e-001
      outer loop
         vertex 2.954423e+000 -5.209445e-001 1.000000e+000
         vertex 1.969615e+000 -3.472964e-001 2.168404e-016
         vertex 3.000000e+000 0.000000e+000 1.000000e+000
      endloop
   endfacet
   facet normal 7.047165e-001 -4.099853e-002 -7.083034e-001
      outer loop
         vertex 3.000000e+000 0.000000e+000 1.000000e+000
         vertex 1.969615e+000 -3.472964e-001 2.168404e-016
         vertex 2.000000e+000 0.000000e+000 2.168404e-016
      endloop
   endfacet
   facet normal 7.047165e-001 4.099853e-002 -7.083034e-001
      outer loop
         vertex 3.000000e+000 0.000000e+000 1.000000e+000
         vertex 2.000000e+000 0.000000e+000 2.168404e-016
         vertex 2.954423e+000 5.209445e-001 1.000000e+000
      endloop
   endfacet
   facet normal 7.011296e-001 8.199707e-002 -7.083035e-001
      outer loop
         vertex 2.954423e+000 5.209445e-001 1.000000e+000
         vertex 2.000000e+000 0.000000e+000 2.168404e-016
         vertex 1.969615e+000 3.472964e-001 2.168404e-016
      endloop
   endfacet
   facet normal -6.868910e-001 1.627484e-001 7.083035e-001
      outer loop
         vertex -2.954423e+000 5.209445e-001 3.340000e+002
         vertex -1.969615e+000 3.472964e-001 3.350000e+002
         vertex -2.819078e+000 1.026060e+000 3.340000e+002
      endloop
   endfacet
   facet normal -6.762393e-001 2.025012e-001 7.083035e-001
      outer loop
         vertex -2.819078e+000 1.026060e+000 3.340000e+002
         vertex -1.969615e+000 3.472964e-001 3.350000e+002
         vertex -1.879385e+000 6.840403e-001 3.350000e+002
      endloop
   endfacet
   facet normal -6.481946e-001 2.795533e-001 7.083035e-001
      outer loop
         vertex -2.819078e+000 1.026060e+000 3.340000e+002
         vertex -1.879385e+000 6.840403e-001 3.350000e+002
         vertex -2.598076e+000 1.500000e+000 3.340000e+002
      endloop
   endfacet
   facet normal -6.308017e-001 3.168525e-001 7.083035e-001
      outer loop
         vertex -2.598076e+000 1.500000e+000 3.340000e+002
         vertex -1.879385e+000 6.840403e-001 3.350000e+002
         vertex -1.732051e+000 1.000000e+000 3.350000e+002
      endloop
   endfacet
   facet normal -5.898032e-001 3.878640e-001 7.083035e-001
      outer loop
         vertex -2.598076e+000 1.500000e+000 3.340000e+002
         vertex -1.732051e+000 1.000000e+000 3.350000e+002
         vertex -2.298133e+000 1.928363e+000 3.340000e+002
      endloop
   endfacet
   facet normal -5.661975e-001 4.215763e-001 7.083034e-001
      outer loop
         vertex -2.298133e+000 1.928363e+000 3.340000e+002
         vertex -1.732051e+000 1.000000e+000 3.350000e+002
         vertex -1.532089e+000 1.285575e+000 3.350000e+002
      endloop
   endfacet
   facet normal -5.134909e-001 4.843898e-001 7.083035e-001
      outer loop
         vertex -2.298133e+000 1.928363e+000 3.340000e+002
         vertex -1.532089e+000 1.285575e+000 3.350000e+002
         vertex -1.928363e+000 2.298133e+000 3.340000e+002
      endloop
   endfacet
   facet normal -4.843898e-001 5.134908e-001 7.083034e-001
      outer loop
         vertex -1.928363e+000 2.298133e+000 3.340000e+002
         vertex -1.532089e+000 1.285575e+000 3.350000e+002
         vertex -1.285575e+000 1.532089e+000 3.350000e+002
      endloop
   endfacet
   facet normal -4.215764e-001 5.661975e-001 7.083035e-001
      outer loop
         vertex -1.928363e+000 2.298133e+000 3.340000e+002
         vertex -1.285575e+000 1.532089e+000 3.350000e+002
         vertex -1.500000e+000 2.598076e+000 3.340000e+002
      endloop
   endfacet
   facet normal -3.878640e-001 5.898032e-001 7.083035e-001
      outer loop
         vertex -1.500000e+000 2.598076e+000 3.340000e+002
         vertex -1.285575e+000 1.532089e+000 3.350000e+002
         vertex -1.000000e+000 1.732051e+000 3.350000e+002
      endloop
   endfacet
   facet normal -3.168525e-001 6.308017e-001 7.083034e-001
      outer loop
         vertex -1.500000e+000 2.598076e+000 3.340000e+002
         vertex -1.000000e+000 1.732051e+000 3.350000e+002
         vertex -1.026060e+000 2.819078e+000 3.340000e+002
      endloop
   endfacet
   facet normal -2.795533e-001 6.481946e-001 7.083035e-001
      outer loop
         vertex -1.026060e+000 2.819078e+000 3.340000e+002
         vertex -1.000000e+000 1.732051e+000 3.350000e+002
         vertex -6.840403e-001 1.879385e+000 3.350000e+002
      endloop
   endfacet
   facet normal -2.025012e-001 6.762393e-001 7.083035e-001
      outer loop
         vertex -1.026060e+000 2.819078e+000 3.340000e+002
         vertex -6.840403e-001 1.879385e+000 3.350000e+002
         vertex -5.209445e-001 2.954423e+000 3.340000e+002
      endloop
   endfacet
   facet normal -1.627484e-001 6.868910e-001 7.083035e-001
      outer loop
         vertex -5.209445e-001 2.954423e+000 3.340000e+002
         vertex -6.840403e-001 1.879385e+000 3.350000e+002
         vertex -3.472964e-001 1.969615e+000 3.350000e+002
      endloop
   endfacet
   facet normal -8.199707e-002 7.011296e-001 7.083035e-001
      outer loop
         vertex -5.209445e-001 2.954423e+000 3.340000e+002
         vertex -3.472964e-001 1.969615e+000 3.350000e+002
         vertex -4.163336e-016 3.000000e+000 3.340000e+002
      endloop
   endfacet
   facet normal -4.099853e-002 7.047165e-001 7.083034e-001
      outer loop
         vertex -4.163336e-016 3.000000e+000 3.340000e+002
         vertex -3.472964e-001 1.969615e+000 3.350000e+002
         vertex -2.775558e-016 2.000000e+000 3.350000e+002
      endloop
   endfacet
   facet normal 4.099853e-002 7.047165e-001 7.083034e-001
      outer loop
         vertex -4.163336e-016 3.000000e+000 3.340000e+002
         vertex -2.775558e-016 2.000000e+000 3.350000e+002
         vertex 5.209445e-001 2.954423e+000 3.340000e+002
      endloop
   endfacet
   facet normal 8.199707e-002 7.011296e-001 7.083035e-001
      outer loop
         vertex 5.209445e-001 2.954423e+000 3.340000e+002
         vertex -2.775558e-016 2.000000e+000 3.350000e+002
         vertex 3.472964e-001 1.969615e+000 3.350000e+002
      endloop
   endfacet
   facet normal 1.627484e-001 6.868910e-001 7.083035e-001
      outer loop
         vertex 5.209445e-001 2.954423e+000 3.340000e+002
         vertex 3.472964e-001 1.969615e+000 3.350000e+002
         vertex 1.026060e+000 2.819078e+000 3.340000e+002
      endloop
   endfacet
   facet normal 2.025012e-001 6.762393e-001 7.083035e-001
      outer loop
         vertex 1.026060e+000 2.819078e+000 3.340000e+002
         vertex 3.472964e-001 1.969615e+000 3.350000e+002
         vertex 6.840403e-001 1.879385e+000 3.350000e+002
      endloop
   endfacet
   facet normal 2.795533e-001 6.481946e-001 7.083035e-001
      outer loop
         vertex 1.026060e+000 2.819078e+000 3.340000e+002
         vertex 6.840403e-001 1.879385e+000 3.350000e+002
         vertex 1.500000e+000 2.598076e+000 3.340000e+002
      endloop
   endfacet
   facet normal 3.168525e-001 6.308017e-001 7.083035e-001
      outer loop
         vertex 1.500000e+000 2.598076e+000 3.340000e+002
         vertex 6.840403e-001 1.879385e+000 3.350000e+002
         vertex 1.000000e+000 1.732051e+000 3.350000e+002
      endloop
   endfacet
   facet normal 3.878640e-001 5.898032e-001 7.083035e-001
      outer loop
         vertex 1.500000e+000 2.598076e+000 3.340000e+002
         vertex 1.000000e+000 1.732051e+000 3.350000e+002
         vertex 1.928363e+000 2.298133e+000 3.340000e+002
      endloop
   endfacet
   facet normal 4.215763e-001 5.661975e-001 7.083034e-001
      outer loop
         vertex 1.928363e+000 2.298133e+000 3.340000e+002
         vertex 1.000000e+000 1.732051e+000 3.350000e+002
         vertex 1.285575e+000 1.532089e+000 3.350000e+002
      endloop
   endfacet
   facet normal 4.843898e-001 5.134909e-001 7.083035e-001
      outer loop
         vertex 1.928363e+000 2.298133e+000 3.340000e+002
         vertex 1.285575e+000 1.532089e+000 3.350000e+002
         vertex 2.298133e+000 1.928363e+000 3.340000e+002
      endloop
   endfacet
   facet normal 5.134908e-001 4.843898e-001 7.083034e-001
      outer loop
         vertex 2.298133e+000 1.928363e+000 3.340000e+002
         vertex 1.285575e+000 1.532089e+000 3.350000e+002
         vertex 1.532089e+000 1.285575e+000 3.350000e+002
      endloop
   endfacet
   facet normal 5.661975e-001 4.215764e-001 7.083035e-001
      outer loop
         vertex 2.298133e+000 1.928363e+000 3.340000e+002
         vertex 1.532089e+000 1.285575e+000 3.350000e+002
         vertex 2.598076e+000 1.500000e+000 3.340000e+002
      endloop
   endfacet
   facet normal 5.898032e-001 3.878640e-001 7.083035e-001
      outer loop
         vertex 2.598076e+000 1.500000e+000 3.340000e+002
         vertex 1.532089e+000 1.285575e+000 3.350000e+002
         vertex 1.732051e+000 1.000000e+000 3.350000e+002
      endloop
   endfacet
   facet normal 6.308017e-001 3.168525e-001 7.083034e-001
      outer loop
         vertex 2.598076e+000 1.500000e+000 3.340000e+002
         vertex 1.732051e+000 1.000000e+000 3.350000e+002
         vertex 2.819078e+000 1.026060e+000 3.340000e+002
      endloop
   endfacet
   facet normal 6.481946e-001 2.795533e-001 7.083035e-001
      outer loop
         vertex 2.819078e+000 1.026060e+000 3.340000e+002
         vertex 1.732051e+000 1.000000e+000 3.350000e+002
         vertex 1.879385e+000 6.840403e-001 3.350000e+002
      endloop
   endfacet
   facet normal 6.762393e-001 2.025012e-001 7.083035e-001
      outer loop
         vertex 2.819078e+000 1.026060e+000 3.340000e+002
         vertex 1.879385e+000 6.840403e-001 3.350000e+002
         vertex 2.954423e+000 5.209445e-001 3.340000e+002
      endloop
   endfacet
   facet normal 6.868910e-001 1.627484e-001 7.083035e-001
      outer loop
         vertex 2.954423e+000 5.209445e-001 3.340000e+002
         vertex 1.879385e+000 6.840403e-001 3.350000e+002
         vertex 1.969615e+000 3.472964e-001 3.350000e+002
      endloop
   endfacet
   facet normal 7.011296e-001 8.199707e-002 7.083035e-001
      outer loop
         vertex 2.954423e+000 5.209445e-001 3.340000e+002
         vertex 1.969615e+000 3.472964e-001 3.350000e+002
         vertex 3.000000e+000 5.828671e-016 3.340000e+002
      endloop
   endfacet
   facet normal 7.047165e-001 4.099853e-002 7.083034e-001
      outer loop
         vertex 3.000000e+000 5.828671e-016 3.340000e+002
         vertex 1.969615e+000 3.472964e-001 3.350000e+002
         vertex 2.000000e+000 3.885781e-016 3.350000e+002
      endloop
   endfacet
   facet normal 7.047165e-001 -4.099853e-002 7.083034e-001
      outer loop
         vertex 3.000000e+000 5.828671e-016 3.340000e+002
         vertex 2.000000e+000 3.885781e-016 3.350000e+002
         vertex 2.954423e+000 -5.209445e-001 3.340000e+002
      endloop
   endfacet
   facet normal 7.011296e-001 -8.199707e-002 7.083035e-001
      outer loop
         vertex 2.954423e+000 -5.209445e-001 3.340000e+002
         vertex 2.000000e+000 3.885781e-016 3.350000e+002
         vertex 1.969615e+000 -3.472964e-001 3.350000e+002
      endloop
   endfacet
   facet normal 6.868910e-001 -1.627484e-001 7.083035e-001
      outer loop
         vertex 2.954423e+000 -5.209445e-001 3.340000e+002
         vertex 1.969615e+000 -3.472964e-001 3.350000e+002
         vertex 2.819078e+000 -1.026060e+000 3.340000e+002
      endloop
   endfacet
   facet normal 6.762393e-001 -2.025012e-001 7.083035e-001
      outer loop
         vertex 2.819078e+000 -1.026060e+000 3.340000e+002
         vertex 1.969615e+000 -3.472964e-001 3.350000e+002
         vertex 1.879385e+000 -6.840403e-001 3.350000e+002
      endloop
   endfacet
   facet normal 6.481946e-001 -2.795533e-001 7.083035e-001
      outer loop
         vertex 2.819078e+000 -1.026060e+000 3.340000e+002
         vertex 1.879385e+000 -6.840403e-001 3.350000e+002
         vertex 2.598076e+000 -1.500000e+000 3.340000e+002
      endloop
   endfacet
   facet normal 6.308017e-001 -3.168525e-001 7.083035e-001
      outer loop
         vertex 2.598076e+000 -1.500000e+000 3.340000e+002
         vertex 1.879385e+000 -6.840403e-001 3.350000e+002
         vertex 1.732051e+000 -1.000000e+000 3.350000e+002
      endloop
   endfacet
   facet normal 5.898032e-001 -3.878640e-001 7.083035e-001
      outer loop
         vertex 2.598076e+000 -1.500000e+000 3.340000e+002
         vertex 1.732051e+000 -1.000000e+000 3.350000e+002
         vertex 2.298133e+000 -1.928363e+000 3.340000e+002
      endloop
   endfacet
   facet normal 5.661975e-001 -4.215763e-001 7.083034e-001
      outer loop
         vertex 2.298133e+000 -1.928363e+000 3.340000e+002
         vertex 1.732051e+000 -1.000000e+000 3.350000e+002
         vertex 1.532089e+000 -1.285575e+000 3.350000e+002
      endloop
   endfacet
   facet normal 5.134909e-001 -4.843898e-001 7.083035e-001
      outer loop
         vertex 2.298133e+000 -1.928363e+000 3.340000e+002
         vertex 1.532089e+000 -1.285575e+000 3.350000e+002
         vertex 1.928363e+000 -2.298133e+000 3.340000e+002
      endloop
   endfacet
   facet normal 4.843898e-001 -5.134908e-001 7.083034e-001
      outer loop
         vertex 1.928363e+000 -2.298133e+000 3.340000e+002
         vertex 1.532089e+000 -1.285575e+000 3.350000e+002
         vertex 1.285575e+000 -1.532089e+000 3.350000e+002
      endloop
   endfacet
   facet normal 4.215764e-001 -5.661975e-001 7.083035e-001
      outer loop
         vertex 1.928363e+000 -2.298133e+000 3.340000e+002
         vertex 1.285575e+000 -1.532089e+000 3.350000e+002
         vertex 1.500000e+000 -2.598076e+000 3.340000e+002
      endloop
   endfacet
   facet normal 3.878640e-001 -5.898032e-001 7.083035e-001
      outer loop
         vertex 1.500000e+000 -2.598076e+000 3.340000e+002
         vertex 1.285575e+000 -1.532089e+000 3.350000e+002
         vertex 1.000000e+000 -1.732051e+000 3.350000e+002
      endloop
   endfacet
   facet normal 3.168525e-001 -6.308017e-001 7.083034e-001
      outer loop
         vertex 1.500000e+000 -2.598076e+000 3.340000e+002
         vertex 1.000000e+000 -1.732051e+000 3.350000e+002
         vertex 1.026060e+000 -2.819078e+000 3.340000e+002
      endloop
   endfacet
   facet normal 2.795533e-001 -6.481946e-001 7.083035e-001
      outer loop
         vertex 1.026060e+000 -2.819078e+000 3.340000e+002
         vertex 1.000000e+000 -1.732051e+000 3.350000e+002
         vertex 6.840403e-001 -1.879385e+000 3.350000e+002
      endloop
   endfacet
   facet normal 2.025012e-001 -6.762393e-001 7.083035e-001
      outer loop
         vertex 1.026060e+000 -2.819078e+000 3.340000e+002
         vertex 6.840403e-001 -1.879385e+000 3.350000e+002
         vertex 5.209445e-001 -2.954423e+000 3.340000e+002
      endloop
   endfacet
   facet normal 1.627484e-001 -6.868910e-001 7.083035e-001
      outer loop
         vertex 5.209445e-001 -2.954423e+000 3.340000e+002
         vertex 6.840403e-001 -1.879385e+000 3.350000e+002
         vertex 3.472964e-001 -1.969615e+000 3.350000e+002
      endloop
   endfacet
   facet normal 8.199707e-002 -7.011296e-001 7.083035e-001
      outer loop
         vertex 5.209445e-001 -2.954423e+000 3.340000e+002
         vertex 3.472964e-001 -1.969615e+000 3.350000e+002
         vertex 4.163336e-016 -3.000000e+000 3.340000e+002
      endloop
   endfacet
   facet normal 4.099853e-002 -7.047165e-001 7.083034e-001
      outer loop
         vertex 4.163336e-016 -3.000000e+000 3.340000e+002
         vertex 3.472964e-001 -1.969615e+000 3.350000e+002
         vertex 2.775558e-016 -2.000000e+000 3.350000e+002
      endloop
   endfacet
   facet normal -4.099853e-002 -7.047165e-001 7.083034e-001
      outer loop
         vertex 4.163336e-016 -3.000000e+000 3.340000e+002
         vertex 2.775558e-016 -2.000000e+000 3.350000e+002
         vertex -5.209445e-001 -2.954423e+000 3.340000e+002
      endloop
   endfacet
   facet normal -8.199707e-002 -7.011296e-001 7.083035e-001
      outer loop
         vertex -5.209445e-001 -2.954423e+000 3.340000e+002
         vertex 2.775558e-016 -2.000000e+000 3.350000e+002
         vertex -3.472964e-001 -1.969615e+000 3.350000e+002
      endloop
   endfacet
   facet normal -1.627484e-001 -6.868910e-001 7.083035e-001
      outer loop
         vertex -5.209445e-001 -2.954423e+000 3.340000e+002
         vertex -3.472964e-001 -1.969615e+000 3.350000e+002
         vertex -1.026060e+000 -2.819078e+000 3.340000e+002
      endloop
   endfacet
   facet normal -2.025012e-001 -6.762393e-001 7.083035e-001
      outer loop
         vertex -1.026060e+000 -2.819078e+000 3.340000e+002
         vertex -3.472964e-001 -1.969615e+000 3.350000e+002
         vertex -6.840403e-001 -1.879385e+000 3.350000e+002
      endloop
   endfacet
   facet normal -2.795533e-001 -6.481946e-001 7.083035e-001
      outer loop
         vertex -1.026060e+000 -2.819078e+000 3.340000e+002
         vertex -6.840403e-001 -1.879385e+000 3.350000e+002
         vertex -1.500000e+000 -2.598076e+000 3.340000e+002
      endloop
   endfacet
   facet normal -3.168525e-001 -6.308017e-001 7.083035e-001
      outer loop
         vertex -1.500000e+000 -2.598076e+000 3.340000e+002
         vertex -6.840403e-001 -1.879385e+000 3.350000e+002
         vertex -1.000000e+000 -1.732051e+000 3.350000e+002
      endloop
   endfacet
   facet normal -3.878640e-001 -5.898032e-001 7.083035e-001
      outer loop
         vertex -1.500000e+000 -2.598076e+000 3.340000e+002
         vertex -1.000000e+000 -1.732051e+000 3.350000e+002
         vertex -1.928363e+000 -2.298133e+000 3.340000e+002
      endloop
   endfacet
   facet normal -4.215763e-001 -5.661975e-001 7.083034e-001
      outer loop
         vertex -1.928363e+000 -2.298133e+000 3.340000e+002
         vertex -1.000000e+000 -1.732051e+000 3.350000e+002
         vertex -1.285575e+000 -1.532089e+000 3.350000e+002
      endloop
   endfacet
   facet normal -4.843898e-001 -5.134909e-001 7.083035e-001
      outer loop
         vertex -1.928363e+000 -2.298133e+000 3.340000e+002
         vertex -1.285575e+000 -1.532089e+000 3.350000e+002
         vertex -2.298133e+000 -1.928363e+000 3.340000e+002
      endloop
   endfacet
   facet normal -5.134908e-001 -4.843898e-001 7.083034e-001
      outer loop
         vertex -2.298133e+000 -1.928363e+000 3.340000e+002
         vertex -1.285575e+000 -1.532089e+000 3.350000e+002
         vertex -1.532089e+000 -1.285575e+000 3.350000e+002
      endloop
   endfacet
   facet normal -5.661975e-001 -4.215764e-001 7.083035e-001
      outer loop
         vertex -2.298133e+000 -1.928363e+000 3.340000e+002
         vertex -1.532089e+000 -1.285575e+000 3.350000e+002
         vertex -2.598076e+000 -1.500000e+000 3.340000e+002
      endloop
   endfacet
   facet normal -5.898032e-001 -3.878640e-001 7.083035e-001
      outer loop
         vertex -2.598076e+000 -1.500000e+000 3.340000e+002
         vertex -1.532089e+000 -1.285575e+000 3.350000e+002
         vertex -1.732051e+000 -1.000000e+000 3.350000e+002
      endloop
   endfacet
   facet normal -6.308017e-001 -3.168525e-001 7.083034e-001
      outer loop
         vertex -2.598076e+000 -1.500000e+000 3.340000e+002
         vertex -1.732051e+000 -1.000000e+000 3.350000e+002
         vertex -2.819078e+000 -1.026060e+000 3.340000e+002
      endloop
   endfacet
   facet normal -6.481946e-001 -2.795533e-001 7.083035e-001
      outer loop
         vertex -2.819078e+000 -1.026060e+000 3.340000e+002
         vertex -1.732051e+000 -1.000000e+000 3.350000e+002
         vertex -1.879385e+000 -6.840403e-001 3.350000e+002
      endloop
   endfacet
   facet normal -6.762393e-001 -2.025012e-001 7.083035e-001
      outer loop
         vertex -2.819078e+000 -1.026060e+000 3.340000e+002
         vertex -1.879385e+000 -6.840403e-001 3.350000e+002
         vertex -2.954423e+000 -5.209445e-001 3.340000e+002
      endloop
   endfacet
   facet normal -6.868910e-001 -1.627484e-001 7.083035e-001
      outer loop
         vertex -2.954423e+000 -5.209445e-001 3.340000e+002
         vertex -1.879385e+000 -6.840403e-001 3.350000e+002
         vertex -1.969615e+000 -3.472964e-001 3.350000e+002
      endloop
   endfacet
   facet normal -7.011296e-001 -8.199707e-002 7.083035e-001
      outer loop
         vertex -2.954423e+000 -5.209445e-001 3.340000e+002
         vertex -1.969615e+000 -3.472964e-001 3.350000e+002
         vertex -3.000000e+000 0.000000e+000 3.340000e+002
      endloop
   endfacet
   facet normal -7.047165e-001 -4.099853e-002 7.083034e-001
      outer loop
         vertex -3.000000e+000 0.000000e+000 3.340000e+002
         vertex -1.969615e+000 -3.472964e-001 3.350000e+002
         vertex -2.000000e+000 0.000000e+000 3.350000e+002
      endloop
   endfacet
   facet normal -7.047165e-001 4.099853e-002 7.083034e-001
      outer loop
         vertex -3.000000e+000 0.000000e+000 3.340000e+002
         vertex -2.000000e+000 0.000000e+000 3.350000e+002
         vertex -2.954423e+000 5.209445e-001 3.340000e+002
      endloop
   endfacet
   facet normal -7.011296e-001 8.199707e-002 7.083035e-001
      outer loop
         vertex -2.954423e+000 5.209445e-001 3.340000e+002
         vertex -2.000000e+000 0.000000e+000 3.350000e+002
         vertex -1.969615e+000 3.472964e-001 3.350000e+002
      endloop
   endfacet
endsolid